<svg width="24" height="24" viewBox="0 0 24 24" fill="none" xmlns="http://www.w3.org/2000/svg">
<path fill-rule="evenodd" clip-rule="evenodd" d="M6 3.5C4.89543 3.5 4 4.44064 4 5.60098V18.3955C4 20.0735 5.78029 21.0744 7.1094 20.1436L11 17.4189L14.8906 20.1436C16.2197 21.0744 18 20.0735 18 18.3955V15.6708C18 15.0906 17.5523 14.6203 17 14.6203C16.4477 14.6203 16 15.0906 16 15.6708V18.3955L12.1094 15.6708C11.4376 15.2003 10.5624 15.2003 9.8906 15.6708L6 18.3955V5.60098H10.5C11.0523 5.60098 11.5 5.13066 11.5 4.55049C11.5 3.97032 11.0523 3.5 10.5 3.5H6Z" fill="#111111"/>
<path d="M12.5 10.5C11.6716 10.5 11 9.82843 11 9C11 8.17157 11.6716 7.5 12.5 7.5L18.5 7.5C19.3284 7.5 20 8.17157 20 9C20 9.82843 19.3284 10.5 18.5 10.5L12.5 10.5Z" fill="#EE2E5B"/>
</svg>
