<svg width="20" height="20" viewBox="0 0 20 20" fill="none" xmlns="http://www.w3.org/2000/svg">
<path fill-rule="evenodd" clip-rule="evenodd" d="M5.75778 5.75736C5.42307 6.09207 5.42307 6.63483 5.75778 6.96954L8.78823 10L5.75778 13.0305C5.57429 13.2139 5.49128 13.46 5.50904 13.6997C5.52354 13.8977 5.60655 14.0914 5.75778 14.2426C6.09249 14.5774 6.63525 14.5774 6.96996 14.2426L10.0004 11.2122L13.0309 14.2426C13.3656 14.5774 13.9083 14.5774 14.2431 14.2426C14.5778 13.9079 14.5778 13.3652 14.2431 13.0305L11.2126 10L14.2431 6.96954C14.5778 6.63483 14.5778 6.09207 14.2431 5.75736C13.9083 5.42265 13.3656 5.42265 13.0309 5.75736L10.0004 8.78782L6.96996 5.75736C6.63525 5.42265 6.09249 5.42265 5.75778 5.75736Z" fill="#A3A3A3"/>
</svg>
