<svg width="18" height="18" viewBox="0 0 18 18" fill="none" xmlns="http://www.w3.org/2000/svg">
<path fill-rule="evenodd" clip-rule="evenodd" d="M11.227 0.0272808C12.1224 0.249014 12.9793 0.604232 13.7689 1.081C13.9272 1.17654 14.0533 1.31736 14.1307 1.48526C14.2082 1.65317 14.2335 1.84044 14.2034 2.02288C14.0989 2.65974 14.2579 3.14685 14.5546 3.44448C14.8522 3.74211 15.3403 3.90017 15.9762 3.79572C16.1588 3.76542 16.3462 3.79063 16.5143 3.86809C16.6824 3.94554 16.8234 4.07167 16.919 4.23015C17.3957 5.0198 17.751 5.87668 17.9727 6.77203C18.0174 6.95166 18.007 7.14055 17.9431 7.31425C17.8792 7.48795 17.7645 7.63845 17.6141 7.74626C17.0891 8.12246 16.8561 8.57815 16.8561 8.99963C16.8561 9.42112 17.0891 9.87774 17.6141 10.2539C17.7644 10.3617 17.8789 10.512 17.9428 10.6855C18.0067 10.859 18.0172 11.0477 17.9727 11.2272C17.751 12.1226 17.3958 12.9795 16.919 13.7691C16.8234 13.9276 16.6824 14.0537 16.5143 14.1312C16.3462 14.2086 16.1588 14.2338 15.9762 14.2035C15.3393 14.0991 14.8531 14.2581 14.5555 14.5548C14.2579 14.8524 14.0989 15.3405 14.2043 15.9764C14.2346 16.159 14.2094 16.3464 14.1319 16.5145C14.0545 16.6826 13.9283 16.8236 13.7698 16.9192C12.9796 17.3961 12.1221 17.7513 11.2261 17.9729C11.0466 18.0173 10.8579 18.0069 10.6844 17.943C10.5109 17.8791 10.3606 17.7646 10.2528 17.6143C9.87754 17.0893 9.42093 16.8563 8.99944 16.8563C8.57888 16.8563 8.12134 17.0893 7.74607 17.6143C7.63832 17.7646 7.48797 17.8791 7.31446 17.943C7.14095 18.0069 6.95225 18.0173 6.77276 17.9729C5.87677 17.7513 5.01925 17.3961 4.22904 16.9192C4.07056 16.8236 3.94442 16.6826 3.86697 16.5145C3.78951 16.3464 3.76431 16.159 3.79461 15.9764C3.89998 15.3405 3.74192 14.8533 3.44337 14.5557C3.14666 14.2581 2.65954 14.0991 2.02269 14.2045C1.84025 14.2346 1.65297 14.2093 1.48507 14.1318C1.31716 14.0544 1.17634 13.9284 1.08081 13.77C0.60388 12.9798 0.248657 12.1223 0.0270861 11.2263C-0.0173505 11.0468 -0.00692851 10.8581 0.0570049 10.6846C0.120938 10.5111 0.235444 10.3608 0.385722 10.253C0.90981 9.87774 1.14366 9.42112 1.14366 8.99963C1.14366 8.57907 0.90981 8.12153 0.385722 7.74626C0.235444 7.63851 0.120938 7.48816 0.0570049 7.31466C-0.00692851 7.14115 -0.0173505 6.95245 0.0270861 6.77295C0.248731 5.87728 0.603953 5.02007 1.08081 4.23015C1.17634 4.07184 1.31716 3.94582 1.48507 3.86837C1.65297 3.79093 1.84025 3.76562 2.02269 3.79572C2.65954 3.90017 3.14666 3.74211 3.44429 3.44448C3.74192 3.14685 3.89998 2.65881 3.79553 2.02288C3.76543 1.84044 3.79073 1.65317 3.86818 1.48526C3.94562 1.31736 4.07164 1.17654 4.22996 1.081C5.0196 0.604245 5.87648 0.249027 6.77183 0.0272808C6.95146 -0.0173559 7.14036 -0.00703521 7.31405 0.0569064C7.48775 0.120848 7.63825 0.235465 7.74607 0.385916C8.12226 0.910004 8.57795 1.14386 8.99944 1.14386C9.42093 1.14386 9.87754 0.910004 10.2537 0.385916C10.3615 0.235638 10.5118 0.121133 10.6853 0.0571995C10.8589 -0.00673382 11.0476 -0.0171558 11.227 0.0272808ZM11.3213 1.97759C10.7141 2.58487 9.91636 2.99157 8.99944 2.99157C8.08252 2.99157 7.28483 2.58579 6.67755 1.97667C6.33377 2.09042 5.99887 2.22945 5.67559 2.39261C5.67652 3.25223 5.39922 4.1026 4.75128 4.75147C4.10333 5.39942 3.25203 5.67671 2.39242 5.67579C2.22974 5.99745 2.09109 6.33205 1.97647 6.67775C2.5856 7.28503 2.99137 8.08271 2.99137 8.99963C2.99137 9.91656 2.5856 10.7142 1.97647 11.3215C2.09109 11.6672 2.23066 12.0027 2.39242 12.3244C3.25203 12.3226 4.1024 12.5999 4.75128 13.2487C5.39922 13.8957 5.67652 14.747 5.67559 15.6067C5.99633 15.7693 6.33186 15.908 6.67755 16.0226C7.28483 15.4135 8.08252 15.0077 8.99944 15.0077C9.91636 15.0077 10.7141 15.4144 11.3213 16.0226C11.6654 15.9089 12.0006 15.7699 12.3242 15.6067C12.3224 14.747 12.5997 13.8967 13.2485 13.2478C13.8956 12.5999 14.7469 12.3235 15.6065 12.3235C15.7691 12.0027 15.9078 11.6672 16.0224 11.3215C15.4133 10.7142 15.0075 9.91656 15.0075 8.99963C15.0075 8.08271 15.4142 7.28503 16.0224 6.67775C15.9087 6.33396 15.7696 5.99906 15.6065 5.67579C14.7469 5.67671 13.8965 5.39942 13.2476 4.75147C12.5997 4.10352 12.3233 3.25223 12.3233 2.39261C12 2.22945 11.6651 2.09135 11.3213 1.97759ZM8.99944 5.30236C9.98002 5.30236 10.9204 5.6919 11.6138 6.38527C12.3072 7.07864 12.6967 8.01906 12.6967 8.99963C12.6967 9.98021 12.3072 10.9206 11.6138 11.614C10.9204 12.3074 9.98002 12.6969 8.99944 12.6969C8.01886 12.6969 7.07845 12.3074 6.38507 11.614C5.6917 10.9206 5.30217 9.98021 5.30217 8.99963C5.30217 8.01906 5.6917 7.07864 6.38507 6.38527C7.07845 5.6919 8.01886 5.30236 8.99944 5.30236ZM8.99944 7.151C8.50915 7.151 8.03894 7.34577 7.69226 7.69245C7.34557 8.03914 7.1508 8.50935 7.1508 8.99963C7.1508 9.48992 7.34557 9.96013 7.69226 10.3068C8.03894 10.6535 8.50915 10.8483 8.99944 10.8483C9.48973 10.8483 9.95994 10.6535 10.3066 10.3068C10.6533 9.96013 10.8481 9.48992 10.8481 8.99963C10.8481 8.50935 10.6533 8.03914 10.3066 7.69245C9.95994 7.34577 9.48973 7.151 8.99944 7.151Z" fill="#333333"/>
</svg>
