<svg width="24" height="24" viewBox="0 0 24 24" fill="none" xmlns="http://www.w3.org/2000/svg">
<path fill-rule="evenodd" clip-rule="evenodd" d="M7.05046 5.63591C6.65994 5.24539 6.02677 5.24539 5.63625 5.63591C5.24572 6.02644 5.24572 6.6596 5.63625 7.05012L10.586 11.9999L5.63616 16.9497C5.24563 17.3402 5.24563 17.9734 5.63615 18.3639C6.02668 18.7545 6.65984 18.7545 7.05037 18.3639L12.0002 13.4141L16.95 18.3638C17.3405 18.7544 17.9736 18.7544 18.3642 18.3638C18.7547 17.9733 18.7547 17.3401 18.3642 16.9496L13.4144 11.9999L18.3641 7.05023C18.7546 6.65971 18.7546 6.02654 18.3641 5.63602C17.9736 5.24549 17.3404 5.24549 16.9499 5.63602L12.0002 10.5857L7.05046 5.63591Z" fill="#111111"/>
</svg>
