<svg width="20" height="20" viewBox="0 0 20 20" fill="none" xmlns="http://www.w3.org/2000/svg">
<rect width="20" height="20" rx="10" fill="#646464"/>
<path d="M10.1058 7.23232C10.6963 7.23232 11.1746 7.71933 11.1746 8.32054V13.8413C11.3764 13.9599 11.534 14.143 11.6232 14.3621C11.7123 14.5812 11.7279 14.8242 11.6676 15.0533C11.6074 15.2824 11.4745 15.4848 11.2897 15.6292C11.1049 15.7736 10.8785 15.8518 10.6455 15.8519H10.127C9.98665 15.8519 9.84767 15.8237 9.718 15.769C9.58833 15.7143 9.4705 15.6342 9.37126 15.5331C9.27201 15.4321 9.19328 15.3121 9.13957 15.1801C9.08586 15.048 9.05821 14.9065 9.05821 14.7636V9.38721C8.77756 9.38721 8.5084 9.27369 8.30994 9.07163C8.11149 8.86957 8 8.59552 8 8.30976C8 8.02401 8.11149 7.74996 8.30994 7.5479C8.5084 7.34584 8.77756 7.23232 9.05821 7.23232H10.1058ZM10.1164 4C10.3971 4 10.6662 4.11352 10.8647 4.31558C11.0632 4.51763 11.1746 4.79169 11.1746 5.07744C11.1746 5.3632 11.0632 5.63725 10.8647 5.83931C10.6662 6.04137 10.3971 6.15488 10.1164 6.15488C9.83577 6.15488 9.56661 6.04137 9.36816 5.83931C9.1697 5.63725 9.05821 5.3632 9.05821 5.07744C9.05821 4.79169 9.1697 4.51763 9.36816 4.31558C9.56661 4.11352 9.83577 4 10.1164 4Z" fill="white"/>
</svg>
