<svg width="16" height="17" viewBox="0 0 16 17" fill="none" xmlns="http://www.w3.org/2000/svg">
<path fill-rule="evenodd" clip-rule="evenodd" d="M7.99922 0.712891C8.13255 0.712891 8.25755 0.73389 8.37422 0.77589C8.49089 0.817223 8.59922 0.88789 8.69922 0.98789L12.2992 4.58789C12.4826 4.77122 12.5742 5.00456 12.5742 5.28789C12.5742 5.57122 12.4826 5.80456 12.2992 5.98789C12.1159 6.17122 11.8786 6.26722 11.5872 6.27589C11.2952 6.28389 11.0576 6.19622 10.8742 6.01289L8.99922 4.13789L8.99922 11.2879C8.99922 11.5712 8.90322 11.8089 8.71122 12.0009C8.51989 12.1922 8.28255 12.2879 7.99922 12.2879C7.71588 12.2879 7.47822 12.1922 7.28622 12.0009C7.09488 11.8089 6.99922 11.5712 6.99922 11.2879L6.99922 4.13789L5.12422 6.01289C4.94089 6.19622 4.70322 6.28389 4.41122 6.27589C4.11988 6.26722 3.88255 6.17122 3.69922 5.98789C3.51589 5.80456 3.42422 5.57122 3.42422 5.28789C3.42422 5.00456 3.51589 4.77122 3.69922 4.58789L7.29922 0.98789C7.39922 0.887889 7.50755 0.817223 7.62422 0.77589C7.74089 0.73389 7.86589 0.712891 7.99922 0.712891ZM0.588 15.7009C0.979333 16.0922 1.45 16.2879 2 16.2879H14C14.55 16.2879 15.021 16.0922 15.413 15.7009C15.8043 15.3089 16 14.8379 16 14.2879V12.2879C16 12.0046 15.904 11.7669 15.712 11.5749C15.5207 11.3836 15.2833 11.2879 15 11.2879C14.7167 11.2879 14.4793 11.3836 14.288 11.5749C14.096 11.7669 14 12.0046 14 12.2879V14.2879H2V12.2879C2 12.0046 1.90433 11.7669 1.713 11.5749C1.521 11.3836 1.28333 11.2879 1 11.2879C0.716667 11.2879 0.479 11.3836 0.287 11.5749C0.0956668 11.7669 0 12.0046 0 12.2879V14.2879C0 14.8379 0.196 15.3089 0.588 15.7009Z" fill="white"/>
</svg>
