<svg width="8" height="8" viewBox="0 0 8 8" fill="none" xmlns="http://www.w3.org/2000/svg">
<path fill-rule="evenodd" clip-rule="evenodd" d="M0.850619 0.144977C0.655354 -0.0502825 0.338772 -0.0502782 0.143512 0.144987C-0.0517474 0.340251 -0.051743 0.656834 0.143522 0.852093L3.29152 4L0.143522 7.14791C-0.051743 7.34317 -0.0517474 7.65975 0.143512 7.85502C0.338772 8.05028 0.655354 8.05029 0.850619 7.85503L3.99859 4.70714L7.14656 7.85503C7.34183 8.05029 7.65841 8.05028 7.85367 7.85502C8.04893 7.65975 8.04892 7.34317 7.85366 7.14791L4.70566 4L7.85366 0.852093C8.04893 0.656834 8.04893 0.340251 7.85367 0.144987C7.65841 -0.0502782 7.34183 -0.0502825 7.14656 0.144977L3.99859 3.29286L0.850619 0.144977Z" fill="#333333"/>
</svg>
