<svg width="12" height="14" viewBox="0 0 12 14" fill="none" xmlns="http://www.w3.org/2000/svg">
<path d="M11.2314 6.28809C11.1333 6.38635 11.0167 6.46431 10.8884 6.51749C10.7601 6.57068 10.6226 6.59805 10.4837 6.59805C10.3448 6.59805 10.2073 6.57068 10.079 6.51749C9.95067 6.46431 9.83411 6.38635 9.73596 6.28809L7.05682 3.60789L7.05682 12.9431C7.05682 13.2234 6.94547 13.4923 6.74727 13.6905C6.54907 13.8887 6.28026 14 5.99996 14C5.71966 14 5.45085 13.8887 5.25265 13.6905C5.05445 13.4923 4.9431 13.2234 4.9431 12.9431L4.9431 3.60789L2.2629 6.28809C2.16471 6.38621 2.04815 6.46404 1.91988 6.51711C1.79161 6.57019 1.65415 6.59749 1.51533 6.59744C1.37651 6.59739 1.23906 6.57 1.11083 6.51683C0.982602 6.46366 0.866098 6.38576 0.767974 6.28756C0.66985 6.18937 0.592028 6.07281 0.53895 5.94454C0.485873 5.81627 0.45858 5.67881 0.458629 5.53999C0.458678 5.40117 0.486068 5.26372 0.539237 5.13549C0.592405 5.00726 0.670309 4.89076 0.768502 4.79263L5.25276 0.309434C5.45095 0.111303 5.71972 -5.08946e-07 5.99996 -4.84446e-07C6.2802 -4.59947e-07 6.54897 0.111303 6.74716 0.309434L11.2314 4.79263C11.3297 4.89079 11.4076 5.00735 11.4608 5.13565C11.514 5.26395 11.5414 5.40148 11.5414 5.54036C11.5414 5.67925 11.514 5.81678 11.4608 5.94508C11.4076 6.07338 11.3297 6.18994 11.2314 6.28809Z" fill="#333333"/>
</svg>
