<svg width="30" height="31" viewBox="0 0 30 31" fill="none" xmlns="http://www.w3.org/2000/svg">
<path d="M25.0003 17.9998C25.3189 18.0002 25.6253 18.1222 25.857 18.3409C26.0886 18.5596 26.2281 18.8585 26.2467 19.1766C26.2654 19.4946 26.1619 19.8078 25.9574 20.0521C25.7529 20.2964 25.4629 20.4534 25.1465 20.4911L25.0003 20.4998H8.01776L10.884 23.3661C11.1082 23.591 11.2384 23.8929 11.248 24.2103C11.2577 24.5277 11.1462 24.837 10.9362 25.0752C10.7262 25.3134 10.4333 25.4627 10.1172 25.4928C9.80102 25.5229 9.48525 25.4316 9.23401 25.2373L9.11651 25.1336L4.32901 20.3461C3.49776 19.5161 4.03026 18.1173 5.15776 18.0073L5.30151 17.9998H25.0003ZM19.1165 5.86608C19.3318 5.65086 19.6181 5.52157 19.9219 5.50247C20.2257 5.48336 20.526 5.57576 20.7665 5.76233L20.884 5.86608L25.6715 10.6536C26.5028 11.4836 25.9703 12.8823 24.8428 12.9923L24.699 12.9998H5.00026C4.68166 12.9995 4.37522 12.8775 4.14355 12.6588C3.91188 12.4401 3.77247 12.1411 3.7538 11.8231C3.73513 11.505 3.83861 11.1919 4.04309 10.9475C4.24758 10.7032 4.53764 10.5462 4.85401 10.5086L5.00026 10.4998H21.9828L19.1165 7.63358C18.8822 7.39917 18.7505 7.08128 18.7505 6.74983C18.7505 6.41837 18.8822 6.10049 19.1165 5.86608Z" fill="#777777"/>
</svg>
