<svg width="10" height="10" viewBox="0 0 10 10" fill="none" xmlns="http://www.w3.org/2000/svg">
<path d="M0.934112 0.934136C0.529662 1.33859 0.529662 1.99441 0.934112 2.39886L3.53526 5L0.934112 7.60114C0.712452 7.8228 0.612153 8.12051 0.633552 8.40979C0.65109 8.64889 0.751575 8.88333 0.934112 9.06586C1.33856 9.47031 1.99438 9.47031 2.39883 9.06586L4.99998 6.46472L7.60112 9.06586C8.00557 9.47031 8.66139 9.47031 9.06584 9.06586C9.47029 8.66141 9.47029 8.00559 9.06584 7.60114L6.4647 5L9.06584 2.39886C9.47029 1.99441 9.47029 1.33859 9.06584 0.934136C8.66139 0.529686 8.00557 0.529686 7.60112 0.934136L4.99998 3.53528L2.39883 0.934136C1.99438 0.529686 1.33856 0.529686 0.934112 0.934136Z" fill="#333333" stroke="#333333" stroke-width="0.5"/>
</svg>
