<svg width="30" height="30" viewBox="0 0 30 30" fill="none" xmlns="http://www.w3.org/2000/svg">
<rect x="0.5" y="0.5" width="29" height="29" rx="5.5" fill="#EBF3FF"/>
<rect x="0.5" y="0.5" width="29" height="29" rx="5.5" stroke="#0995DB"/>
<path d="M21.2812 15.1875V16.3594H8.48438V15.1875H14.1406V13.9688H10.1562V8.20312H19.7188V9.375H11.6562V10.5156H19.3594V11.625H11.6562V12.8125H19.8125V13.9688H15.625V15.1875H21.2812ZM14.8906 17.2812C17.9688 17.2656 19.7188 18.0781 19.7188 19.5469C19.7188 21.0312 17.9688 21.8125 14.8906 21.7969C11.7812 21.8125 10.0312 21.0312 10.0312 19.5469C10.0312 18.0781 11.7812 17.2656 14.8906 17.2812ZM14.8906 18.3906C12.6875 18.3906 11.5 18.7969 11.5156 19.5469C11.5 20.2969 12.6875 20.6875 14.8906 20.6719C17.0625 20.6875 18.2344 20.2969 18.2344 19.5469C18.2344 18.7969 17.0625 18.3906 14.8906 18.3906Z" fill="#333333"/>
</svg>
