<svg width="71" height="70" viewBox="0 0 71 70" fill="none" xmlns="http://www.w3.org/2000/svg">
<rect x="0.999878" y="0.5" width="69" height="69" rx="29.5" fill="#FCFCFC"/>
<rect x="0.999878" y="0.5" width="69" height="69" rx="29.5" stroke="#E8E8E8"/>
<path d="M38.629 44.1172L51.3741 44.1884H51.3778C51.5676 44.1884 51.7465 44.1065 51.8706 43.9641C51.9911 43.8217 52.0422 43.6294 52.0057 43.4479L51.2536 39.6738C51.0966 39.04 50.7243 37.5624 49.4282 37.5624H40.5858C39.3299 37.5624 38.9466 38.9795 38.764 39.6631C38.764 39.6738 38.7567 39.688 38.7567 39.6987L38.0083 43.3731C37.9718 43.5547 38.0193 43.7434 38.1397 43.8893C38.2602 44.0318 38.4391 44.1172 38.6326 44.1172H38.629ZM40.0053 39.9586C40.2901 38.919 40.5055 38.805 40.5895 38.805H49.4319C49.5414 38.805 49.7641 38.9546 50.0087 39.9372L50.6038 42.9351L39.4102 42.8711L40.0053 39.9586Z" fill="#3E30C5"/>
<path d="M54.7511 43.601L54.1414 43.4728L52.8308 37.7013C52.6336 37.0141 52.1736 35.4013 50.6695 35.4013H39.3481C37.8951 35.4013 37.4205 36.9465 37.1905 37.6871C37.1868 37.7013 37.1795 37.7191 37.1759 37.7369L35.9127 43.5013L35.3505 43.5938C34.3319 43.7719 33.5907 44.6335 33.5907 45.6411V49.554C33.5907 51.0744 34.6714 52.3526 36.1208 52.7015V54.1185C36.1208 54.8805 36.756 55.5 37.5373 55.5H39.7936C40.5748 55.5 41.2101 54.8805 41.2101 54.1185V52.8012H48.5191V54.1185C48.5191 54.8805 49.1543 55.5 49.9356 55.5H52.1919C52.9731 55.5 53.6084 54.8805 53.6084 54.1185V52.8012C55.2038 52.7834 56.4999 51.5123 56.4999 49.9528V45.6411C56.4999 44.6335 55.7661 43.7754 54.7511 43.5938V43.601ZM39.9323 54.1257C39.9323 54.2004 39.8702 54.261 39.7936 54.261H37.5373C37.4607 54.261 37.3986 54.2004 37.3986 54.1257V52.9294H39.9286V54.1257H39.9323ZM52.3306 54.1257C52.3306 54.2004 52.2685 54.261 52.1919 54.261H49.9356C49.859 54.261 49.7969 54.2004 49.7969 54.1257V52.9294H52.3269V54.1257H52.3306ZM55.2221 49.9564C55.2221 50.8394 54.4846 51.5586 53.5792 51.5586H36.924C35.7922 51.5586 34.8722 50.6613 34.8722 49.5576V45.6447C34.8722 45.2388 35.1679 44.8934 35.5732 44.8258L36.5589 44.662C36.8181 44.6193 37.0225 44.427 37.0773 44.1778L38.4245 38.0253C38.7238 37.0604 39.0013 36.651 39.3481 36.651H50.6731C50.936 36.651 51.2536 36.8148 51.5931 38.0039L52.9841 44.135C53.0389 44.3736 53.2287 44.5587 53.4733 44.6086L54.4956 44.8222C54.4956 44.8222 54.5102 44.8222 54.5175 44.8258C54.9264 44.897 55.2221 45.2423 55.2221 45.6482V49.9599V49.9564Z" fill="#3E30C5"/>
<path d="M38.7823 45.4024C37.3913 45.4024 36.2632 46.5062 36.2632 47.8592C36.2632 49.2121 37.395 50.3159 38.7823 50.3159C40.1696 50.3159 41.3014 49.2121 41.3014 47.8592C41.3014 46.5062 40.1696 45.4024 38.7823 45.4024ZM38.7823 49.0733C38.0959 49.0733 37.541 48.5285 37.541 47.8627C37.541 47.1969 38.0996 46.6522 38.7823 46.6522C39.465 46.6522 40.0236 47.1969 40.0236 47.8627C40.0236 48.5285 39.465 49.0733 38.7823 49.0733Z" fill="#3E30C5"/>
<path d="M50.9069 45.4024C49.5159 45.4024 48.3878 46.5062 48.3878 47.8592C48.3878 49.2121 49.5195 50.3159 50.9069 50.3159C52.2942 50.3159 53.4259 49.2121 53.4259 47.8592C53.4259 46.5062 52.2942 45.4024 50.9069 45.4024ZM50.9069 49.0733C50.2205 49.0733 49.6656 48.5285 49.6656 47.8627C49.6656 47.1969 50.2241 46.6522 50.9069 46.6522C51.5896 46.6522 52.1481 47.1969 52.1481 47.8627C52.1481 48.5285 51.5896 49.0733 50.9069 49.0733Z" fill="#3E30C5"/>
<path d="M28.5233 54.1478H16.6783C15.4761 54.1478 14.4999 53.2251 14.4999 52.0892V16.5586C14.4999 15.4227 15.4761 14.5 16.6783 14.5H40.8616L49.326 23.1783V32.0201H47.6824V23.8102L40.1527 16.0897H16.6783C16.3849 16.0897 16.1434 16.3003 16.1434 16.5586V52.0917C16.1434 52.35 16.3823 52.5606 16.6783 52.5606H28.5233V54.1478Z" fill="#3E30C5"/>
<path d="M28.8841 33.8599H19.6408V35.4471H28.8841V33.8599Z" fill="#3E30C5"/>
<path d="M19.6408 37.5358H32.7139V39.123H19.6408V37.5358Z" fill="#3E30C5"/>
<path d="M32.7139 41.2119H19.6408V42.7991H32.7139V41.2119Z" fill="#3E30C5"/>
<path d="M29.8395 33.8599H32.7138V35.4471H29.8395V33.8599Z" fill="#3E30C5"/>
<path d="M28.3728 23.6372C28.3053 23.5344 28.2066 23.4566 28.0768 23.4065C27.947 23.3563 27.786 23.3287 27.5887 23.3287C27.4095 23.3287 27.2615 23.3513 27.1421 23.3939C27.0227 23.4366 26.9318 23.4993 26.8695 23.577C26.8098 23.6547 26.7786 23.7425 26.7786 23.8428C26.7734 24.0033 26.8409 24.1336 26.9837 24.2289C27.1265 24.3267 27.3524 24.412 27.6666 24.4847L28.2066 24.59C28.8921 24.7354 29.3958 24.9711 29.7204 25.2971C30.0449 25.6231 30.2059 26.0343 30.2137 26.5358C30.2137 26.9495 30.1098 27.3005 29.8995 27.5889C29.6892 27.8773 29.3906 28.1004 29.0037 28.2534C28.6169 28.4063 28.1495 28.4841 27.6069 28.4841C27.0642 28.4841 26.5579 28.4013 26.1451 28.2333C25.7322 28.0653 25.4155 27.8121 25.1922 27.4736C24.9689 27.1351 24.8546 26.7113 24.8442 26.1998H26.467C26.48 26.3928 26.5319 26.5583 26.6228 26.6937C26.7137 26.8291 26.8435 26.932 27.0071 27.0022C27.1707 27.0724 27.3628 27.105 27.5861 27.105C27.7756 27.105 27.9392 27.0799 28.0716 27.0297C28.204 26.9796 28.3079 26.9119 28.378 26.8266C28.4481 26.7414 28.4819 26.6436 28.4819 26.5308C28.4819 26.4254 28.4481 26.3352 28.3832 26.2574C28.3183 26.1797 28.2118 26.112 28.0664 26.0518C27.921 25.9917 27.7289 25.9365 27.4926 25.8863L26.8409 25.7409C26.2489 25.618 25.7971 25.4099 25.4856 25.1191C25.1714 24.8282 25.0156 24.4395 25.0156 23.9556C25.0156 23.5594 25.1247 23.2109 25.3454 22.9075C25.5661 22.6041 25.8698 22.3684 26.2619 22.2004C26.6514 22.0324 27.098 21.9471 27.6017 21.9471C28.1054 21.9471 28.5572 22.0324 28.9362 22.2004C29.3153 22.3684 29.6087 22.6091 29.8164 22.92C30.0241 23.231 30.128 23.592 30.128 24.0033H28.5026C28.4896 23.8603 28.4507 23.7375 28.3832 23.6347L28.3728 23.6372Z" fill="#00D8CA"/>
<path d="M24.33 22.0401V23.3916H22.3827V28.4115H20.7158V23.3916H18.7633V22.0401H24.33Z" fill="#00D8CA"/>
<path fill-rule="evenodd" clip-rule="evenodd" d="M33.6488 22.04H30.9043V28.4089H32.5972V26.4982H33.5916C34.0772 26.4982 34.5056 26.408 34.8743 26.2249C35.243 26.0419 35.5286 25.7861 35.7311 25.4526C35.9362 25.1191 36.0375 24.7205 36.0375 24.2791C36.0375 23.8378 35.9388 23.4467 35.7415 23.1057C35.5442 22.7646 35.2637 22.5039 34.9028 22.3183C34.5419 22.1328 34.1239 22.04 33.6488 22.04ZM32.5972 25.1868H33.2619C33.4722 25.1868 33.6539 25.1492 33.8045 25.0765C33.9551 25.0038 34.072 24.8985 34.1499 24.7631C34.2278 24.6277 34.2667 24.4672 34.2667 24.2791C34.2667 24.0911 34.2278 23.9306 34.1499 23.7952C34.072 23.6598 33.9577 23.557 33.8071 23.4868C33.6565 23.4166 33.4748 23.3815 33.2619 23.3815H32.5972V25.1868Z" fill="#00D8CA"/>
</svg>
