<svg width="31" height="30" viewBox="0 0 31 30" fill="none" xmlns="http://www.w3.org/2000/svg">
<circle cx="15.5347" cy="15" r="13.5" fill="white" stroke="#1E4EBE" stroke-width="3" stroke-linejoin="round"/>
<path fill-rule="evenodd" clip-rule="evenodd" d="M21.1128 13.6139C21.3866 13.323 21.538 12.9334 21.5346 12.529C21.5312 12.1246 21.3731 11.7377 21.0945 11.4518C20.8159 11.1658 20.439 11.0036 20.045 11.0001C19.651 10.9965 19.2714 11.152 18.988 11.433L14.2062 16.3409L12.0814 14.1599C11.798 13.879 11.4184 13.7235 11.0243 13.727C10.6303 13.7305 10.2534 13.8927 9.97481 14.1787C9.69619 14.4647 9.53815 14.8515 9.53472 15.256C9.5313 15.6604 9.68277 16.05 9.95651 16.3409L13.0371 19.5028C13.1906 19.6604 13.3729 19.7855 13.5735 19.8708C13.7741 19.9561 13.9891 20 14.2062 20C14.4234 20 14.6384 19.9561 14.839 19.8708C15.0396 19.7855 15.2219 19.6604 15.3754 19.5028L21.1128 13.6139Z" fill="#1E4EBE"/>
</svg>
