<svg width="159" height="77" viewBox="0 0 159 77" fill="none" xmlns="http://www.w3.org/2000/svg">
<path fill-rule="evenodd" clip-rule="evenodd" d="M31.0133 64.6629H29V74.3968H31.0133V64.6629ZM33.1554 67.1692V74.3644H35.0881V69.8209C35.4263 69.2873 35.7324 68.9478 36.0223 68.7699C36.2961 68.6082 36.586 68.5112 36.8437 68.5112C37.0047 68.5112 37.1336 68.5597 37.2624 68.6244C37.3752 68.7052 37.4718 68.8022 37.5523 68.9478C37.6329 69.0933 37.6651 69.352 37.6651 69.7562V74.3806H39.6139V69.2711C39.6139 68.4788 39.4045 67.8968 39.0019 67.541C38.5992 67.1692 38.1 66.9913 37.5362 66.9913C37.1014 66.9913 36.6665 67.1045 36.2478 67.347C35.829 67.5734 35.4424 67.9776 35.0881 68.5274V67.1692H33.1554ZM46.91 74.2351C46.1047 74.4453 45.3638 74.5585 44.6874 74.5585C43.4794 74.5585 42.5613 74.1866 41.9332 73.4589C41.3212 72.7313 41.0152 71.842 41.0152 70.7749C41.0152 69.7077 41.3373 68.7537 41.9815 68.0584C42.6258 67.3632 43.5921 67.0075 44.8484 67.0075C45.4282 67.0075 46.0886 67.1045 46.8456 67.2823V68.689C46.0725 68.4303 45.4443 68.301 44.9773 68.301C44.3169 68.301 43.8337 68.5597 43.5277 69.0609C43.2217 69.5784 43.0767 70.1281 43.0767 70.7425C43.0767 71.2114 43.1573 71.6642 43.3344 72.0684C43.5116 72.4726 43.7532 72.7798 44.0753 72.9577C44.3813 73.1517 44.7518 73.2326 45.1383 73.2326C45.702 73.2326 46.298 73.1032 46.91 72.8445V74.2351ZM48.5206 64V74.3644H50.4533V69.8209C50.7916 69.2873 51.0976 68.9478 51.3875 68.7699C51.6613 68.6082 51.9512 68.5112 52.2089 68.5112C52.37 68.5112 52.5149 68.5597 52.6277 68.6244C52.7404 68.7052 52.8532 68.8022 52.9176 68.9478C52.9981 69.0933 53.0303 69.352 53.0303 69.7562V74.3806H54.9792V69.2711C54.9792 68.4789 54.7698 67.8968 54.3671 67.541C53.9645 67.1692 53.4652 66.9913 52.9015 66.9913C52.4666 66.9913 52.0317 67.1045 51.613 67.347C51.1942 67.5734 50.8077 67.9776 50.4533 68.5274V64H48.5206ZM62.7101 74.1381C61.792 74.4129 60.9223 74.5423 60.1009 74.5423C59.3278 74.5423 58.6514 74.3968 58.0554 74.1057C57.4756 73.8147 57.0246 73.3619 56.7025 72.7475C56.3965 72.1169 56.2354 71.454 56.2354 70.7264C56.2354 70.0473 56.3643 69.4167 56.6381 68.8507C56.9119 68.2848 57.2984 67.8321 57.8138 67.4925C58.3292 67.1691 58.9574 67.0075 59.6983 67.0075C60.6163 67.0075 61.3411 67.2985 61.8887 67.8806C62.4363 68.4627 62.7101 69.5622 62.7101 71.1629H58.297C58.3292 71.648 58.442 72.0361 58.6191 72.3109C58.7963 72.5858 59.0218 72.8122 59.3278 72.9739C59.6177 73.1356 60.0204 73.2164 60.5358 73.2164C61.18 73.2164 61.9048 73.0709 62.7101 72.7637V74.1381ZM60.7935 70.0634H58.25C58.2999 69.4729 58.4603 69.0097 58.6997 68.7052C58.9252 68.398 59.2473 68.2363 59.6177 68.2363C59.9559 68.2363 60.2459 68.3818 60.4552 68.6567C60.6807 68.9316 60.7935 69.4005 60.7935 70.0634ZM65.5448 74.1057C66.0924 74.4129 66.7688 74.5585 67.5419 74.5585C68.3311 74.5585 68.9915 74.4129 69.5552 74.1057C70.1028 73.7985 70.5377 73.3619 70.8276 72.7637C71.1175 72.1654 71.2624 71.5186 71.2624 70.791C71.2624 70.0634 71.1175 69.4167 70.8276 68.8184C70.5377 68.2363 70.1028 67.7836 69.5552 67.4764C69.0076 67.153 68.315 67.0075 67.5419 67.0075C66.7688 67.0075 66.0924 67.1692 65.5287 67.4764C64.9811 67.7836 64.5462 68.2363 64.2563 68.8184C63.9664 69.4167 63.8375 70.0634 63.8375 70.791C63.8375 71.5186 63.9825 72.1816 64.2724 72.7637C64.5623 73.3619 64.9811 73.7985 65.5448 74.1057ZM68.7821 72.602C68.5083 73.0871 68.0895 73.3296 67.5419 73.3296C67.0104 73.3296 66.5917 73.0871 66.3179 72.602C66.0441 72.1169 65.8991 71.5025 65.8991 70.7749C65.8991 70.0473 66.028 69.449 66.3179 68.9639C66.5917 68.4789 66.9943 68.2363 67.5419 68.2363C68.0895 68.2363 68.5083 68.4789 68.7821 68.9639C69.0559 69.4328 69.2009 70.0473 69.2009 70.7749C69.2009 71.5025 69.0559 72.1169 68.7821 72.602ZM72.5187 74.3644V67.1692H74.4676V68.5274C74.8058 67.9776 75.2084 67.5734 75.6272 67.347C76.046 67.1045 76.4808 66.9913 76.9157 66.9913C77.4794 66.9913 77.9626 67.1692 78.3813 67.541C78.784 67.8968 78.9934 68.4788 78.9934 69.2711V74.3806H77.0606V69.7562C77.0606 69.352 77.0284 69.0933 76.9479 68.9478C76.8835 68.8022 76.7707 68.7052 76.658 68.6244C76.5291 68.5597 76.4003 68.5112 76.2392 68.5112C75.9815 68.5112 75.6916 68.6082 75.4017 68.7699C75.1118 68.9478 74.8058 69.2873 74.4676 69.8209V74.3644H72.5187ZM88.045 64.6629L84.2762 74.3968H85.7257L86.7243 71.8097H90.7347L91.7494 74.3968H93.8271L90.0583 64.6629H88.045ZM90.2676 70.5H87.2719L88.7698 66.6194L90.2676 70.5ZM94.8579 64.3234H96.7906V65.9403H94.8579V64.3234ZM94.8579 67.1691H96.7906V74.3968H94.8579V67.1691ZM98.8522 67.1692V74.4129H100.801V69.8209C101.043 69.4167 101.333 69.1256 101.639 68.9316C101.945 68.7376 102.299 68.6405 102.685 68.6405C102.927 68.6405 103.185 68.6891 103.459 68.7861V67.056C103.33 67.0236 103.201 67.0236 103.088 67.0236C102.605 67.0236 102.154 67.153 101.751 67.4279C101.349 67.7027 101.027 68.0585 100.801 68.5274V67.1692H98.8522ZM104.586 77V67.1692H106.535V68.5435C106.776 68.0261 107.099 67.6542 107.485 67.3955C107.872 67.1368 108.323 67.0236 108.854 67.0236C109.724 67.0236 110.4 67.347 110.867 68.0099C111.351 68.6729 111.592 69.5298 111.592 70.597C111.592 71.7289 111.334 72.6667 110.787 73.4266C110.255 74.1866 109.514 74.5585 108.548 74.5585C108.29 74.5585 108.065 74.5261 107.839 74.4776C107.63 74.4291 107.421 74.3321 107.211 74.2189C107.018 74.1057 106.776 73.9279 106.519 73.6692V77H104.586ZM106.535 72.505C106.793 72.8122 107.05 73.0224 107.292 73.1356C107.517 73.2488 107.759 73.2973 108 73.2973C108.516 73.2973 108.886 73.0386 109.144 72.5211C109.402 72.0037 109.531 71.4216 109.531 70.7587C109.531 70.0958 109.402 69.5299 109.176 69.1256C108.935 68.7376 108.596 68.5435 108.145 68.5435C107.872 68.5435 107.598 68.6405 107.308 68.8346C107.034 69.0286 106.776 69.3035 106.535 69.643V72.505ZM114.346 74.1057C114.894 74.4129 115.57 74.5585 116.343 74.5585H116.36C117.149 74.5585 117.809 74.4129 118.373 74.1057C118.92 73.7985 119.355 73.3619 119.645 72.7637C119.935 72.1654 120.08 71.5186 120.08 70.791C120.08 70.0634 119.935 69.4167 119.645 68.8184C119.355 68.2363 118.92 67.7836 118.373 67.4764C117.825 67.153 117.133 67.0075 116.36 67.0075C115.586 67.0075 114.91 67.1692 114.346 67.4764C113.799 67.7836 113.364 68.2363 113.074 68.8184C112.784 69.4167 112.639 70.0634 112.639 70.791C112.639 71.5186 112.784 72.1816 113.074 72.7637C113.364 73.3619 113.783 73.7985 114.346 74.1057ZM117.584 72.602C117.31 73.0871 116.891 73.3296 116.343 73.3296C115.796 73.3296 115.393 73.0871 115.103 72.602C114.829 72.1169 114.685 71.5025 114.685 70.7749C114.685 70.0473 114.829 69.449 115.103 68.9639C115.393 68.4789 115.796 68.2363 116.343 68.2363C116.891 68.2363 117.31 68.4789 117.584 68.9639C117.857 69.4328 118.002 70.0473 118.002 70.7749C118.002 71.5025 117.857 72.1169 117.584 72.602ZM121.32 67.1692H123.253V68.5274C123.478 68.0585 123.801 67.7027 124.203 67.4279C124.606 67.153 125.057 67.0236 125.54 67.0236C125.653 67.0236 125.782 67.0236 125.91 67.056V68.7861C125.637 68.6891 125.379 68.6405 125.137 68.6405C124.751 68.6405 124.396 68.7376 124.09 68.9316C123.784 69.1256 123.495 69.4167 123.253 69.8209V74.4129H121.32V67.1692ZM129.905 74.5423C130.179 74.5423 130.533 74.4938 131 74.3483L130.984 74.3321V73.1518C130.758 73.2003 130.549 73.2326 130.388 73.2326C130.034 73.2326 129.76 73.1356 129.583 72.9577C129.405 72.7799 129.309 72.4241 129.309 71.9067V68.3818H130.855V67.153H129.309V65.7139L127.36 65.9403V67.1692H126.555V68.398H127.36V72.1978C127.36 72.796 127.457 73.2488 127.634 73.556C127.811 73.8632 128.069 74.1057 128.423 74.2836C128.777 74.4453 129.277 74.5423 129.905 74.5423Z" fill="#8E8F91"/>
<path fill-rule="evenodd" clip-rule="evenodd" d="M113.692 29.6201C106.122 39.9259 96.1954 51.6525 81.1209 51.6525V51.6737C70.6098 51.6737 56.0976 44.3366 56.0976 27.8812C56.0976 12.4012 69.1608 6.56976 76.8386 6.42132C85.4897 6.25168 92.6484 11.0441 94.7896 18.2752C112.373 0.144512 131.686 -0.830934 139.97 0.335365C140.9 0.462597 141.008 1.07755 140.078 1.14117C121.911 2.32867 111.638 12.3164 105.668 18.1903C105.215 18.6344 104.586 19.3507 103.807 20.2373C99.8617 24.7272 92.0781 33.5855 83.9325 33.5855C79.1311 33.8187 76.9251 31.0832 76.9251 31.0832C73.2051 27.4359 74.7623 22.8555 74.7623 22.8555C76.2114 17.9571 81.2074 17.5966 81.2074 17.5966C83.7811 17.3633 85.468 18.0419 86.5494 18.8689C87.501 19.5687 87.4145 18.7841 87.0901 18.2539C83.7811 12.8254 76.6656 14.0553 76.6656 14.0553C66.6519 16.0486 66.6303 26.206 66.6303 26.206C66.3059 35.9817 73.9837 39.5018 73.9837 39.5018C82.0941 43.8065 90.7668 39.9471 96.044 36.1301C100.214 33.1027 104.225 28.7255 108.386 24.1839C113.784 18.2914 119.437 12.1223 126.02 8.26619C135.341 2.8164 143.69 2.37109 148.21 2.68917C149.118 2.75278 149.313 3.43136 148.426 3.55859C131.128 6.24436 120.111 21.0149 113.744 29.5504L113.692 29.6201Z" fill="#33BCC4"/>
<path fill-rule="evenodd" clip-rule="evenodd" d="M18.6378 1.14111C17.6862 1.0987 17.7295 0.462534 18.7027 0.335302C26.0777 -0.703764 42.0606 -0.0251913 57.8488 12.7193C56.3349 14.7762 55.1021 17.0664 54.2586 19.505L53.9875 19.2166C53.588 18.7912 53.2486 18.4299 52.9826 18.1691L52.8206 18.0115C47.4633 12.7999 36.6005 2.23267 18.6378 1.14111Z" fill="#F89C0E"/>
<path fill-rule="evenodd" clip-rule="evenodd" d="M59.666 45.3928C55.6216 40.8336 53.1561 34.8961 53.1561 28.3861V27.5166L52.4627 26.7391C46.6032 20.1671 40.299 13.0963 32.9342 8.79225C23.6992 3.36366 15.4374 2.89714 10.874 3.19401C9.83582 3.27884 9.6628 3.9362 10.6793 4.10585C27.8649 6.85085 38.8317 21.5175 45.2024 30.0375L45.2836 30.1461C49.2631 35.5535 53.6968 41.3426 59.32 45.6473C59.9688 46.135 60.2067 45.9866 59.666 45.3928Z" fill="#647DC7"/>
</svg>
