<svg width="252" height="144" viewBox="0 0 252 144" fill="none" xmlns="http://www.w3.org/2000/svg">
<path fill-rule="evenodd" clip-rule="evenodd" d="M187.989 54.6832C174.265 73.7093 156.268 95.3585 128.939 95.3585V95.3976C109.883 95.3976 83.5727 81.8522 83.5727 51.473C83.5727 22.8946 107.255 12.1288 121.175 11.8547C136.859 11.5416 149.837 20.3891 153.719 33.7387C185.597 0.266792 220.611 -1.53403 235.629 0.619135C237.315 0.854026 237.511 1.98933 235.825 2.10678C202.888 4.29909 184.264 22.738 173.442 33.5821C172.621 34.402 171.48 35.7244 170.067 37.3612C162.915 45.6503 148.803 62.0039 134.036 62.0039C125.331 62.4346 121.332 57.3844 121.332 57.3844C114.588 50.6509 117.411 42.1948 117.411 42.1948C120.038 33.1515 129.095 32.486 129.095 32.486C133.761 32.0554 136.82 33.3081 138.78 34.8349C140.505 36.1268 140.349 34.6783 139.76 33.6996C133.761 23.6776 120.861 25.9482 120.861 25.9482C102.707 29.6282 102.668 48.3803 102.668 48.3803C102.08 66.4277 115.999 72.9264 115.999 72.9264C130.703 80.8735 146.426 73.7485 155.993 66.7018C163.554 61.1127 170.825 53.0316 178.368 44.6473C188.156 33.7688 198.403 22.3797 210.338 15.2607C227.238 5.19951 242.373 4.37739 250.568 4.96462C252.214 5.08206 252.567 6.33481 250.96 6.5697C219.599 11.5281 199.625 38.7968 188.083 54.5547L187.989 54.6832Z" fill="#33BCC4"/>
<path fill-rule="evenodd" clip-rule="evenodd" d="M15.6599 2.10666C13.9347 2.02836 14.0131 0.85391 15.7776 0.619019C29.1481 -1.29926 58.1243 -0.0465073 86.7475 23.4817C84.0028 27.2791 81.7678 31.5072 80.2387 36.0092L79.7471 35.4768C79.0228 34.6914 78.4076 34.0244 77.9253 33.5429L77.6316 33.252C67.9191 23.6306 48.2254 4.12186 15.6599 2.10666Z" fill="#F89C0E"/>
<path fill-rule="evenodd" clip-rule="evenodd" d="M90.042 83.8021C82.7097 75.3852 78.2398 64.4236 78.2398 52.405V50.7999L76.9827 49.3646C66.3597 37.2315 54.9306 24.1778 41.5785 16.2318C24.8359 6.20983 9.85772 5.34856 1.58443 5.89664C-0.297648 6.05323 -0.611327 7.26684 1.23154 7.58002C32.3882 12.6477 52.2704 39.7246 63.8201 55.4538L63.9674 55.6543C71.182 65.6372 79.22 76.3247 89.4146 84.2719C90.5909 85.1723 91.0222 84.8982 90.042 83.8021Z" fill="#647DC7"/>
<path fill-rule="evenodd" clip-rule="evenodd" d="M7.78306 114.13H2.88182V137.697H7.78306V114.13ZM12.998 120.198V137.619H17.7032V126.618C18.5266 125.326 19.2716 124.504 19.9773 124.073C20.6439 123.682 21.3497 123.447 21.977 123.447C22.3691 123.447 22.6828 123.564 22.9965 123.721C23.271 123.917 23.5062 124.152 23.7023 124.504C23.8983 124.856 23.9768 125.483 23.9768 126.461V137.658H28.7212V125.287C28.7212 123.369 28.2114 121.959 27.2312 121.098C26.2509 120.198 25.0354 119.767 23.6631 119.767C22.6044 119.767 21.5457 120.041 20.5263 120.628C19.5068 121.176 18.5658 122.155 17.7032 123.486V120.198H12.998ZM46.4832 137.306C44.5227 137.815 42.7191 138.089 41.0723 138.089C38.1315 138.089 35.8966 137.188 34.3674 135.426C32.8774 133.665 32.1324 131.512 32.1324 128.928C32.1324 126.344 32.9166 124.034 34.485 122.351C36.0534 120.667 38.406 119.806 41.4644 119.806C42.8759 119.806 44.4835 120.041 46.3264 120.472V123.878C44.4443 123.251 42.9151 122.938 41.778 122.938C40.1704 122.938 38.9941 123.564 38.2492 124.778C37.5042 126.031 37.1513 127.362 37.1513 128.85C37.1513 129.985 37.3473 131.081 37.7786 132.06C38.2099 133.038 38.7981 133.782 39.5823 134.213C40.3273 134.683 41.2291 134.878 42.1702 134.878C43.5425 134.878 44.9933 134.565 46.4832 133.939V137.306ZM50.4042 112.525V137.619H55.1094V126.618C55.9328 125.326 56.6778 124.504 57.3836 124.073C58.0502 123.682 58.7559 123.447 59.3833 123.447C59.7754 123.447 60.1283 123.564 60.4028 123.721C60.6772 123.917 60.9517 124.152 61.1085 124.504C61.3046 124.856 61.383 125.483 61.383 126.461V137.658H66.1274V125.287C66.1274 123.369 65.6177 121.959 64.6374 121.098C63.6572 120.198 62.4417 119.767 61.0693 119.767C60.0107 119.767 58.952 120.041 57.9325 120.628C56.9131 121.176 55.972 122.155 55.1094 123.486V112.525H50.4042ZM84.9482 137.071C82.7132 137.736 80.5959 138.049 78.5962 138.049C76.7141 138.049 75.0673 137.697 73.6165 136.992C72.2049 136.288 71.1071 135.192 70.3229 133.704C69.5779 132.177 69.1858 130.572 69.1858 128.81C69.1858 127.166 69.4995 125.639 70.166 124.269C70.8326 122.899 71.7736 121.803 73.0283 120.981C74.2831 120.198 75.8122 119.806 77.6159 119.806C79.8509 119.806 81.6153 120.511 82.9485 121.92C84.2816 123.33 84.9482 125.992 84.9482 129.867H74.2046C74.2831 131.042 74.5575 131.981 74.9888 132.647C75.4202 133.312 75.9691 133.861 76.7141 134.252C77.4199 134.644 78.4001 134.839 79.6548 134.839C81.2232 134.839 82.9877 134.487 84.9482 133.743V137.071ZM80.2822 127.205H74.0903C74.2117 125.775 74.6021 124.654 75.1849 123.917C75.7338 123.173 76.518 122.782 77.4199 122.782C78.2433 122.782 78.9491 123.134 79.4588 123.799C80.0077 124.465 80.2822 125.6 80.2822 127.205ZM91.8491 136.992C93.1822 137.736 94.8291 138.089 96.7111 138.089C98.6324 138.089 100.24 137.736 101.612 136.992C102.946 136.249 104.004 135.192 104.71 133.743C105.416 132.295 105.769 130.729 105.769 128.967C105.769 127.205 105.416 125.639 104.71 124.191C104.004 122.782 102.946 121.685 101.612 120.942C100.279 120.159 98.5932 119.806 96.7111 119.806C94.8291 119.806 93.1823 120.198 91.8099 120.942C90.4768 121.685 89.4181 122.782 88.7123 124.191C88.0065 125.639 87.6929 127.205 87.6929 128.967C87.6929 130.729 88.0457 132.334 88.7515 133.743C89.4573 135.192 90.4768 136.249 91.8491 136.992ZM99.7303 133.352C99.0637 134.526 98.0443 135.113 96.7111 135.113C95.4172 135.113 94.3978 134.526 93.7312 133.352C93.0646 132.177 92.7117 130.689 92.7117 128.928C92.7117 127.166 93.0254 125.718 93.7312 124.543C94.3978 123.369 95.378 122.782 96.7111 122.782C98.0443 122.782 99.0637 123.369 99.7303 124.543C100.397 125.678 100.75 127.166 100.75 128.928C100.75 130.689 100.397 132.177 99.7303 133.352ZM108.827 137.619V120.198H113.571V123.486C114.395 122.155 115.375 121.176 116.395 120.628C117.414 120.041 118.473 119.767 119.531 119.767C120.904 119.767 122.08 120.198 123.099 121.098C124.08 121.959 124.589 123.369 124.589 125.287V137.658H119.884V126.461C119.884 125.483 119.806 124.856 119.61 124.504C119.453 124.152 119.178 123.917 118.904 123.721C118.59 123.564 118.277 123.447 117.884 123.447C117.257 123.447 116.551 123.682 115.846 124.073C115.14 124.504 114.395 125.326 113.571 126.618V137.619H108.827ZM146.625 114.13L137.45 137.697H140.979L143.41 131.433H153.173L155.644 137.697H160.702L151.527 114.13H146.625ZM152.036 128.262H144.743L148.39 118.867L152.036 128.262ZM163.211 113.308H167.916V117.222H163.211V113.308ZM163.211 120.198H167.916V137.697H163.211V120.198ZM172.935 120.198V137.736H177.68V126.618C178.268 125.639 178.974 124.935 179.718 124.465C180.463 123.995 181.326 123.76 182.267 123.76C182.855 123.76 183.483 123.878 184.149 124.113V119.924C183.836 119.845 183.522 119.845 183.247 119.845C182.071 119.845 180.973 120.159 179.993 120.824C179.013 121.49 178.229 122.351 177.68 123.486V120.198H172.935ZM186.894 144V120.198H191.638V123.525C192.226 122.273 193.011 121.372 193.952 120.746C194.893 120.119 195.991 119.845 197.285 119.845C199.402 119.845 201.049 120.628 202.186 122.233C203.362 123.839 203.95 125.913 203.95 128.497C203.95 131.238 203.323 133.508 201.99 135.348C200.696 137.188 198.892 138.089 196.54 138.089C195.912 138.089 195.363 138.01 194.814 137.893C194.305 137.775 193.795 137.54 193.285 137.266C192.815 136.992 192.226 136.562 191.599 135.935V144H186.894ZM191.638 133.117C192.266 133.861 192.893 134.369 193.481 134.644C194.03 134.918 194.618 135.035 195.206 135.035C196.461 135.035 197.363 134.409 197.99 133.156C198.618 131.903 198.931 130.494 198.931 128.889C198.931 127.284 198.618 125.913 198.069 124.935C197.481 123.995 196.657 123.525 195.559 123.525C194.893 123.525 194.226 123.76 193.52 124.23C192.854 124.7 192.226 125.365 191.638 126.187V133.117ZM210.655 136.992C211.988 137.736 213.635 138.089 215.517 138.089H215.556C217.478 138.089 219.085 137.736 220.458 136.992C221.791 136.249 222.849 135.192 223.555 133.743C224.261 132.295 224.614 130.729 224.614 128.967C224.614 127.205 224.261 125.639 223.555 124.191C222.849 122.782 221.791 121.685 220.458 120.942C219.124 120.159 217.438 119.806 215.556 119.806C213.674 119.806 212.027 120.198 210.655 120.942C209.322 121.685 208.263 122.782 207.558 124.191C206.852 125.639 206.499 127.205 206.499 128.967C206.499 130.729 206.852 132.334 207.558 133.743C208.263 135.192 209.283 136.249 210.655 136.992ZM218.536 133.352C217.87 134.526 216.85 135.113 215.517 135.113C214.184 135.113 213.204 134.526 212.498 133.352C211.831 132.177 211.479 130.689 211.479 128.928C211.479 127.166 211.831 125.718 212.498 124.543C213.204 123.369 214.184 122.782 215.517 122.782C216.85 122.782 217.87 123.369 218.536 124.543C219.203 125.678 219.556 127.166 219.556 128.928C219.556 130.689 219.203 132.177 218.536 133.352ZM227.633 120.198H232.338V123.486C232.887 122.351 233.671 121.49 234.652 120.824C235.632 120.159 236.73 119.845 237.906 119.845C238.18 119.845 238.494 119.845 238.808 119.924V124.113C238.141 123.878 237.514 123.76 236.926 123.76C235.985 123.76 235.122 123.995 234.377 124.465C233.632 124.935 232.926 125.639 232.338 126.618V137.736H227.633V120.198ZM248.532 138.049C249.198 138.049 250.061 137.932 251.198 137.58L251.159 137.541V134.683C250.61 134.8 250.1 134.878 249.708 134.878C248.846 134.878 248.179 134.644 247.748 134.213C247.316 133.782 247.081 132.921 247.081 131.668V123.134H250.845V120.159H247.081V116.674L242.337 117.222V120.198H240.376V123.173H242.337V132.373C242.337 133.821 242.572 134.918 243.003 135.661C243.435 136.405 244.062 136.992 244.925 137.423C245.787 137.815 247.003 138.049 248.532 138.049Z" fill="#ACACAC"/>
</svg>
