<svg width="18" height="22" viewBox="0 0 18 22" fill="none" xmlns="http://www.w3.org/2000/svg">
<path fill-rule="evenodd" clip-rule="evenodd" d="M9.00004 2.00002C7.34318 2.00002 6.00004 3.34317 6.00004 5.00002V8.00002L6.00003 8.00231C6.29726 8.00002 6.61801 8.00002 6.96451 8.00002H11.0356C11.3821 8.00002 11.7028 8.00002 12 8.00231L12 8.00002V5.00002C12 3.34317 10.6569 2.00002 9.00004 2.00002ZM13.9925 8.12333C13.9975 8.08292 14 8.04177 14 8.00002V5.00002C14 2.2386 11.7615 2.09808e-05 9.00004 2.09808e-05C6.23861 2.09808e-05 4.00004 2.2386 4.00004 5.00002V8.00002C4.00004 8.04177 4.00259 8.08293 4.00756 8.12333C3.68563 8.17778 3.38135 8.25854 3.08662 8.38062C1.86148 8.88809 0.888108 9.86146 0.380638 11.0866C0.169514 11.5963 0.0819498 12.1346 0.0404157 12.7433C2.33054e-05 13.3353 2.87904e-05 14.0627 3.57045e-05 14.9645V15.0355C2.87904e-05 15.9373 2.33054e-05 16.6647 0.0404157 17.2567C0.0819499 17.8655 0.169514 18.4037 0.380638 18.9134C0.888108 20.1386 1.86148 21.1119 3.08662 21.6194C3.59632 21.8305 4.1346 21.9181 4.74334 21.9596C5.33535 22 6.06276 22 6.96451 22H11.0356C11.9373 22 12.6647 22 13.2567 21.9596C13.8655 21.9181 14.4038 21.8305 14.9135 21.6194C16.1386 21.1119 17.112 20.1386 17.6194 18.9134C17.8306 18.4037 17.9181 17.8655 17.9597 17.2567C18 16.6647 18 15.9373 18 15.0355V14.9645C18 14.0627 18 13.3353 17.9597 12.7433C17.9181 12.1346 17.8306 11.5963 17.6194 11.0866C17.112 9.86146 16.1386 8.88809 14.9135 8.38062C14.6187 8.25854 14.3144 8.17778 13.9925 8.12333ZM4.87948 10.0358C4.37257 10.0703 4.07737 10.135 3.85199 10.2284C3.1169 10.5329 2.53288 11.1169 2.2284 11.852C2.13504 12.0774 2.07036 12.3726 2.03578 12.8795C2.00058 13.3954 2.00004 14.0545 2.00004 15C2.00004 15.9456 2.00058 16.6047 2.03578 17.1206C2.07036 17.6275 2.13504 17.9227 2.2284 18.1481C2.53288 18.8832 3.1169 19.4672 3.85199 19.7717C4.07737 19.865 4.37257 19.9297 4.87948 19.9643C5.39538 19.9995 6.05447 20 7.00004 20H11C11.9456 20 12.6047 19.9995 13.1206 19.9643C13.6275 19.9297 13.9227 19.865 14.1481 19.7717C14.8832 19.4672 15.4672 18.8832 15.7717 18.1481C15.865 17.9227 15.9297 17.6275 15.9643 17.1206C15.9995 16.6047 16 15.9456 16 15C16 14.0545 15.9995 13.3954 15.9643 12.8795C15.9297 12.3726 15.865 12.0774 15.7717 11.852C15.4672 11.1169 14.8832 10.5329 14.1481 10.2284C13.9227 10.135 13.6275 10.0703 13.1206 10.0358C12.6047 10.0006 11.9456 10 11 10H7.00004C6.05447 10 5.39538 10.0006 4.87948 10.0358ZM9.00004 13C9.55232 13 10 13.4477 10 14V16C10 16.5523 9.55232 17 9.00004 17C8.44775 17 8.00004 16.5523 8.00004 16V14C8.00004 13.4477 8.44775 13 9.00004 13Z" fill="#111111"/>
</svg>
