<svg width="13" height="13" viewBox="0 0 13 13" fill="none" xmlns="http://www.w3.org/2000/svg">
<path fill-rule="evenodd" clip-rule="evenodd" d="M6.5 0C5.9872 0 5.57143 0.415771 5.57143 0.928571V5.57143H0.928571C0.647461 5.57143 0.395368 5.69634 0.225342 5.89357C0.0847865 6.05634 0 6.26831 0 6.5C0 7.0128 0.415771 7.42857 0.928571 7.42857H5.57143V12.0714C5.57143 12.5842 5.9872 13 6.5 13C7.0128 13 7.42857 12.5842 7.42857 12.0714V7.42857H12.0714C12.5842 7.42857 13 7.0128 13 6.5C13 5.9872 12.5842 5.57143 12.0714 5.57143H7.42857V0.928571C7.42857 0.415771 7.0128 0 6.5 0Z" fill="black"/>
</svg>
