<svg width="30" height="30" viewBox="0 0 30 30" fill="none" xmlns="http://www.w3.org/2000/svg">
<path fill-rule="evenodd" clip-rule="evenodd" d="M15 8.5C14.4872 8.5 14.0714 8.91577 14.0714 9.42857V14.0714H9.42857C9.14746 14.0714 8.89537 14.1963 8.72534 14.3936C8.58479 14.5563 8.5 14.7683 8.5 15C8.5 15.5128 8.91577 15.9286 9.42857 15.9286H14.0714V20.5714C14.0714 21.0842 14.4872 21.5 15 21.5C15.5128 21.5 15.9286 21.0842 15.9286 20.5714V15.9286H20.5714C21.0842 15.9286 21.5 15.5128 21.5 15C21.5 14.4872 21.0842 14.0714 20.5714 14.0714H15.9286V9.42857C15.9286 8.91577 15.5128 8.5 15 8.5Z" fill="#CECECE"/>
</svg>
