<svg width="24" height="24" viewBox="0 0 24 24" fill="none" xmlns="http://www.w3.org/2000/svg">
<path d="M18 22C18.5304 22 19.0391 21.7893 19.4142 21.4142C19.7893 21.0391 20 20.5304 20 20V7.01C20 6.842 19.962 6.688 19.887 6.538L19.342 5.448C19.2725 5.30907 19.2363 5.15585 19.2363 5.0005C19.2363 4.84515 19.2725 4.69193 19.342 4.553L19.885 3.465C19.965 3.31262 20.0044 3.14215 19.9992 2.97011C19.9941 2.79806 19.9446 2.63026 19.8556 2.48293C19.7666 2.3356 19.6411 2.21374 19.4912 2.12914C19.3413 2.04453 19.1721 2.00005 19 2H7C6.20435 2 5.44129 2.31607 4.87868 2.87868C4.31607 3.44129 4 4.20435 4 5V19C4 19.7956 4.31607 20.5587 4.87868 21.1213C5.44129 21.6839 6.20435 22 7 22H18ZM17.408 6H7C6.74512 5.99972 6.49997 5.90212 6.31463 5.72715C6.1293 5.55218 6.01777 5.31305 6.00283 5.05861C5.98789 4.80416 6.07067 4.55362 6.23426 4.35817C6.39786 4.16271 6.6299 4.0371 6.883 4.007L7 4H17.408C17.2053 4.57339 17.1816 5.19483 17.34 5.782L17.408 6ZM18 20H7C6.75507 20 6.51866 19.91 6.33563 19.7473C6.15259 19.5845 6.03566 19.3603 6.007 19.117L6 19V7.83C6.25 7.918 6.516 7.974 6.791 7.993L7 8H18V20Z" fill="#111111"/>
<path d="M13.0312 10.2227L12.8486 14.5H11.1621L10.9688 10.2227H13.0312ZM12 18.1182C11.4199 18.1182 10.9473 17.6562 10.958 17.0762C10.9473 16.5068 11.4199 16.0449 12 16.0449C12.5479 16.0449 13.042 16.5068 13.042 17.0762C13.042 17.6562 12.5479 18.1182 12 18.1182Z" fill="#111111"/>
</svg>
