<svg width="20" height="20" viewBox="0 0 20 20" fill="none" xmlns="http://www.w3.org/2000/svg">
<g clip-path="url(#clip0_411_4036)">
<path d="M8.33341 15.8329V11.6663H11.6667V15.8329C11.6667 16.2913 12.0417 16.6663 12.5001 16.6663H15.0001C15.4584 16.6663 15.8334 16.2913 15.8334 15.8329V9.99961H17.2501C17.6334 9.99961 17.8167 9.52461 17.5251 9.27461L10.5584 2.99961C10.2417 2.71628 9.75841 2.71628 9.44175 2.99961L2.47508 9.27461C2.19175 9.52461 2.36675 9.99961 2.75008 9.99961H4.16675V15.8329C4.16675 16.2913 4.54175 16.6663 5.00008 16.6663H7.50008C7.95841 16.6663 8.33341 16.2913 8.33341 15.8329Z" fill="#111111"/>
</g>
<defs>
<clipPath id="clip0_411_4036">
<rect width="20" height="20" fill="white"/>
</clipPath>
</defs>
</svg>
