<svg width="24" height="24" viewBox="0 0 24 24" fill="none" xmlns="http://www.w3.org/2000/svg">
<path fill-rule="evenodd" clip-rule="evenodd" d="M12 5C10.3431 5 9 6.34315 9 8C9 9.65685 10.3431 11 12 11C13.6569 11 15 9.65685 15 8C15 6.34315 13.6569 5 12 5ZM7 8C7 5.23858 9.23858 3 12 3C14.7614 3 17 5.23858 17 8C17 10.7614 14.7614 13 12 13C9.23858 13 7 10.7614 7 8ZM7.45609 16.7264C6.40184 17.1946 6 17.7858 6 18.5C6 18.7236 6.03976 18.8502 6.09728 18.942C6.15483 19.0338 6.29214 19.1893 6.66219 19.3567C7.45312 19.7145 9.01609 20 12 20C14.9839 20 16.5469 19.7145 17.3378 19.3567C17.7079 19.1893 17.8452 19.0338 17.9027 18.942C17.9602 18.8502 18 18.7236 18 18.5C18 17.7858 17.5982 17.1946 16.5439 16.7264C15.4614 16.2458 13.8722 16 12 16C10.1278 16 8.53857 16.2458 7.45609 16.7264ZM6.64442 14.8986C8.09544 14.2542 10.0062 14 12 14C13.9938 14 15.9046 14.2542 17.3556 14.8986C18.8348 15.5554 20 16.7142 20 18.5C20 18.9667 19.9148 19.4978 19.5973 20.0043C19.2798 20.5106 18.7921 20.8939 18.1622 21.1789C16.9531 21.7259 15.0161 22 12 22C8.98391 22 7.04688 21.7259 5.83781 21.1789C5.20786 20.8939 4.72017 20.5106 4.40272 20.0043C4.08524 19.4978 4 18.9667 4 18.5C4 16.7142 5.16516 15.5554 6.64442 14.8986Z" fill="#111111"/>
<circle cx="17.5" cy="18.5" r="2.5" fill="white"/>
<path d="M19.4522 23.7243C19.6773 23.9742 20.031 24.0727 20.3453 23.9425C20.5347 23.8615 20.7205 23.7736 20.8991 23.675L21.092 23.5659C21.2706 23.4603 21.4457 23.3442 21.6136 23.221C21.8851 23.0204 21.9744 22.6685 21.8672 22.3518L21.535 21.3594C21.8494 20.9828 22.1066 20.5499 22.2816 20.0854L23.3212 19.8707C23.6535 19.8039 23.9178 19.5505 23.9571 19.2197C23.9857 18.9839 24 18.7446 24 18.5018C24 18.2589 23.9857 18.0196 23.9571 17.7838C23.9178 17.453 23.6499 17.1996 23.3212 17.1328L22.2816 16.9146C22.103 16.4465 21.8494 16.0172 21.535 15.6406L21.8672 14.6482C21.9744 14.3315 21.8851 13.9796 21.6136 13.779C21.4457 13.6558 21.2706 13.5397 21.092 13.4306L20.9026 13.325C20.724 13.2264 20.5383 13.1385 20.3453 13.0575C20.0345 12.9273 19.6809 13.0258 19.4522 13.2757L18.7449 14.057C18.5019 14.0183 18.2519 13.9972 17.9982 13.9972C17.7446 13.9972 17.4945 14.0183 17.2516 14.057L16.5442 13.2757C16.3191 13.0258 15.9655 12.9273 15.6511 13.0575C15.4617 13.1385 15.276 13.2264 15.0938 13.325L14.908 13.4306C14.7258 13.5361 14.5543 13.6523 14.3864 13.779C14.1149 13.9796 14.0256 14.3315 14.1328 14.6482L14.465 15.6406C14.1506 16.0172 13.8934 16.4501 13.7184 16.9146L12.6788 17.1257C12.3465 17.1926 12.0822 17.446 12.0429 17.7768C12.0143 18.0126 12 18.2519 12 18.4947C12 18.7375 12.0143 18.9769 12.0429 19.2126C12.0822 19.5434 12.3501 19.7968 12.6788 19.8637L13.7184 20.0784C13.897 20.5464 14.1506 20.9758 14.465 21.3523L14.1328 22.3448C14.0256 22.6615 14.1149 23.0134 14.3864 23.214C14.5543 23.3372 14.7258 23.4533 14.908 23.5589L15.1009 23.668C15.2795 23.7665 15.4653 23.8545 15.6547 23.9354C15.9655 24.0657 16.3191 23.9671 16.5478 23.7173L17.2551 22.936C17.4981 22.9747 17.7481 22.9958 18.0018 22.9958C18.2554 22.9958 18.5055 22.9747 18.7484 22.936L19.4558 23.7173L19.4522 23.7243ZM17.9982 16.809C18.2234 16.809 18.4464 16.8527 18.6544 16.9376C18.8625 17.0225 19.0515 17.1469 19.2108 17.3038C19.37 17.4606 19.4963 17.6469 19.5825 17.8518C19.6687 18.0567 19.713 18.2764 19.713 18.4982C19.713 18.7201 19.6687 18.9397 19.5825 19.1447C19.4963 19.3496 19.37 19.5358 19.2108 19.6927C19.0515 19.8496 18.8625 19.974 18.6544 20.0589C18.4464 20.1438 18.2234 20.1875 17.9982 20.1875C17.773 20.1875 17.55 20.1438 17.342 20.0589C17.1339 19.974 16.9449 19.8496 16.7857 19.6927C16.6264 19.5358 16.5001 19.3496 16.4139 19.1447C16.3278 18.9397 16.2834 18.7201 16.2834 18.4982C16.2834 18.2764 16.3278 18.0567 16.4139 17.8518C16.5001 17.6469 16.6264 17.4606 16.7857 17.3038C16.9449 17.1469 17.1339 17.0225 17.342 16.9376C17.55 16.8527 17.773 16.809 17.9982 16.809Z" fill="#1E4EBE"/>
</svg>
