<svg width="22" height="22" viewBox="0 0 22 22" fill="none" xmlns="http://www.w3.org/2000/svg">
<g clip-path="url(#clip0_1176_6561)">
<path d="M11.0002 1.83301C16.0629 1.83301 20.1668 5.93692 20.1668 10.9997C20.1668 16.0624 16.0629 20.1663 11.0002 20.1663C5.93741 20.1663 1.8335 16.0624 1.8335 10.9997C1.8335 5.93692 5.93741 1.83301 11.0002 1.83301ZM11.0002 3.66634C9.05524 3.66634 7.18998 4.43896 5.81471 5.81422C4.43945 7.18949 3.66683 9.05475 3.66683 10.9997C3.66683 12.9446 4.43945 14.8099 5.81471 16.1851C7.18998 17.5604 9.05524 18.333 11.0002 18.333C12.9451 18.333 14.8103 17.5604 16.1856 16.1851C17.5609 14.8099 18.3335 12.9446 18.3335 10.9997C18.3335 9.05475 17.5609 7.18949 16.1856 5.81422C14.8103 4.43896 12.9451 3.66634 11.0002 3.66634ZM10.991 9.16634C11.5025 9.16634 11.9168 9.58067 11.9168 10.0922V14.7892C12.0916 14.8901 12.2281 15.0458 12.3054 15.2322C12.3826 15.4187 12.3961 15.6254 12.3439 15.8203C12.2917 16.0152 12.1766 16.1874 12.0165 16.3102C11.8564 16.4331 11.6603 16.4997 11.4585 16.4997H11.0093C10.8877 16.4997 10.7674 16.4757 10.655 16.4292C10.5427 16.3827 10.4406 16.3145 10.3547 16.2285C10.2687 16.1425 10.2005 16.0405 10.154 15.9281C10.1074 15.8158 10.0835 15.6954 10.0835 15.5738V10.9997C9.84038 10.9997 9.60722 10.9031 9.43531 10.7312C9.26341 10.5593 9.16683 10.3261 9.16683 10.083C9.16683 9.83989 9.26341 9.60673 9.43531 9.43483C9.60722 9.26292 9.84038 9.16634 10.0835 9.16634H10.991ZM11.0002 6.41634C11.2433 6.41634 11.4764 6.51292 11.6483 6.68483C11.8203 6.85673 11.9168 7.08989 11.9168 7.33301C11.9168 7.57612 11.8203 7.80928 11.6483 7.98119C11.4764 8.1531 11.2433 8.24967 11.0002 8.24967C10.757 8.24967 10.5239 8.1531 10.352 7.98119C10.1801 7.80928 10.0835 7.57612 10.0835 7.33301C10.0835 7.08989 10.1801 6.85673 10.352 6.68483C10.5239 6.51292 10.757 6.41634 11.0002 6.41634Z" fill="#333333"/>
</g>
<defs>
<clipPath id="clip0_1176_6561">
<rect width="22" height="22" fill="white"/>
</clipPath>
</defs>
</svg>
