<svg width="12" height="12" viewBox="0 0 12 12" fill="none" xmlns="http://www.w3.org/2000/svg">
<path d="M1.11111 0.8C0.635016 0.8 0.3 1.23975 0.3 1.71429C0.3 2.18883 0.635016 2.62857 1.11111 2.62857H10.8889C11.365 2.62857 11.7 2.18883 11.7 1.71429C11.7 1.23975 11.365 0.8 10.8889 0.8H1.11111ZM1.11111 5.08571C0.635016 5.08571 0.3 5.52546 0.3 6C0.3 6.47454 0.635016 6.91429 1.11111 6.91429H10.8889C11.365 6.91429 11.7 6.47454 11.7 6C11.7 5.52546 11.365 5.08571 10.8889 5.08571H1.11111ZM1.11111 9.37143C0.635016 9.37143 0.3 9.81117 0.3 10.2857C0.3 10.7603 0.635016 11.2 1.11111 11.2H10.8889C11.365 11.2 11.7 10.7603 11.7 10.2857C11.7 9.81117 11.365 9.37143 10.8889 9.37143H1.11111Z" fill="#333333" stroke="#333333" stroke-width="0.4" stroke-linecap="round"/>
</svg>
