<svg width="22" height="16" viewBox="0 0 22 16" fill="none" xmlns="http://www.w3.org/2000/svg">
<path d="M11.8775 0H6.5C5.675 0 5 0.72 5 1.6V14.4C5 15.28 5.675 16 6.5 16H15.5C16.325 16 17 15.28 17 14.4V5.464C17 5.04 16.8425 4.632 16.5575 4.336L12.935 0.472C12.6575 0.168 12.275 0 11.8775 0ZM14 10.4C14 12.272 12.4925 13.768 10.7075 13.584C9.1475 13.424 8 11.936 8 10.264V6.112C8 5.064 8.705 4.112 9.68 4.008C10.805 3.888 11.75 4.824 11.75 6V9.6C11.75 10.04 11.4125 10.4 11 10.4C10.5875 10.4 10.25 10.04 10.25 9.6V6C10.25 5.776 10.085 5.6 9.875 5.6C9.665 5.6 9.5 5.776 9.5 6V10.312C9.5 11.112 10.01 11.848 10.745 11.976C11.69 12.144 12.5 11.368 12.5 10.4V8C12.5 7.56 12.8375 7.2 13.25 7.2C13.6625 7.2 14 7.56 14 8V10.4ZM12.5 4V1.6L15.5 4.8H13.25C12.8375 4.8 12.5 4.44 12.5 4Z" fill="#C0C0C0"/>
</svg>
