<svg width="20" height="20" viewBox="0 0 20 20" fill="none" xmlns="http://www.w3.org/2000/svg">
<path fill-rule="evenodd" clip-rule="evenodd" d="M10 4C9.52665 4 9.14286 4.38379 9.14286 4.85714V9.14286H4.85714C4.59766 9.14286 4.36496 9.25816 4.20801 9.44022C4.07826 9.59047 4 9.78613 4 10C4 10.4734 4.38379 10.8571 4.85714 10.8571H9.14286V15.1429C9.14286 15.6162 9.52665 16 10 16C10.4734 16 10.8571 15.6162 10.8571 15.1429V10.8571H15.1429C15.6162 10.8571 16 10.4734 16 10C16 9.52665 15.6162 9.14286 15.1429 9.14286H10.8571V4.85714C10.8571 4.38379 10.4734 4 10 4Z" fill="#A3A3A3"/>
</svg>
