<svg width="33" height="43" viewBox="0 0 33 43" fill="none" xmlns="http://www.w3.org/2000/svg">
<g clip-path="url(#clip0_47_615)">
<path d="M16.9028 43H16.5066C16.2689 43 16.0444 42.9197 15.8595 42.7591L0.343337 29.1752C0.132053 28.9879 0 28.7068 0 28.4124V7.98973C0 7.57485 0.2509 7.20012 0.633854 7.05291C5.83673 5.04544 8.60984 0.521942 8.63625 0.481793C8.82113 0.187364 9.13806 0 9.48139 0H23.5318C23.8752 0 24.1921 0.187364 24.3769 0.481793C24.4034 0.521942 27.2029 5.05882 32.3661 7.05291C32.7491 7.20012 33 7.57485 33 7.98973V28.4258C33 28.7068 32.8811 28.9879 32.6699 29.1752L17.5498 42.7457C17.3649 42.9063 17.1405 43 16.8896 43H16.9028ZM1.98079 27.9574L16.7047 40.8319L31.0324 27.9574V8.67227C26.5822 6.7451 23.8884 3.27887 23.0036 2.00747H10.0096C9.12485 3.27887 6.43097 6.73171 1.98079 8.67227V27.9707V27.9574Z" fill="#3D33C1"/>
<path d="M17.0612 37.3523H16.2689L4.04082 26.6592V10.3452L4.46339 10.1846C8.43818 8.6455 10.5774 5.17927 10.5906 5.13912L10.7887 4.81793H22.2245L22.4226 5.13912C22.4226 5.13912 24.5882 8.65889 28.5498 10.1846L28.9724 10.3452V26.6592L17.0612 37.3523ZM5.36134 26.057L16.6519 35.9337L27.6519 26.057V11.2686C24.2053 9.79645 22.1321 7.09306 21.4982 6.16962H11.515C10.8812 7.09306 8.80792 9.79645 5.36134 11.2686V26.057Z" fill="#5A9DFF"/>
<path d="M17.6158 19.0977C18.8043 18.8033 19.6891 17.7193 19.6891 16.4345C19.6891 14.9088 18.4742 13.6776 16.9688 13.6776C15.4634 13.6776 14.2485 14.9088 14.2485 16.4345C14.2485 17.6925 15.0936 18.7498 16.2425 19.0843L15.5954 20.8509L14.2617 24.4777H19.623L18.2893 20.8509L17.6423 19.1111L17.6158 19.0977Z" fill="#5A9DFF"/>
</g>
<defs>
<clipPath id="clip0_47_615">
<rect width="33" height="43" fill="white"/>
</clipPath>
</defs>
</svg>
