<svg width="101" height="40" viewBox="0 0 101 40" fill="none" xmlns="http://www.w3.org/2000/svg">
<g opacity="0.5">
<path d="M51.5614 39.9836C62.3996 39.9836 69.537 30.9062 74.9794 22.9285C79.5511 16.3298 87.4815 4.83935 99.9524 2.75466C100.59 2.65617 100.45 2.1309 99.7969 2.08165C96.547 1.83543 90.5448 2.18014 83.8428 6.39876C75.4615 11.6844 69.1793 22.5838 62.2907 27.9679C58.4966 30.9226 52.2611 33.9101 46.4299 30.5779C46.4299 30.5779 40.9097 27.853 41.143 20.2857C41.143 20.2857 41.1585 12.423 48.3581 10.88C48.3581 10.88 53.474 9.92796 55.8531 14.1302C56.0864 14.5405 56.1486 15.1479 55.4644 14.6062C54.6869 13.966 53.474 13.4407 51.6236 13.6213C51.6236 13.6213 48.0315 13.9004 46.9897 17.6922C46.9897 17.6922 45.8701 21.2378 48.5447 24.0612C48.5447 24.0612 50.1308 26.1787 53.5828 25.9981C60.5958 25.9981 67.2356 16.1656 69.2104 14.0809C73.5022 9.534 80.8883 1.8026 93.9502 0.883367C94.6188 0.834122 94.5411 0.358091 93.8724 0.259602C87.9169 -0.643216 74.0309 0.111866 61.3889 14.1466C59.8494 8.54911 54.7024 4.83935 48.4825 4.97067C42.9623 5.08557 33.5702 9.59966 33.5702 21.5825C33.5702 34.3205 44.0041 40 51.5614 40" fill="black" fill-opacity="0.12"/>
<path d="M36.0737 34.7473C33.1659 31.2181 31.3932 26.6219 31.3932 21.5825C31.3932 21.3527 31.3932 21.1229 31.3932 20.9095C27.0393 15.6568 22.3588 9.87875 16.8541 6.41521C10.2144 2.213 4.27433 1.85188 0.993315 2.08169C0.246923 2.14734 0.122524 2.65621 0.853366 2.78752C13.2621 4.92146 21.1614 16.3626 25.7331 22.945C28.5943 27.1308 31.782 31.612 35.8249 34.9443C36.2914 35.3218 36.4625 35.2069 36.0737 34.7473Z" fill="black" fill-opacity="0.12"/>
<path d="M6.85561 0.259553C6.15586 0.358042 6.12476 0.850488 6.80896 0.883318C19.8553 1.73689 27.6924 10.0756 31.5021 14.0645C31.7353 14.3107 32.0463 14.6718 32.4195 15.0986C33.026 13.2109 33.9123 11.4381 35.0008 9.84584C23.6494 -0.0194998 12.1581 -0.544775 6.85561 0.259553Z" fill="black" fill-opacity="0.12"/>
</g>
</svg>
