<svg width="54" height="54" viewBox="0 0 54 54" fill="none" xmlns="http://www.w3.org/2000/svg">
<path fill-rule="evenodd" clip-rule="evenodd" d="M27 49C39.1503 49 49 39.1503 49 27C49 14.8497 39.1503 5 27 5C14.8497 5 5 14.8497 5 27C5 39.1503 14.8497 49 27 49ZM27 54C41.9117 54 54 41.9117 54 27C54 12.0883 41.9117 0 27 0C12.0883 0 0 12.0883 0 27C0 41.9117 12.0883 54 27 54Z" fill="#439F6E"/>
<path d="M24.466 29.9299L20.6805 26.1445C20.5103 25.9692 20.3072 25.8293 20.0827 25.7328C19.8568 25.6358 19.6138 25.5847 19.3679 25.5826C19.122 25.5804 18.8782 25.6273 18.6506 25.7204C18.423 25.8135 18.2162 25.951 18.0424 26.1249C17.8685 26.2987 17.731 26.5055 17.6379 26.7331L18.0956 26.9203L17.6379 26.7331C17.5448 26.9607 17.4979 27.2045 17.5001 27.4504C17.5022 27.6963 17.5533 27.9392 17.6503 28.1652C17.7468 28.3897 17.8867 28.5928 18.062 28.763L23.0931 33.7933C23.0932 33.7933 23.0932 33.7933 23.0932 33.7933C23.2735 33.9737 23.4876 34.1167 23.7232 34.2143C23.9588 34.312 24.2114 34.3622 24.4664 34.3622C24.7215 34.3622 24.974 34.312 25.2097 34.2143C25.4453 34.1167 25.6594 33.9737 25.8397 33.7933C25.8397 33.7933 25.8397 33.7933 25.8397 33.7933L35.9718 23.6612L35.9718 23.6612C36.319 23.3139 36.514 22.843 36.514 22.3519C36.514 21.8609 36.319 21.39 35.9719 21.0428C35.7999 20.8707 35.5957 20.7342 35.371 20.6411C35.1463 20.5479 34.9054 20.5 34.6621 20.5C34.4188 20.5 34.1779 20.5479 33.9532 20.6411C33.7284 20.7342 33.5243 20.8707 33.3523 21.0427C33.3523 21.0427 33.3523 21.0428 33.3522 21.0428L24.466 29.9299Z" fill="#439F6E" stroke="#439F6E"/>
</svg>
