<svg width="76" height="76" viewBox="0 0 76 76" fill="none" xmlns="http://www.w3.org/2000/svg">
<circle cx="38" cy="38" r="38" fill="#DFF2FA"/>
<g clip-path="url(#clip0_1_1110)">
<path d="M57.34 22.13H22.87V52.66H57.34V22.13Z" fill="white"/>
<path d="M55.51 54.16H24.69C23.2 54.16 22 52.91 22 51.37V23.79C22 22.25 23.21 21 24.69 21H55.5C56.98 21 58.19 22.25 58.19 23.79V51.37C58.19 52.91 56.98 54.16 55.5 54.16H55.51ZM24.69 22.5C24.03 22.5 23.5 23.08 23.5 23.79V51.37C23.5 52.08 24.04 52.66 24.69 52.66H55.5C56.16 52.66 56.69 52.08 56.69 51.37V23.79C56.69 23.08 56.16 22.5 55.5 22.5H24.69Z" fill="#3D33C1"/>
<path d="M33.08 51.45H27.53C25.94 51.45 24.65 50.24 24.65 48.74V26.42C24.65 24.93 25.94 23.71 27.53 23.71H33.08C34.67 23.71 35.96 24.92 35.96 26.42V48.75C35.96 50.24 34.67 51.46 33.08 51.46V51.45ZM27.53 25.21C26.77 25.21 26.15 25.75 26.15 26.42V48.75C26.15 49.42 26.77 49.96 27.53 49.96H33.08C33.84 49.96 34.46 49.42 34.46 48.75V26.42C34.46 25.75 33.84 25.21 33.08 25.21H27.53Z" fill="#3D33C1"/>
<path d="M53.0601 28.22H39.5601V32.35H53.0601V28.22Z" fill="#3FC7EF"/>
<path d="M42.7401 36.39H39.5601V38.6H42.7401V36.39Z" fill="#3FC7EF"/>
<path d="M47.8901 36.39H44.7101V38.6H47.8901V36.39Z" fill="#3FC7EF"/>
<path d="M53.0501 36.39H49.8701V38.6H53.0501V36.39Z" fill="#3FC7EF"/>
<path d="M42.7401 40.51H39.5601V42.72H42.7401V40.51Z" fill="#3FC7EF"/>
<path d="M47.8901 40.51H44.7101V42.72H47.8901V40.51Z" fill="#3FC7EF"/>
<path d="M53.0501 40.51H49.8701V42.72H53.0501V40.51Z" fill="#3FC7EF"/>
<path d="M42.7401 44.64H39.5601V46.85H42.7401V44.64Z" fill="#3FC7EF"/>
<path d="M47.8901 44.64H44.7101V46.85H47.8901V44.64Z" fill="#3FC7EF"/>
<path d="M53.0501 44.64H49.8701V46.85H53.0501V44.64Z" fill="#3FC7EF"/>
</g>
<defs>
<clipPath id="clip0_1_1110">
<rect width="36.2" height="33.16" fill="white" transform="translate(22 21)"/>
</clipPath>
</defs>
</svg>
