<svg width="60" height="46" viewBox="0 0 60 46" fill="none" xmlns="http://www.w3.org/2000/svg">
<path d="M3.5 27.4833C4.88071 27.4833 6 26.364 6 24.9833C6 23.6026 4.88071 22.4833 3.5 22.4833C2.11929 22.4833 1 23.6026 1 24.9833C1 26.364 2.11929 27.4833 3.5 27.4833Z" fill="#1959BF"/>
<path d="M11.959 17.4277H10.166L10.3242 15.0898L8.39062 16.4258L7.49414 14.8613L9.60352 13.8594L7.49414 12.8398L8.39062 11.2754L10.3242 12.5938L10.166 10.2734H11.959L11.7832 12.5938L13.7168 11.2754L14.6133 12.8398L12.5039 13.8594L14.6133 14.8613L13.7168 16.4258L11.7832 15.0898L11.959 17.4277Z" fill="#F00000"/>
</svg>
