<svg width="176" height="34" viewBox="0 0 176 34" fill="none" xmlns="http://www.w3.org/2000/svg">
<path fill-rule="evenodd" clip-rule="evenodd" d="M40.2833 13.2721C37.3425 17.368 33.486 22.0286 27.6297 22.0286V22.037C23.5463 22.037 17.9084 19.121 17.9084 12.581C17.9084 6.4287 22.9833 4.11106 25.9661 4.05206C29.3269 3.98464 32.108 5.88932 32.9398 8.7632C39.7708 1.55743 47.2738 1.16976 50.4919 1.63329C50.8532 1.68385 50.8952 1.92826 50.5339 1.95354C43.4761 2.4255 39.4851 6.39499 37.1661 8.72949C36.9901 8.90599 36.7456 9.19066 36.443 9.54303C34.9103 11.3275 31.8864 14.8481 28.722 14.8481C26.8567 14.9408 25.9997 13.8536 25.9997 13.8536C24.5545 12.404 25.1595 10.5836 25.1595 10.5836C25.7224 8.63678 27.6633 8.49351 27.6633 8.49351C28.6631 8.40081 29.3185 8.6705 29.7386 8.99918C30.1083 9.2773 30.0747 8.96547 29.9487 8.75477C28.6631 6.59726 25.8989 7.08607 25.8989 7.08607C22.0087 7.87828 22.0003 11.9152 22.0003 11.9152C21.8742 15.8004 24.857 17.1994 24.857 17.1994C28.0078 18.9103 31.377 17.3764 33.4272 15.8594C35.0473 14.6562 36.6053 12.9165 38.2218 11.1116C40.3191 8.76966 42.5149 6.31784 45.0725 4.78528C48.6938 2.61934 51.937 2.44235 53.6931 2.56877C54.046 2.59405 54.1216 2.86374 53.7771 2.91431C47.0569 3.98173 42.7768 9.85208 40.3035 13.2444L40.2833 13.2721Z" fill="#33BCC4"/>
<path fill-rule="evenodd" clip-rule="evenodd" d="M3.3557 1.95352C2.986 1.93666 3.00281 1.68383 3.3809 1.63326C6.24603 1.2203 12.4552 1.48999 18.5887 6.55509C18.0006 7.37259 17.5217 8.28279 17.194 9.25199L17.0887 9.13736C16.9335 8.96829 16.8016 8.8247 16.6983 8.72104L16.6353 8.65843C14.5541 6.58715 10.334 2.38734 3.3557 1.95352Z" fill="#F89C0E"/>
<path fill-rule="evenodd" clip-rule="evenodd" d="M19.2947 19.5407C17.7235 17.7288 16.7657 15.369 16.7657 12.7816V12.4361L16.4963 12.1271C14.2199 9.51512 11.7708 6.70494 8.90969 4.99435C5.32198 2.83684 2.11237 2.65143 0.33952 2.76942C-0.0637816 2.80313 -0.130999 3.06439 0.263901 3.13181C6.94034 4.22277 11.2008 10.0518 13.6757 13.438L13.7073 13.4811C15.2533 15.6302 16.9757 17.931 19.1603 19.6419C19.4123 19.8357 19.5048 19.7767 19.2947 19.5407Z" fill="#647DC7"/>
<path fill-rule="evenodd" clip-rule="evenodd" d="M1.6678 26.0696H0.617533V31.1431H1.6678V26.0696ZM2.78528 27.3759V31.1263H3.79354V28.7581C3.96998 28.4799 4.12962 28.303 4.28086 28.2102C4.4237 28.126 4.57493 28.0754 4.70937 28.0754C4.79339 28.0754 4.86061 28.1007 4.92782 28.1344C4.98664 28.1765 5.03705 28.2271 5.07906 28.303C5.12107 28.3788 5.13788 28.5137 5.13788 28.7243V31.1347H6.15453V28.4715C6.15453 28.0585 6.0453 27.7551 5.83525 27.5697C5.6252 27.3759 5.36473 27.2832 5.07066 27.2832C4.8438 27.2832 4.61694 27.3422 4.39849 27.4686C4.18003 27.5866 3.97838 27.7973 3.79354 28.0838V27.3759H2.78528ZM9.96069 31.0588C9.54059 31.1684 9.15409 31.2274 8.8012 31.2274C8.17104 31.2274 7.69212 31.0336 7.36444 30.6543C7.04516 30.2751 6.88552 29.8115 6.88552 29.2553C6.88552 28.6991 7.05356 28.2018 7.38964 27.8394C7.72573 27.477 8.22986 27.2916 8.88522 27.2916C9.1877 27.2916 9.53219 27.3422 9.92709 27.4349V28.1681C9.52378 28.0333 9.1961 27.9658 8.95244 27.9658C8.60795 27.9658 8.35589 28.1007 8.19625 28.362C8.03661 28.6316 7.96099 28.9182 7.96099 29.2384C7.96099 29.4828 8.003 29.7188 8.09542 29.9295C8.18785 30.1402 8.31388 30.3003 8.48192 30.393C8.64156 30.4942 8.83481 30.5363 9.03646 30.5363C9.33053 30.5363 9.64141 30.4689 9.96069 30.3341V31.0588ZM10.8009 25.7241V31.1263H11.8092V28.7581C11.9856 28.4799 12.1452 28.303 12.2965 28.2103C12.4393 28.126 12.5906 28.0754 12.725 28.0754C12.809 28.0754 12.8846 28.1007 12.9434 28.1344C13.0023 28.1765 13.0611 28.2271 13.0947 28.303C13.1367 28.3788 13.1535 28.5137 13.1535 28.7243V31.1347H14.1702V28.4715C14.1702 28.0586 14.0609 27.7552 13.8509 27.5697C13.6408 27.3759 13.3804 27.2832 13.0863 27.2832C12.8594 27.2832 12.6326 27.3422 12.4141 27.4686C12.1957 27.5866 11.994 27.7973 11.8092 28.0838V25.7241H10.8009ZM18.2032 31.0083C17.7243 31.1516 17.2705 31.219 16.842 31.219C16.4387 31.219 16.0858 31.1431 15.775 30.9914C15.4725 30.8397 15.2372 30.6037 15.0692 30.2835C14.9095 29.9548 14.8255 29.6093 14.8255 29.23C14.8255 28.876 14.8927 28.5474 15.0356 28.2524C15.1784 27.9574 15.3801 27.7214 15.6489 27.5445C15.9178 27.3759 16.2455 27.2916 16.632 27.2916C17.1109 27.2916 17.489 27.4433 17.7747 27.7467C18.0603 28.0501 18.2032 28.6232 18.2032 29.4576H15.901C15.9178 29.7104 15.9766 29.9127 16.069 30.0559C16.1615 30.1992 16.2791 30.3172 16.4387 30.4015C16.59 30.4858 16.8 30.5279 17.0689 30.5279C17.405 30.5279 17.7831 30.452 18.2032 30.2919V31.0083ZM17.2033 28.8845H15.8765C15.9025 28.5767 15.9862 28.3352 16.111 28.1765C16.2287 28.0164 16.3967 27.9321 16.59 27.9321C16.7664 27.9321 16.9177 28.008 17.0269 28.1513C17.1445 28.2945 17.2033 28.5389 17.2033 28.8845ZM19.6819 30.9914C19.9676 31.1516 20.3205 31.2274 20.7238 31.2274C21.1355 31.2274 21.48 31.1516 21.7741 30.9914C22.0598 30.8313 22.2866 30.6037 22.4378 30.2919C22.5891 29.9801 22.6647 29.643 22.6647 29.2637C22.6647 28.8845 22.5891 28.5474 22.4378 28.2355C22.2866 27.9321 22.0598 27.6962 21.7741 27.536C21.4884 27.3675 21.1271 27.2916 20.7238 27.2916C20.3205 27.2916 19.9676 27.3759 19.6735 27.536C19.3879 27.6962 19.161 27.9321 19.0098 28.2355C18.8585 28.5474 18.7913 28.8845 18.7913 29.2637C18.7913 29.643 18.8669 29.9885 19.0182 30.2919C19.1694 30.6037 19.3879 30.8313 19.6819 30.9914ZM21.3708 30.2076C21.2279 30.4605 21.0095 30.5869 20.7238 30.5869C20.4465 30.5869 20.2281 30.4605 20.0853 30.2076C19.9424 29.9548 19.8668 29.6345 19.8668 29.2553C19.8668 28.876 19.934 28.5642 20.0853 28.3114C20.2281 28.0585 20.4381 27.9321 20.7238 27.9321C21.0095 27.9321 21.2279 28.0585 21.3708 28.3114C21.5136 28.5558 21.5892 28.876 21.5892 29.2553C21.5892 29.6345 21.5136 29.9548 21.3708 30.2076ZM23.3201 31.1263V27.3759H24.3367V28.0838C24.5132 27.7973 24.7232 27.5866 24.9417 27.4686C25.1601 27.3422 25.387 27.2832 25.6138 27.2832C25.9079 27.2832 26.16 27.3759 26.3784 27.5697C26.5885 27.7551 26.6977 28.0585 26.6977 28.4715V31.1347H25.6895V28.7243C25.6895 28.5137 25.6727 28.3788 25.6307 28.303C25.597 28.2271 25.5382 28.1765 25.4794 28.1344C25.4122 28.1007 25.345 28.0754 25.261 28.0754C25.1265 28.0754 24.9753 28.126 24.824 28.2102C24.6728 28.303 24.5132 28.4799 24.3367 28.7581V31.1263H23.3201ZM31.4197 26.0696L29.4536 31.1431H30.2098L30.7307 29.7947H32.8229L33.3522 31.1431H34.4361L32.47 26.0696H31.4197ZM32.5792 29.112H31.0164L31.7978 27.0894L32.5792 29.112ZM34.9738 25.8926H35.9821V26.7354H34.9738V25.8926ZM34.9738 27.3759H35.9821V31.1431H34.9738V27.3759ZM37.0575 27.3759V31.1516H38.0742V28.7581C38.2002 28.5474 38.3515 28.3957 38.5111 28.2945C38.6707 28.1934 38.8556 28.1428 39.0572 28.1428C39.1833 28.1428 39.3177 28.1681 39.4605 28.2187V27.3169C39.3933 27.3001 39.3261 27.3001 39.2673 27.3001C39.0152 27.3001 38.78 27.3675 38.5699 27.5107C38.3599 27.654 38.1918 27.8394 38.0742 28.0838V27.3759H37.0575ZM40.0487 32.5V27.3759H41.0654V28.0923C41.1914 27.8226 41.3594 27.6287 41.5611 27.4939C41.7627 27.359 41.998 27.3001 42.2753 27.3001C42.729 27.3001 43.0819 27.4686 43.3255 27.8141C43.5776 28.1597 43.7036 28.6064 43.7036 29.1626C43.7036 29.7525 43.5692 30.2414 43.2835 30.6375C43.0062 31.0336 42.6197 31.2274 42.1156 31.2274C41.9812 31.2274 41.8636 31.2106 41.7459 31.1853C41.6367 31.16 41.5275 31.1094 41.4182 31.0504C41.3174 30.9914 41.1914 30.8987 41.0569 30.7639V32.5H40.0487ZM41.0654 30.1571C41.1998 30.3172 41.3342 30.4268 41.4603 30.4858C41.5779 30.5448 41.7039 30.57 41.8299 30.57C42.0988 30.57 42.2921 30.4352 42.4265 30.1655C42.5609 29.8958 42.6282 29.5924 42.6282 29.2469C42.6282 28.9013 42.5609 28.6064 42.4433 28.3957C42.3173 28.1934 42.1408 28.0923 41.9056 28.0923C41.7627 28.0923 41.6199 28.1428 41.4687 28.244C41.3258 28.3451 41.1914 28.4884 41.0654 28.6654V30.1571ZM45.1404 30.9914C45.4261 31.1516 45.7789 31.2274 46.1822 31.2274H46.1906C46.6023 31.2274 46.9468 31.1516 47.2409 30.9914C47.5266 30.8313 47.7534 30.6037 47.9047 30.2919C48.0559 29.9801 48.1315 29.643 48.1315 29.2637C48.1315 28.8845 48.0559 28.5474 47.9047 28.2355C47.7534 27.9321 47.5266 27.6962 47.2409 27.536C46.9552 27.3675 46.5939 27.2916 46.1906 27.2916C45.7873 27.2916 45.4345 27.3759 45.1404 27.536C44.8547 27.6962 44.6278 27.9321 44.4766 28.2355C44.3254 28.5474 44.2497 28.8845 44.2497 29.2637C44.2497 29.643 44.3254 29.9885 44.4766 30.2919C44.6278 30.6037 44.8463 30.8313 45.1404 30.9914ZM46.8292 30.2076C46.6864 30.4605 46.4679 30.5869 46.1822 30.5869C45.8966 30.5869 45.6865 30.4605 45.5353 30.2076C45.3924 29.9548 45.3168 29.6345 45.3168 29.2553C45.3168 28.876 45.3924 28.5642 45.5353 28.3114C45.6865 28.0585 45.8966 27.9321 46.1822 27.9321C46.4679 27.9321 46.6864 28.0585 46.8292 28.3114C46.972 28.5558 47.0477 28.876 47.0477 29.2553C47.0477 29.6345 46.972 29.9548 46.8292 30.2076ZM48.7785 27.3759H49.7868V28.0838C49.9044 27.8394 50.0724 27.654 50.2825 27.5107C50.4925 27.3675 50.7278 27.3001 50.9799 27.3001C51.0387 27.3001 51.1059 27.3001 51.1731 27.3169V28.2187C51.0303 28.1681 50.8958 28.1428 50.7698 28.1428C50.5682 28.1428 50.3833 28.1934 50.2237 28.2945C50.064 28.3957 49.9128 28.5474 49.7868 28.7581V31.1516H48.7785V27.3759ZM53.2568 31.219C53.3997 31.219 53.5845 31.1937 53.8282 31.1178L53.8198 31.1094V30.4942C53.7021 30.5195 53.5929 30.5363 53.5089 30.5363C53.324 30.5363 53.1812 30.4858 53.0888 30.3931C52.9964 30.3003 52.9459 30.1149 52.9459 29.8452V28.008H53.7526V27.3675H52.9459V26.6174L51.9293 26.7354V27.3759H51.5092V28.0164H51.9293V29.9969C51.9293 30.3088 51.9797 30.5448 52.0721 30.7049C52.1646 30.865 52.299 30.9914 52.4838 31.0841C52.6687 31.1684 52.9291 31.219 53.2568 31.219Z" fill="#4D5259"/>
<path d="M69.2972 17.4669V10.5H67.7324V17.4669H69.2972Z" fill="black"/>
<path fill-rule="evenodd" clip-rule="evenodd" d="M62.479 19.4061V18.0702H60.9421V23.3276H69.2972V18.0702H67.7464V19.4061H62.479ZM67.7464 22.0348H62.479V20.6558H67.7464V22.0348Z" fill="black"/>
<path fill-rule="evenodd" clip-rule="evenodd" d="M65.8043 14.1199C65.8043 12.3099 64.3524 11.0602 62.4091 11.0746C60.4519 11.0602 59 12.3099 59 14.1199C59 15.8867 60.4519 17.1365 62.4091 17.1365C64.3524 17.1365 65.8043 15.8867 65.8043 14.1199ZM60.5229 14.1199C60.5089 13.0713 61.3047 12.4105 62.4091 12.4105C63.4996 12.4105 64.2813 13.0713 64.2813 14.1199C64.2813 15.1541 63.4996 15.8149 62.4091 15.8293C61.3047 15.8149 60.5089 15.1541 60.5229 14.1199Z" fill="black"/>
<path d="M91.1911 19.4348C89.1919 18.4867 88.0334 16.2028 88.0334 14.1917V13.1H90.6741V11.7785H83.7301V13.1H86.4826V14.1917C86.4686 16.3464 85.2542 18.7884 83.2411 19.7652L84.1493 21.0149C85.6032 20.2967 86.7058 18.774 87.279 16.9928C87.8452 18.616 88.8988 20.0094 90.3248 20.6989L91.1911 19.4348Z" fill="black"/>
<path d="M93.3986 15.5564V10.5H91.8477V23.4856H93.3986V16.8923H95.3407V15.5564H93.3986Z" fill="black"/>
<path d="M103.933 13.6171C103.933 16.0304 105.05 18.4006 107.063 19.3055L106.127 20.584C104.694 19.8657 103.689 18.4867 103.151 16.7917C102.599 18.5801 101.573 20.0669 100.119 20.8282L99.141 19.5354C101.196 18.5442 102.341 16.0448 102.355 13.6171V11.5486H103.933V13.6171Z" fill="black"/>
<path d="M109.857 10.5V23.5H108.321V15.9873H105.666V14.6945H108.321V10.5H109.857Z" fill="black"/>
<path d="M122.139 23.5V10.5H120.574V23.5H122.139Z" fill="black"/>
<path fill-rule="evenodd" clip-rule="evenodd" d="M113.853 14.8094V11.563H112.302V20.4403H118.45V11.563H116.913V14.8094H113.853ZM116.913 19.1331H113.853V16.0591H116.913V19.1331Z" fill="black"/>
<path d="M162.922 10.5144V19.2768H161.441V15.0392H160.128V18.1851H158.675V10.7586H160.128V13.7464H161.441V10.5144H162.922Z" fill="black"/>
<path d="M157.445 11.4481V15.2834H154.162V16.7917C155.63 16.7702 156.746 16.684 158.032 16.4326L158.172 17.6823C156.662 17.9983 155.393 18.0414 153.519 18.0414H152.653V14.1199H155.95V12.7409H152.639V11.4481H157.445Z" fill="black"/>
<path d="M159.374 18.9608C159.374 20.4403 160.979 21.8337 163.537 22.1785L162.908 23.4138C160.93 23.1193 159.374 22.2 158.605 20.9144C157.815 22.2 156.259 23.1193 154.288 23.4138L153.659 22.1785C156.203 21.8337 157.809 20.4403 157.823 18.9608V18.6878H159.374V18.9608Z" fill="black"/>
<path fill-rule="evenodd" clip-rule="evenodd" d="M176 16.8779V18.142H164.487V16.8779H169.447V15.6856H165.591V14.3928H167.254V12.1663H165.521V10.8878H174.938V12.1663H173.206V14.3928H174.868V15.6856H170.998V16.8779H176ZM168.805 14.3928H171.641V12.1663H168.805V14.3928Z" fill="black"/>
<path fill-rule="evenodd" clip-rule="evenodd" d="M174.603 19.1619V23.3276H165.842V19.1619H174.603ZM167.379 20.4116V22.0348H173.094V20.4116H167.379Z" fill="black"/>
<path fill-rule="evenodd" clip-rule="evenodd" d="M150.208 12.0801V10.8735H140.791V12.0801H142.524V14.0481H140.861V15.2547H150.138V14.0481H148.476V12.0801H150.208ZM146.911 14.0481H144.074V12.0801H146.911V14.0481Z" fill="black"/>
<path d="M151.27 17.3376V16.0735H139.757V17.3376H151.27Z" fill="black"/>
<path d="M149.831 21.3022V18.2138H141.112V19.3773H148.308V20.1961H141.126V23.3707H150.18V22.1785H142.649V21.3022H149.831Z" fill="black"/>
<path d="M130.522 12.2812C130.522 14.2923 132.434 16.3033 135.077 16.7773L134.378 18.1133C132.26 17.6536 130.529 16.3392 129.711 14.5939C128.873 16.3249 127.142 17.6464 125.031 18.1133L124.346 16.7773C126.96 16.2889 128.859 14.2779 128.873 12.2812V11.3188H130.522V12.2812Z" fill="black"/>
<path d="M135.538 20.5122V21.8337H123.997V20.5122H135.538Z" fill="black"/>
<path d="M82.6543 17.7398V19.0326H77.6384V23.4713H76.1015V19.0326H71.1415V17.7398H82.6543Z" fill="black"/>
<path d="M81.5924 11.2326V12.4967H77.8061C77.8969 13.9188 79.5581 15.2834 82.0535 15.6138L81.4946 16.8635C79.3417 16.5547 77.6668 15.542 76.8979 14.1343C76.129 15.542 74.4541 16.5547 72.3291 16.8635L71.7423 15.6138C74.2238 15.2834 75.8849 13.9188 76.0037 12.4967H72.2034V11.2326H81.5924Z" fill="black"/>
</svg>
