<svg width="17" height="52" viewBox="0 0 17 52" fill="none" xmlns="http://www.w3.org/2000/svg">
<path d="M3.5 28.5C4.88071 28.5 6 27.3807 6 26C6 24.6193 4.88071 23.5 3.5 23.5C2.11929 23.5 1 24.6193 1 26C1 27.3807 2.11929 28.5 3.5 28.5Z" fill="#1959BF"/>
<path d="M11.959 13.4277H10.166L10.3242 11.0898L8.39062 12.4258L7.49414 10.8613L9.60352 9.85938L7.49414 8.83984L8.39062 7.27539L10.3242 8.59375L10.166 6.27344H11.959L11.7832 8.59375L13.7168 7.27539L14.6133 8.83984L12.5039 9.85938L14.6133 10.8613L13.7168 12.4258L11.7832 11.0898L11.959 13.4277Z" fill="#F00000"/>
</svg>
