<svg width="30" height="30" viewBox="0 0 30 30" fill="none" xmlns="http://www.w3.org/2000/svg">
<rect x="12" y="7.5" width="15" height="15" rx="7.5" fill="#3FC7EF"/>
<path fill-rule="evenodd" clip-rule="evenodd" d="M19.2485 12.85C19.9665 12.85 20.5485 12.268 20.5485 11.55C20.5485 10.832 19.9665 10.25 19.2485 10.25C18.5305 10.25 17.9485 10.832 17.9485 11.55C17.9485 12.268 18.5305 12.85 19.2485 12.85ZM20.5356 14.75C20.5356 14.2222 20.1156 13.7947 19.5973 13.7947H18.6775C18.4312 13.7947 18.1949 13.8943 18.0206 14.0717C17.8464 14.2491 17.7485 14.4897 17.7485 14.7406C17.7485 14.9914 17.8464 15.232 18.0206 15.4094C18.1949 15.5868 18.4312 15.6864 18.6775 15.6864V18.7947C18.6775 18.9202 18.7018 19.0444 18.749 19.1603C18.7961 19.2762 18.8652 19.3816 18.9524 19.4703C19.0395 19.559 19.1429 19.6294 19.2568 19.6774C19.3706 19.7254 19.4926 19.7501 19.6158 19.7501H20.0711C20.2756 19.7501 20.4743 19.6814 20.6366 19.5546C20.7988 19.4279 20.9154 19.2501 20.9684 19.049C21.0213 18.8479 21.0076 18.6346 20.9293 18.4423C20.8511 18.2499 20.7127 18.0892 20.5356 17.9851V14.75Z" fill="white"/>
</svg>
