<svg width="11" height="18" viewBox="0 0 11 18" fill="none" xmlns="http://www.w3.org/2000/svg">
<path fill-rule="evenodd" clip-rule="evenodd" d="M1.39633 13.4777L5.87399 9L1.39633 4.52233C1.20018 4.32633 1.04457 4.09361 0.93836 3.83746C0.832155 3.58132 0.777442 3.30676 0.777344 3.02947C0.777246 2.75218 0.831765 2.47758 0.937789 2.22136C1.04381 1.96514 1.19926 1.73231 1.39527 1.53617C1.59127 1.34002 1.824 1.18441 2.08014 1.0782C2.33629 0.971996 2.61084 0.917281 2.88813 0.917183C3.16543 0.917085 3.44002 0.971606 3.69624 1.07763C3.95246 1.18365 4.18529 1.33911 4.38144 1.53511L10.3538 7.50745C10.7495 7.90334 10.9719 8.44021 10.9719 9C10.9719 9.55979 10.7495 10.0967 10.3538 10.4926L4.38144 16.4649C4.18529 16.6609 3.95246 16.8163 3.69624 16.9224C3.44002 17.0284 3.16543 17.0829 2.88813 17.0828C2.61084 17.0827 2.33629 17.028 2.08014 16.9218C1.824 16.8156 1.59127 16.66 1.39527 16.4638C1.19926 16.2677 1.04381 16.0349 0.937789 15.7786C0.831765 15.5224 0.777246 15.2478 0.777344 14.9705C0.777442 14.6932 0.832155 14.4187 0.93836 14.1625C1.04457 13.9064 1.20018 13.6737 1.39633 13.4777Z" fill="white"/>
</svg>
