<svg width="50" height="50" viewBox="0 0 50 50" fill="none" xmlns="http://www.w3.org/2000/svg">
<path d="M0 25C0 38.8071 11.1929 50 25 50C38.8071 50 50 38.8071 50 25C50 11.1929 38.8071 0 25 0C11.1929 0 0 11.1929 0 25Z" fill="white"/>
<path fill-rule="evenodd" clip-rule="evenodd" d="M25 49C11.7452 49 1 38.2548 1 25C1 11.7452 11.7452 1 25 1C38.2548 1 49 11.7452 49 25C49 38.2548 38.2548 49 25 49ZM25 50C11.1929 50 0 38.8071 0 25C0 11.1929 11.1929 0 25 0C38.8071 0 50 11.1929 50 25C50 38.8071 38.8071 50 25 50Z" fill="#DFDFDF"/>
<path d="M27.2925 19.2925C26.9025 18.9025 26.2725 18.9025 25.8825 19.2925L21.2925 23.8825C20.9025 24.2725 20.9025 24.9025 21.2925 25.2925L25.8825 29.8825C26.2725 30.2725 26.9025 30.2725 27.2925 29.8825C27.6825 29.4925 27.6825 28.8625 27.2925 28.4725L23.4125 24.5825L27.2925 20.7025C27.6825 20.3125 27.6725 19.6725 27.2925 19.2925Z" fill="black"/>
</svg>
