<svg width="15" height="14" viewBox="0 0 15 14" fill="none" xmlns="http://www.w3.org/2000/svg">
<path fill-rule="evenodd" clip-rule="evenodd" d="M8.64749 9.59699C8.41607 9.85516 8.10223 10.0002 7.775 10.0002C7.44777 10.0002 7.13393 9.85516 6.90251 9.59699L3.41132 5.70101C3.23871 5.50833 3.12119 5.26284 3.07364 4.99561C3.02608 4.72838 3.05062 4.45141 3.14416 4.19974C3.2377 3.94808 3.39602 3.73303 3.5991 3.58181C3.80219 3.43059 4.0409 3.34998 4.28504 3.3502H11.265C11.5091 3.34998 11.7478 3.43059 11.9509 3.58181C12.154 3.73303 12.3123 3.94808 12.4058 4.19974C12.4994 4.45141 12.5239 4.72838 12.4764 4.99561C12.4288 5.26284 12.3113 5.50833 12.1387 5.70101L8.64749 9.59699Z" fill="white"/>
</svg>
