<svg width="12" height="12" viewBox="0 0 12 12" fill="none" xmlns="http://www.w3.org/2000/svg">
<path fill-rule="evenodd" clip-rule="evenodd" d="M7.08705 1C7.08705 0.447715 6.63934 0 6.08705 0C5.53477 0 5.08705 0.447715 5.08705 1V5.08683H1C0.447715 5.08683 0 5.53454 0 6.08683C0 6.63911 0.447715 7.08683 1 7.08683H5.08705V11C5.08705 11.5523 5.53477 12 6.08705 12C6.63934 12 7.08705 11.5523 7.08705 11V7.08683H11C11.5523 7.08683 12 6.63911 12 6.08683C12 5.53454 11.5523 5.08683 11 5.08683H7.08705V1Z" fill="#333333"/>
</svg>
