<svg width="24" height="24" viewBox="0 0 24 24" fill="none" xmlns="http://www.w3.org/2000/svg">
<path fill-rule="evenodd" clip-rule="evenodd" d="M5.25 3.75C4.14543 3.75 3.25 4.69064 3.25 5.85098V18.6455C3.25 20.3235 5.03029 21.3244 6.3594 20.3936L10.25 17.6689L14.1406 20.3936C15.4697 21.3244 17.25 20.3235 17.25 18.6455V15.9208C17.25 15.3406 16.8023 14.8703 16.25 14.8703C15.6977 14.8703 15.25 15.3406 15.25 15.9208V18.6455L11.3594 15.9208C10.6876 15.4503 9.8124 15.4503 9.1406 15.9208L5.25 18.6455V5.85098H9.75C10.3023 5.85098 10.75 5.38066 10.75 4.80049C10.75 4.22032 10.3023 3.75 9.75 3.75H5.25Z" fill="#111111"/>
<path d="M16.25 3.25C15.4216 3.25 14.75 3.92157 14.75 4.75V6.25H13.25C12.4216 6.25 11.75 6.92157 11.75 7.75C11.75 8.57843 12.4216 9.25 13.25 9.25H14.75V10.75C14.75 11.5784 15.4216 12.25 16.25 12.25C17.0784 12.25 17.75 11.5784 17.75 10.75V9.25H19.25C20.0784 9.25 20.75 8.57843 20.75 7.75C20.75 6.92157 20.0784 6.25 19.25 6.25H17.75V4.75C17.75 3.92157 17.0784 3.25 16.25 3.25Z" fill="#2149A6"/>
</svg>
