<svg width="28" height="28" viewBox="0 0 28 28" fill="none" xmlns="http://www.w3.org/2000/svg">
<path d="M0 5C0 2.23858 2.23858 0 5 0H23C25.7614 0 28 2.23858 28 5V23C28 25.7614 25.7614 28 23 28H5C2.23858 28 0 25.7614 0 23V5Z" fill="#1E4EBE"/>
<path fill-rule="evenodd" clip-rule="evenodd" d="M14.5 8C13.9872 8 13.5714 8.41577 13.5714 8.92857V13.5714H8.92857C8.64746 13.5714 8.39537 13.6963 8.22534 13.8936C8.08479 14.0563 8 14.2683 8 14.5C8 15.0128 8.41577 15.4286 8.92857 15.4286H13.5714V20.0714C13.5714 20.5842 13.9872 21 14.5 21C15.0128 21 15.4286 20.5842 15.4286 20.0714V15.4286H20.0714C20.5842 15.4286 21 15.0128 21 14.5C21 13.9872 20.5842 13.5714 20.0714 13.5714H15.4286V8.92857C15.4286 8.41577 15.0128 8 14.5 8Z" fill="white"/>
</svg>
