<svg width="16" height="16" viewBox="0 0 16 16" fill="none" xmlns="http://www.w3.org/2000/svg">
<path fill-rule="evenodd" clip-rule="evenodd" d="M7.99922 0C8.13255 0 8.25755 0.0209995 8.37422 0.0629994C8.49089 0.104333 8.59922 0.174999 8.69922 0.274999L12.2992 3.875C12.4826 4.05833 12.5742 4.29167 12.5742 4.575C12.5742 4.85833 12.4826 5.09167 12.2992 5.275C12.1159 5.45833 11.8786 5.55433 11.5872 5.563C11.2952 5.571 11.0576 5.48333 10.8742 5.3L8.99922 3.425L8.99922 10.575C8.99922 10.8583 8.90322 11.096 8.71122 11.288C8.51989 11.4793 8.28255 11.575 7.99922 11.575C7.71588 11.575 7.47822 11.4793 7.28622 11.288C7.09488 11.096 6.99922 10.8583 6.99922 10.575L6.99922 3.425L5.12422 5.3C4.94089 5.48333 4.70322 5.571 4.41122 5.563C4.11988 5.55433 3.88255 5.45833 3.69922 5.275C3.51589 5.09167 3.42422 4.85833 3.42422 4.575C3.42422 4.29167 3.51589 4.05833 3.69922 3.875L7.29922 0.274999C7.39922 0.174999 7.50755 0.104332 7.62422 0.0629993C7.74089 0.0209995 7.86589 0 7.99922 0ZM0.588 14.988C0.979333 15.3793 1.45 15.575 2 15.575H14C14.55 15.575 15.021 15.3793 15.413 14.988C15.8043 14.596 16 14.125 16 13.575V11.575C16 11.2917 15.904 11.054 15.712 10.862C15.5207 10.6707 15.2833 10.575 15 10.575C14.7167 10.575 14.4793 10.6707 14.288 10.862C14.096 11.054 14 11.2917 14 11.575V13.575H2V11.575C2 11.2917 1.90433 11.054 1.713 10.862C1.521 10.6707 1.28333 10.575 1 10.575C0.716667 10.575 0.479 10.6707 0.287 10.862C0.0956668 11.054 0 11.2917 0 11.575V13.575C0 14.125 0.196 14.596 0.588 14.988Z" fill="#C0C0C0"/>
</svg>
