<svg width="12" height="14" viewBox="0 0 12 14" fill="none" xmlns="http://www.w3.org/2000/svg">
<path d="M4.49953 13.0005C4.49931 13.1917 4.42611 13.3756 4.29487 13.5146C4.16364 13.6536 3.98427 13.7372 3.79343 13.7485C3.60258 13.7597 3.41466 13.6976 3.26806 13.5749C3.12146 13.4522 3.02724 13.2781 3.00466 13.0883L2.99941 13.0005L2.99941 2.81023L1.27953 4.53011C1.14455 4.66464 0.963429 4.74274 0.772952 4.74855C0.582475 4.75437 0.396926 4.68747 0.253991 4.56143C0.111056 4.4354 0.0214537 4.25968 0.00338213 4.06997C-0.0146895 3.88027 0.040124 3.69079 0.156692 3.54004L0.218947 3.46953L3.09167 0.596812C3.58971 0.0980233 4.42902 0.417548 4.49503 1.0941L4.49953 1.18036L4.49953 13.0005ZM11.7803 9.47C11.9095 9.59915 11.9871 9.77099 11.9985 9.95327C12.01 10.1356 11.9545 10.3158 11.8426 10.4601L11.7803 10.5306L8.90762 13.4033C8.40958 13.9021 7.57026 13.5826 7.50426 12.906L7.49976 12.8198L7.49976 0.999593C7.49997 0.808418 7.57317 0.62454 7.70441 0.485527C7.83565 0.346514 8.01501 0.26286 8.20586 0.251656C8.3967 0.240452 8.58463 0.302545 8.73123 0.425247C8.87783 0.547949 8.97204 0.722 8.99462 0.911836L8.99987 0.999593L8.99987 11.1899L10.7198 9.47C10.8604 9.32938 11.0512 9.25039 11.25 9.25039C11.4489 9.25039 11.6397 9.32938 11.7803 9.47Z" fill="#333333"/>
</svg>
