<svg width="20" height="20" viewBox="0 0 20 20" fill="none" xmlns="http://www.w3.org/2000/svg">
<path d="M15 0C14.45 0 14 0.45 14 1V2H6V1C6 0.45 5.55 0 5 0C4.45 0 4 0.45 4 1V2H3C1.89 2 1.01 2.9 1.01 4L1 18C1 19.1 1.89 20 3 20H17C18.1 20 19 19.1 19 18V4C19 2.9 18.1 2 17 2H16V1C16 0.45 15.55 0 15 0ZM17 18H3V8H17V18ZM9 11C9 10.45 9.45 10 10 10C10.55 10 11 10.45 11 11C11 11.55 10.55 12 10 12C9.45 12 9 11.55 9 11ZM5 11C5 10.45 5.45 10 6 10C6.55 10 7 10.45 7 11C7 11.55 6.55 12 6 12C5.45 12 5 11.55 5 11ZM13 11C13 10.45 13.45 10 14 10C14.55 10 15 10.45 15 11C15 11.55 14.55 12 14 12C13.45 12 13 11.55 13 11ZM9 15C9 14.45 9.45 14 10 14C10.55 14 11 14.45 11 15C11 15.55 10.55 16 10 16C9.45 16 9 15.55 9 15ZM5 15C5 14.45 5.45 14 6 14C6.55 14 7 14.45 7 15C7 15.55 6.55 16 6 16C5.45 16 5 15.55 5 15ZM13 15C13 14.45 13.45 14 14 14C14.55 14 15 14.45 15 15C15 15.55 14.55 16 14 16C13.45 16 13 15.55 13 15Z" fill="#C0C0C0"/>
</svg>
