<svg width="45" height="31" viewBox="0 0 45 31" fill="none" xmlns="http://www.w3.org/2000/svg">
<g clip-path="url(#clip0_47_611)">
<path d="M41.4967 0.797872V23.9468H28.2075C24.6084 23.9468 22.8727 26.6277 22.5 27.266V30.9894C22.5 30.9894 24.4806 27.0532 29.315 27.0532H45V0.797872H41.4967Z" fill="#5A9DFF"/>
<path d="M22.4255 6.1383V27.4149C22.4255 27.4149 20.743 23.9468 16.6434 23.9468H3.35424V0.797872H0V27.0638H15.685C20.5194 27.0638 22.5 31 22.5 31V6.34043C22.4787 6.26596 22.4468 6.21277 22.4255 6.1383Z" fill="#5A9DFF"/>
<path d="M22.4255 28.2128C22.3616 28.2128 22.3083 28.2128 22.2444 28.1915C21.8824 28.1064 21.6268 27.7872 21.6268 27.4149V5.68085C21.6268 5.59574 21.6375 5.52128 21.6588 5.43617C23.1283 0.776596 27.2492 0.0425532 27.4195 0.0106383C27.4621 0.0106383 27.5047 0 27.5473 0H41.486C41.9226 0 42.2847 0.361702 42.2847 0.797872V23.9468C42.2847 24.383 41.9226 24.7447 41.486 24.7447H28.1969C24.6403 24.7447 23.1496 27.734 23.1389 27.766C23.0005 28.0426 22.7236 28.2128 22.4255 28.2128ZM23.2241 5.80851V25.0957C24.2676 24.117 25.8862 23.1489 28.2075 23.1489H40.6981V1.59574H27.6325C27.1853 1.69149 24.3528 2.41489 23.2241 5.80851Z" fill="#3D33C1"/>
<path d="M22.4255 28.2128C22.1273 28.2128 21.8398 28.0426 21.712 27.766C21.6481 27.6277 20.168 24.7447 16.654 24.7447H3.35424C2.91765 24.7447 2.55561 24.383 2.55561 23.9468V0.797872C2.55561 0.361702 2.91765 0 3.35424 0H17.2929C17.2929 0 17.3781 0 17.4207 0.0106383C17.5911 0.0425532 21.712 0.776596 23.1815 5.44681C23.2028 5.52128 23.2134 5.60638 23.2134 5.69149V27.4255C23.2134 27.7979 22.9579 28.117 22.5958 28.2021C22.5319 28.2128 22.4787 28.2234 22.4148 28.2234L22.4255 28.2128ZM4.15286 23.1489H16.6434C18.9541 23.1489 20.5833 24.117 21.6268 25.0957V5.80851C20.5088 2.42553 17.6443 1.69149 17.2184 1.59574H4.15286V23.1489Z" fill="#3D33C1"/>
<path d="M35.7359 9.26596H29.7835V10.3298H35.7359V9.26596Z" fill="#3D33C1"/>
<path d="M35.7359 14.1383H29.7835V15.2021H35.7359V14.1383Z" fill="#3D33C1"/>
<path d="M16.2175 9.26596H10.2757V10.3298H16.2175V9.26596Z" fill="#3D33C1"/>
<path d="M16.2175 14.1383H10.2757V15.2021H16.2175V14.1383Z" fill="#3D33C1"/>
</g>
<defs>
<clipPath id="clip0_47_611">
<rect width="45" height="31" fill="white"/>
</clipPath>
</defs>
</svg>
