<svg width="71" height="70" viewBox="0 0 71 70" fill="none" xmlns="http://www.w3.org/2000/svg">
<rect x="0.999878" y="0.5" width="69" height="69" rx="29.5" fill="#FCFCFC"/>
<rect x="0.999878" y="0.5" width="69" height="69" rx="29.5" stroke="#E8E8E8"/>
<g clip-path="url(#clip0_1_794)">
<path d="M27.9066 54.5H16.1602C14.968 54.5 13.9999 53.5923 13.9999 52.475V17.525C13.9999 16.4077 14.968 15.5 16.1602 15.5H40.1423L48.5363 24.0365V29.0089H46.9065V24.658L39.4394 17.0637H16.1602C15.8692 17.0637 15.6298 17.2709 15.6298 17.525V52.4775C15.6298 52.7315 15.8666 52.9387 16.1602 52.9387H27.9066V54.5Z" fill="#3E30C5"/>
<path d="M29.6987 34.1219H19.886V35.6832H29.6987V34.1219Z" fill="#3E30C5"/>
<path d="M33.7644 37.7378H19.886V39.2991H33.7644V37.7378Z" fill="#3E30C5"/>
<path d="M33.7644 41.3537H19.886V42.9149H33.7644V41.3537Z" fill="#3E30C5"/>
<path d="M33.7644 34.1219H30.7132V35.6832H33.7644V34.1219Z" fill="#3E30C5"/>
<path d="M24.8014 24.1771V25.5065H22.8703V30.4444H21.2173V25.5065H19.281V24.1771H24.8014Z" fill="#00D8CA"/>
<path d="M28.8079 25.7482C28.741 25.6471 28.6431 25.5706 28.5144 25.5213C28.3856 25.472 28.226 25.4448 28.0303 25.4448C27.8526 25.4448 27.7059 25.467 27.5874 25.509C27.469 25.5509 27.3789 25.6126 27.3171 25.689C27.2579 25.7655 27.227 25.8518 27.227 25.9505C27.2218 26.1083 27.2888 26.2366 27.4304 26.3303C27.572 26.4265 27.796 26.5104 28.1076 26.5819L28.6431 26.6855C29.3229 26.8285 29.8224 27.0604 30.1443 27.381C30.4661 27.7017 30.6258 28.1062 30.6335 28.5995C30.6335 29.0064 30.5305 29.3517 30.3219 29.6354C30.1134 29.919 29.8173 30.1385 29.4336 30.289C29.0499 30.4395 28.5865 30.5159 28.0483 30.5159C27.5102 30.5159 27.0081 30.4345 26.5987 30.2693C26.1893 30.104 25.8752 29.8549 25.6537 29.5219C25.4323 29.189 25.319 28.7721 25.3087 28.269H26.918C26.9308 28.4589 26.9823 28.6217 27.0725 28.7549C27.1626 28.888 27.2913 28.9892 27.4535 29.0582C27.6158 29.1273 27.8063 29.1594 28.0277 29.1594C28.2157 29.1594 28.3779 29.1347 28.5092 29.0854C28.6405 29.036 28.7435 28.9694 28.8131 28.8856C28.8826 28.8017 28.9161 28.7055 28.9161 28.5945C28.9161 28.4909 28.8826 28.4021 28.8182 28.3257C28.7538 28.2492 28.6483 28.1826 28.5041 28.1234C28.3599 28.0642 28.1694 28.01 27.935 27.9606L27.2888 27.8176C26.7017 27.6967 26.2537 27.492 25.9447 27.2059C25.6331 26.9198 25.4786 26.5375 25.4786 26.0615C25.4786 25.6718 25.5868 25.3289 25.8056 25.0305C26.0245 24.732 26.3258 24.5002 26.7146 24.3349C27.1008 24.1697 27.5437 24.0858 28.0432 24.0858C28.5427 24.0858 28.9907 24.1697 29.3667 24.3349C29.7426 24.5002 30.0335 24.737 30.2395 25.0428C30.4455 25.3486 30.5485 25.7038 30.5485 26.1083H28.9367C28.9238 25.9677 28.8852 25.8469 28.8182 25.7457L28.8079 25.7482Z" fill="#00D8CA"/>
<path d="M31.3184 24.1771H34.04C34.5112 24.1771 34.9258 24.2683 35.2837 24.4508C35.6416 24.6334 35.9197 24.8899 36.1153 25.2253C36.311 25.5608 36.4089 25.9455 36.4089 26.3796C36.4089 26.8137 36.3085 27.2059 36.105 27.5339C35.9042 27.862 35.621 28.1136 35.2553 28.2936C34.8897 28.4737 34.4649 28.5625 33.9834 28.5625H32.3355V27.2725H33.6564C33.8649 27.2725 34.0452 27.2355 34.1945 27.164C34.3438 27.0924 34.4597 26.9889 34.537 26.8557C34.6142 26.7225 34.6528 26.5646 34.6528 26.3796C34.6528 26.1946 34.6142 26.0368 34.537 25.9036C34.4597 25.7704 34.3464 25.6693 34.1971 25.6002C34.0477 25.5312 33.8675 25.4966 33.6564 25.4966H32.9972V30.4419H31.3184V24.1746V24.1771Z" fill="#00D8CA"/>
<path d="M41.9937 33.4609C43.1627 31.5198 45.0758 31.5198 46.2448 33.4609L49.2471 38.4432C50.4161 40.3843 52.3292 43.5587 53.5007 45.4973L56.503 50.4772C57.6694 52.4183 56.7141 54.0042 54.3762 54.0042H33.8675C31.527 54.0042 30.5717 52.4183 31.7407 50.4772L34.7404 45.4973C35.9094 43.5587 37.8225 40.3843 38.9914 38.4432L41.9937 33.4609Z" fill="#00D8CA"/>
<path d="M45.0578 40.1796H43.1833V46.5259H45.0578V40.1796Z" fill="#F6F6F6"/>
<path d="M45.0578 47.9564H43.1833V50.2354H45.0578V47.9564Z" fill="#F6F6F6"/>
</g>
<defs>
<clipPath id="clip0_1_794">
<rect width="43" height="39" fill="white" transform="translate(13.9999 15.5)"/>
</clipPath>
</defs>
</svg>
