<svg width="54" height="51" viewBox="0 0 54 51" fill="none" xmlns="http://www.w3.org/2000/svg">
<g clip-path="url(#clip0_47_609)">
<path d="M42.0869 4.09534H1.17686V49.1747H42.0869V4.09534Z" fill="white"/>
<path d="M30.9255 14.0346H16.5751V16.2586H30.9255V14.0346Z" fill="#0E9DFF"/>
<path d="M9.54413 17.1943L6.97776 14.2647L8.26854 13.329L9.4682 14.7248L10.7742 13.0836L12.0953 13.9579L9.54413 17.1943Z" fill="#0E9DFF"/>
<path d="M9.54413 24.0198L6.97776 21.0902L8.26854 20.1546L9.4682 21.535L10.7742 19.9092L12.0953 20.7835L9.54413 24.0198Z" fill="#0E9DFF"/>
<path d="M9.54413 30.4926L6.97776 27.563L8.26854 26.6274L9.4682 28.0078L10.7742 26.382L12.0953 27.2562L9.54413 30.4926Z" fill="#0E9DFF"/>
<path d="M28.4198 20.8602H16.6206V23.0842H28.4198V20.8602Z" fill="#0E9DFF"/>
<path d="M25.0638 27.3176H16.6206V29.5417H25.0638V27.3176Z" fill="#0E9DFF"/>
<path d="M29.9688 0H14.4035V5.87459H29.9688V0Z" fill="#0E9DFF"/>
<path d="M32.8388 4.09534H41.6009C41.8895 4.09534 42.1021 4.2794 42.1021 4.44812V19.7405H44.3799V4.43278C44.3799 2.97564 43.1347 1.77925 41.6009 1.77925H32.8388C32.2162 1.77925 31.6999 2.30075 31.6999 2.92962C31.6999 3.5585 32.2162 4.08 32.8388 4.08V4.09534Z" fill="#3E30C5"/>
<path d="M20.8422 48.6992H2.78653C2.49801 48.6992 2.28541 48.5152 2.28541 48.3465V4.43278C2.28541 4.26406 2.48282 4.08 2.78653 4.08H11.7005C12.3231 4.08 12.8394 3.5585 12.8394 2.92962C12.8394 2.30075 12.3231 1.77925 11.7005 1.77925H2.78653C1.25279 1.77925 0.00756836 2.97564 0.00756836 4.43278V48.3311C0.00756836 49.7883 1.25279 50.9847 2.78653 50.9847H20.8422V48.6839V48.6992Z" fill="#3E30C5"/>
<path d="M27.2809 48.6532H23.7578V51H27.2809V48.6532Z" fill="#3E30C5"/>
<path d="M42.0717 25.5844C35.4811 25.5844 30.151 30.9835 30.151 37.625C30.151 44.2665 35.4963 49.6656 42.0717 49.6656C48.6471 49.6656 53.9924 44.2665 53.9924 37.625C53.9924 30.9835 48.6471 25.5844 42.0717 25.5844ZM42.1324 43.791L35.9215 36.5513L37.273 35.3549L42.0109 40.8614L47.0374 33.9591L48.48 35.0328L42.1172 43.7756L42.1324 43.791Z" fill="#0E9DFF"/>
</g>
<defs>
<clipPath id="clip0_47_609">
<rect width="54" height="51" fill="white"/>
</clipPath>
</defs>
</svg>
