<svg width="54" height="48" viewBox="0 0 54 48" fill="none" xmlns="http://www.w3.org/2000/svg">
<path fill-rule="evenodd" clip-rule="evenodd" d="M27 0C25.7582 0 24.5391 0.324308 23.4606 0.939342C22.3824 1.55425 21.4827 2.43806 20.8453 3.50245L22.9902 4.78684L20.8382 3.51431L0.976585 37.1015C0.969831 37.1129 0.963169 37.1244 0.956598 37.1359C0.332512 38.2307 0.00351052 39.4695 2.79391e-05 40.7294C-0.00345464 41.9893 0.318691 43.2299 0.936674 44.3282C1.55477 45.4266 2.44829 46.3459 3.53149 46.9915C4.61491 47.6373 5.84893 47.9858 7.11051 47.9998L7.13834 48H46.8617L46.8895 47.9998C48.1511 47.9858 49.3851 47.6373 50.4685 46.9915C51.5517 46.3459 52.4452 45.4266 53.0633 44.3282C53.6813 43.2299 54.0035 41.9893 54 40.7294C53.9965 39.4695 53.6675 38.2307 53.0434 37.1359C53.0368 37.1244 53.0302 37.1129 53.0234 37.1015L33.1618 3.51431L33.1618 3.51429L33.1547 3.50245C32.5173 2.43806 31.6176 1.55425 30.5394 0.939342C29.4609 0.324308 28.2418 0 27 0ZM25.135 6.07122L25.1379 6.06645C25.3363 5.73683 25.6127 5.46799 25.9377 5.28266C26.264 5.09656 26.6297 5 27 5C27.3703 5 27.736 5.09656 28.0623 5.28266C28.3873 5.46796 28.6636 5.73674 28.862 6.06627L28.865 6.07122L48.7076 39.6262C48.8974 39.9648 48.9989 40.3496 49 40.7432C49.0011 41.1423 48.8989 41.5331 48.7058 41.8762C48.5129 42.2191 48.2369 42.5009 47.9085 42.6966C47.5837 42.8902 47.2174 42.9939 46.8452 43H7.15484C6.7826 42.9939 6.41631 42.8902 6.09146 42.6966C5.76308 42.5009 5.48712 42.2191 5.29417 41.8762C5.1011 41.5331 4.99891 41.1423 5.00001 40.7432C5.0011 40.3496 5.1026 39.9648 5.29237 39.6263L25.135 6.07122ZM24.9413 21.8503C25.355 21.4494 25.9161 21.2241 26.5011 21.2241C27.0862 21.2241 27.6472 21.4494 28.0609 21.8503C28.4746 22.2512 28.707 22.795 28.707 23.3621V29.7758C28.707 30.3429 28.4746 30.8867 28.0609 31.2876C27.6472 31.6885 27.0862 31.9138 26.5011 31.9138C25.9161 31.9138 25.355 31.6885 24.9413 31.2876C24.5276 30.8867 24.2952 30.3429 24.2952 29.7758V23.3621C24.2952 22.795 24.5276 22.2512 24.9413 21.8503ZM28.013 34.635C27.6041 34.261 27.0634 34.0523 26.5011 34.0517L26.2386 34.0667C25.6803 34.131 25.1684 34.3996 24.8076 34.8174C24.4467 35.2353 24.2641 35.771 24.297 36.3149C24.33 36.8589 24.576 37.3702 24.9848 37.7442C25.3937 38.1183 25.9345 38.327 26.4967 38.3276L26.7592 38.3126C27.3175 38.2482 27.8294 37.9797 28.1903 37.5618C28.5511 37.144 28.7337 36.6083 28.7008 36.0643C28.6678 35.5204 28.4218 35.0091 28.013 34.635Z" fill="#FFB82E"/>
</svg>
