<svg width="158" height="90" viewBox="0 0 158 90" fill="none" xmlns="http://www.w3.org/2000/svg">
<path fill-rule="evenodd" clip-rule="evenodd" d="M117.743 34.177C109.166 46.0683 97.9174 59.599 80.8366 59.599V59.6235C68.9266 59.6235 52.4829 51.1576 52.4829 32.1706C52.4829 14.3091 67.2847 7.58049 75.9844 7.40922C85.7868 7.21347 93.8984 12.7432 96.3245 21.0867C116.248 0.166745 138.132 -0.95877 147.518 0.386959C148.572 0.533766 148.694 1.24333 147.64 1.31674C127.055 2.68693 115.415 14.2113 108.651 20.9888C108.138 21.5013 107.425 22.3277 106.542 23.3507C102.072 28.5314 93.2521 38.7525 84.0224 38.7525C78.582 39.0216 76.0824 35.8653 76.0824 35.8653C71.8673 31.6568 73.6318 26.3718 73.6318 26.3718C75.2737 20.7197 80.9346 20.3037 80.9346 20.3037C83.8509 20.0346 85.7623 20.8176 86.9876 21.7718C88.0659 22.5792 87.9679 21.6739 87.6003 21.0622C83.8509 14.7985 75.7883 16.2176 75.7883 16.2176C64.4419 18.5176 64.4174 30.2377 64.4174 30.2377C64.0498 41.5173 72.7496 45.579 72.7496 45.579C81.9394 50.5459 91.7664 46.0928 97.7459 41.6886C102.471 38.1954 107.015 33.1448 111.73 27.9045C117.847 21.1055 124.252 13.9873 131.711 9.53792C142.274 3.24969 151.733 2.73587 156.855 3.10288C157.884 3.17629 158.105 3.95926 157.1 4.10606C137.499 7.20503 125.016 24.248 117.802 34.0967L117.743 34.177Z" fill="#33BCC4"/>
<path fill-rule="evenodd" clip-rule="evenodd" d="M10.0374 1.31666C8.95918 1.26773 9.00819 0.533694 10.111 0.386887C18.4676 -0.812035 36.5777 -0.0290671 54.4672 14.6761C52.7518 17.0495 51.3549 19.692 50.3992 22.5058L50.092 22.173C49.6392 21.6821 49.2547 21.2653 48.9533 20.9643L48.7698 20.7825C42.6994 14.7692 30.3909 2.57616 10.0374 1.31666Z" fill="#F89C0E"/>
<path fill-rule="evenodd" clip-rule="evenodd" d="M56.5262 52.3763C51.9436 47.1157 49.1499 40.2647 49.1499 32.7531V31.75L48.3642 30.8529C41.7248 23.2697 34.5816 15.1111 26.2366 10.1449C15.7724 3.88114 6.41107 3.34285 1.24027 3.6854C0.0639702 3.78327 -0.132079 4.54177 1.01971 4.73752C20.4927 7.90483 32.919 24.8279 40.1376 34.6586L40.2296 34.784C44.7388 41.0233 49.7625 47.703 56.1341 52.6699C56.8693 53.2327 57.1389 53.0614 56.5262 52.3763Z" fill="#647DC7"/>
<path fill-rule="evenodd" clip-rule="evenodd" d="M5.11441 71.3311H2.05114V86.0607H5.11441V71.3311ZM8.37374 75.1236V86.0117H11.3145V79.1363C11.8291 78.3289 12.2947 77.815 12.7358 77.5459C13.1524 77.3012 13.5936 77.1544 13.9857 77.1544C14.2307 77.1544 14.4268 77.2278 14.6228 77.3257C14.7944 77.448 14.9414 77.5948 15.0639 77.815C15.1865 78.0352 15.2355 78.4267 15.2355 79.0384V86.0362H18.2007V78.3044C18.2007 77.1055 17.8821 76.2246 17.2695 75.6863C16.6568 75.1236 15.8971 74.8544 15.0394 74.8544C14.3778 74.8544 13.7161 75.0257 13.0789 75.3927C12.4418 75.7353 11.8536 76.347 11.3145 77.1789V75.1236H8.37374ZM29.302 85.816C28.0767 86.1341 26.9494 86.3054 25.9202 86.3054C24.0822 86.3054 22.6854 85.7426 21.7296 84.6415C20.7984 83.5405 20.3328 82.1948 20.3328 80.5799C20.3328 78.965 20.8229 77.5214 21.8031 76.4693C22.7834 75.4172 24.2537 74.8789 26.1652 74.8789C27.0475 74.8789 28.0522 75.0257 29.204 75.2949V77.4235C28.0277 77.0321 27.072 76.8363 26.3613 76.8363C25.3565 76.8363 24.6213 77.2278 24.1557 77.9863C23.6901 78.7693 23.4695 79.6012 23.4695 80.531C23.4695 81.2405 23.5921 81.9256 23.8617 82.5373C24.1312 83.149 24.4988 83.6139 24.9889 83.883C25.4546 84.1767 26.0182 84.299 26.6063 84.299C27.4641 84.299 28.3708 84.1033 29.302 83.7118V85.816ZM31.7526 70.3279V86.0118H34.6934V79.1363C35.208 78.3289 35.6736 77.815 36.1147 77.5459C36.5314 77.3012 36.9725 77.1544 37.3646 77.1544C37.6096 77.1544 37.8302 77.2278 38.0017 77.3257C38.1733 77.448 38.3448 77.5948 38.4428 77.815C38.5654 78.0353 38.6144 78.4267 38.6144 79.0384V86.0362H41.5796V78.3044C41.5796 77.1055 41.261 76.2246 40.6484 75.6863C40.0357 75.1236 39.276 74.8544 38.4183 74.8544C37.7567 74.8544 37.095 75.0257 36.4578 75.3927C35.8207 75.7353 35.2325 76.347 34.6934 77.1789V70.3279H31.7526ZM53.3426 85.6692C51.9457 86.0851 50.6224 86.2809 49.3726 86.2809C48.1963 86.2809 47.167 86.0607 46.2603 85.6203C45.3781 85.1798 44.6919 84.4947 44.2018 83.565C43.7362 82.6107 43.4911 81.6075 43.4911 80.5065C43.4911 79.4788 43.6872 78.5246 44.1038 77.6682C44.5204 76.8119 45.1085 76.1268 45.8927 75.6129C46.6769 75.1236 47.6327 74.8789 48.7599 74.8789C50.1568 74.8789 51.2596 75.3193 52.0928 76.2001C52.926 77.081 53.3426 78.7448 53.3426 81.1671H46.6279C46.6769 81.9012 46.8485 82.4884 47.118 82.9043C47.3876 83.3203 47.7307 83.6628 48.1963 83.9075C48.6374 84.1522 49.2501 84.2745 50.0343 84.2745C51.0145 84.2745 52.1173 84.0543 53.3426 83.5894V85.6692ZM50.4264 79.5033H46.5564C46.6323 78.6097 46.8763 77.9087 47.2406 77.448C47.5836 76.9831 48.0738 76.7385 48.6374 76.7385C49.152 76.7385 49.5932 76.9587 49.9117 77.3746C50.2548 77.7906 50.4264 78.5001 50.4264 79.5033ZM57.6557 85.6203C58.4889 86.0852 59.5182 86.3054 60.6945 86.3054C61.8953 86.3054 62.9 86.0852 63.7577 85.6203C64.5909 85.1554 65.2526 84.4947 65.6937 83.5894C66.1348 82.6841 66.3554 81.7054 66.3554 80.6044C66.3554 79.5033 66.1348 78.5246 65.6937 77.6193C65.2526 76.7384 64.5909 76.0534 63.7577 75.5885C62.9245 75.0991 61.8707 74.8789 60.6945 74.8789C59.5182 74.8789 58.4889 75.1236 57.6312 75.5885C56.798 76.0534 56.1363 76.7384 55.6952 77.6193C55.2541 78.5246 55.058 79.5033 55.058 80.6044C55.058 81.7054 55.2786 82.7086 55.7197 83.5894C56.1608 84.4947 56.798 85.1554 57.6557 85.6203ZM62.5814 83.3448C62.1648 84.0788 61.5277 84.4458 60.6945 84.4458C59.8857 84.4458 59.2486 84.0788 58.832 83.3448C58.4154 82.6107 58.1948 81.6809 58.1948 80.5799C58.1948 79.4788 58.3909 78.5735 58.832 77.8395C59.2486 77.1055 59.8612 76.7385 60.6945 76.7385C61.5277 76.7385 62.1648 77.1055 62.5814 77.8395C62.998 78.5491 63.2186 79.4788 63.2186 80.5799C63.2186 81.6809 62.998 82.6107 62.5814 83.3448ZM68.2669 86.0117V75.1236H71.2321V77.1789C71.7467 76.347 72.3594 75.7353 72.9966 75.3927C73.6337 75.0257 74.2954 74.8544 74.9571 74.8544C75.8148 74.8544 76.55 75.1236 77.1871 75.6863C77.7998 76.2246 78.1184 77.1055 78.1184 78.3044V86.0362H75.1776V79.0384C75.1776 78.4267 75.1286 78.0352 75.0061 77.815C74.9081 77.5948 74.7365 77.448 74.565 77.3257C74.3689 77.2278 74.1729 77.1544 73.9278 77.1544C73.5357 77.1544 73.0946 77.3012 72.6535 77.5459C72.2124 77.815 71.7467 78.3289 71.2321 79.1363V86.0117H68.2669ZM91.8908 71.3311L86.1564 86.0607H88.3619L89.8813 82.1458H95.9834L97.5273 86.0607H100.689L94.9541 71.3311H91.8908ZM95.2727 80.164H90.7145L92.9936 74.2917L95.2727 80.164ZM102.257 70.8172H105.198V73.264H102.257V70.8172ZM102.257 75.1236H105.198V86.0607H102.257V75.1236ZM108.334 75.1236V86.0852H111.3V79.1363C111.667 78.5246 112.108 78.0842 112.574 77.7906C113.04 77.497 113.579 77.3502 114.167 77.3502C114.535 77.3502 114.927 77.4236 115.343 77.5704V74.9523C115.147 74.9034 114.951 74.9034 114.78 74.9034C114.044 74.9034 113.358 75.0991 112.746 75.5151C112.133 75.931 111.643 76.4693 111.3 77.1789V75.1236H108.334ZM117.059 90V75.1236H120.024V77.2033C120.392 76.4204 120.882 75.8576 121.47 75.4661C122.058 75.0747 122.744 74.9034 123.553 74.9034C124.876 74.9034 125.905 75.3927 126.616 76.3959C127.351 77.3991 127.719 78.6959 127.719 80.3108C127.719 82.0235 127.327 83.4426 126.494 84.5926C125.685 85.7426 124.558 86.3054 123.087 86.3054C122.695 86.3054 122.352 86.2564 122.009 86.183C121.69 86.1096 121.372 85.9628 121.053 85.7915C120.759 85.6203 120.392 85.3511 119.999 84.9596V90H117.059ZM120.024 83.198C120.416 83.6628 120.808 83.9809 121.176 84.1522C121.519 84.3235 121.886 84.3969 122.254 84.3969C123.038 84.3969 123.602 84.0054 123.994 83.2224C124.386 82.4395 124.582 81.5586 124.582 80.5554C124.582 79.5523 124.386 78.6959 124.043 78.0842C123.675 77.497 123.161 77.2033 122.475 77.2033C122.058 77.2033 121.641 77.3502 121.2 77.6438C120.784 77.9374 120.392 78.3533 120.024 78.8672V83.198ZM131.909 85.6203C132.743 86.0852 133.772 86.3054 134.948 86.3054H134.973C136.173 86.3054 137.178 86.0852 138.036 85.6203C138.869 85.1554 139.531 84.4947 139.972 83.5894C140.413 82.6841 140.634 81.7054 140.634 80.6044C140.634 79.5033 140.413 78.5246 139.972 77.6193C139.531 76.7384 138.869 76.0534 138.036 75.5885C137.203 75.0991 136.149 74.8789 134.973 74.8789C133.796 74.8789 132.767 75.1236 131.909 75.5885C131.076 76.0534 130.415 76.7384 129.973 77.6193C129.532 78.5246 129.312 79.5033 129.312 80.6044C129.312 81.7054 129.532 82.7086 129.973 83.5894C130.415 84.4947 131.052 85.1554 131.909 85.6203ZM136.835 83.3448C136.419 84.0788 135.781 84.4458 134.948 84.4458C134.115 84.4458 133.502 84.0788 133.061 83.3448C132.645 82.6107 132.424 81.6809 132.424 80.5799C132.424 79.4788 132.645 78.5735 133.061 77.8395C133.502 77.1055 134.115 76.7385 134.948 76.7385C135.781 76.7385 136.419 77.1055 136.835 77.8395C137.252 78.5491 137.472 79.4788 137.472 80.5799C137.472 81.6809 137.252 82.6107 136.835 83.3448ZM142.521 75.1236H145.461V77.1789C145.804 76.4693 146.295 75.931 146.907 75.5151C147.52 75.0991 148.206 74.9034 148.941 74.9034C149.113 74.9034 149.309 74.9034 149.505 74.9523V77.5704C149.088 77.4236 148.696 77.3502 148.329 77.3502C147.74 77.3502 147.201 77.497 146.736 77.7906C146.27 78.0842 145.829 78.5246 145.461 79.1363V86.0852H142.521V75.1236ZM155.582 86.2809C155.999 86.2809 156.538 86.2075 157.249 85.9873L157.224 85.9628V84.1767C156.881 84.2501 156.563 84.299 156.318 84.299C155.778 84.299 155.362 84.1522 155.092 83.8831C154.823 83.6139 154.676 83.0756 154.676 82.2927V76.9587H157.028V75.0991H154.676V72.9215L151.71 73.264V75.1236H150.485V76.9831H151.71V82.7331C151.71 83.6384 151.857 84.3235 152.127 84.7884C152.397 85.2533 152.789 85.6203 153.328 85.8894C153.867 86.1341 154.627 86.2809 155.582 86.2809Z" fill="#ACACAC"/>
</svg>
