<svg width="15" height="16" viewBox="0 0 15 16" fill="none" xmlns="http://www.w3.org/2000/svg">
<rect x="0.5" y="1" width="14" height="14" rx="1.5" fill="white"/>
<rect x="0.5" y="1" width="14" height="14" rx="1.5" stroke="#B7B7B7" stroke-linejoin="round"/>
<path d="M9.83333 7H8.5H6.5H5.16667C4.98986 7 4.82029 7.07024 4.69526 7.19526C4.57024 7.32029 4.5 7.48986 4.5 7.66667V8.33333C4.5 8.51014 4.57024 8.67971 4.69526 8.80474C4.82029 8.92976 4.98986 9 5.16667 9H6.5H8.5H9.83333C10.0101 9 10.1797 8.92976 10.3047 8.80474C10.4298 8.67971 10.5 8.51014 10.5 8.33333V7.66667C10.5 7.48986 10.4298 7.32029 10.3047 7.19526C10.1797 7.07024 10.0101 7 9.83333 7Z" fill="#333333"/>
</svg>
