<svg width="18" height="22" viewBox="0 0 18 22" fill="none" xmlns="http://www.w3.org/2000/svg">
<path fill-rule="evenodd" clip-rule="evenodd" d="M9.66247 0C10.6921 0 11.6604 0.291992 12.4937 0.803955C12.6065 0.866455 12.7062 0.952515 12.7868 1.05701C12.8673 1.16138 12.9272 1.28198 12.9626 1.4115C12.9981 1.54102 13.0085 1.67676 12.9931 1.81067C12.9778 1.94458 12.937 2.07373 12.8733 2.19055C12.8096 2.30725 12.7243 2.40918 12.6225 2.49011C12.5206 2.57104 12.4044 2.62927 12.2808 2.66138C12.1571 2.69348 12.0287 2.69873 11.9031 2.67688C11.7775 2.65491 11.6574 2.60632 11.55 2.53406C10.9759 2.18286 10.3248 1.99805 9.66201 1.99805C8.99922 1.99817 8.34813 2.18323 7.7742 2.53442C7.20029 2.88574 6.72377 3.39099 6.39256 3.99939C6.06137 4.60767 5.88718 5.29773 5.8875 6H5.89V8H13C15.7614 8 18 10.2386 18 13V17C18 19.7614 15.7614 22 13 22H5C2.23858 22 0 19.7614 0 17V13C0 10.581 1.71776 8.56329 4 8.10002V6C4 4.40869 4.59657 2.88257 5.65849 1.75732C6.72041 0.63208 8.16069 0 9.66247 0ZM13 10H5C3.34315 10 2 11.3431 2 13V17C2 18.6569 3.34315 20 5 20H13C14.6569 20 16 18.6569 16 17V13C16 11.3431 14.6569 10 13 10ZM14.9249 2.41849C14.4233 2.18736 13.8294 2.40662 13.5982 2.90822L13.4185 3.2983C13.1874 3.7999 13.4066 4.39389 13.9082 4.62501C14.4098 4.85614 15.0038 4.63688 15.2349 4.13528L15.4147 3.7452C15.6458 3.2436 15.4265 2.64961 14.9249 2.41849ZM16.0206 5.29807C16.5615 5.40966 16.9095 5.9386 16.7979 6.4795C16.6863 7.02039 16.1574 7.36841 15.6165 7.25681L14.6371 7.05476C14.0962 6.94316 13.7482 6.41422 13.8598 5.87333C13.9714 5.33243 14.5004 4.98442 15.0413 5.09601L16.0206 5.29807ZM10 14C10 13.4477 9.55229 13 9 13C8.44772 13 8 13.4477 8 14V16C8 16.5523 8.44772 17 9 17C9.55229 17 10 16.5523 10 16V14Z" fill="#111111"/>
</svg>
