<svg width="28" height="28" viewBox="0 0 28 28" fill="none" xmlns="http://www.w3.org/2000/svg">
<path fill-rule="evenodd" clip-rule="evenodd" d="M13.5 7C12.9872 7 12.5714 7.41577 12.5714 7.92857V12.5714H7.92857C7.64746 12.5714 7.39537 12.6963 7.22534 12.8936C7.08479 13.0563 7 13.2683 7 13.5C7 14.0128 7.41577 14.4286 7.92857 14.4286H12.5714V19.0714C12.5714 19.5842 12.9872 20 13.5 20C14.0128 20 14.4286 19.5842 14.4286 19.0714V14.4286H19.0714C19.5842 14.4286 20 14.0128 20 13.5C20 12.9872 19.5842 12.5714 19.0714 12.5714H14.4286V7.92857C14.4286 7.41577 14.0128 7 13.5 7Z" fill="black"/>
</svg>
