<svg width="15" height="14" viewBox="0 0 15 14" fill="none" xmlns="http://www.w3.org/2000/svg">
<path fill-rule="evenodd" clip-rule="evenodd" d="M6.35251 4.40301C6.58393 4.14484 6.89777 3.9998 7.225 3.9998C7.55223 3.9998 7.86607 4.14484 8.09749 4.40301L11.5887 8.29899C11.7613 8.49167 11.8788 8.73716 11.9264 9.00439C11.9739 9.27162 11.9494 9.54859 11.8558 9.80026C11.7623 10.0519 11.604 10.267 11.4009 10.4182C11.1978 10.5694 10.9591 10.65 10.715 10.6498H3.73504C3.4909 10.65 3.25219 10.5694 3.0491 10.4182C2.84602 10.267 2.6877 10.0519 2.59416 9.80026C2.50062 9.54859 2.47608 9.27162 2.52364 9.00439C2.57119 8.73716 2.68871 8.49167 2.86132 8.29899L6.35251 4.40301Z" fill="white"/>
</svg>
