<svg width="22" height="22" viewBox="0 0 22 22" fill="none" xmlns="http://www.w3.org/2000/svg">
<rect width="22" height="22" rx="5" fill="white"/>
<g clip-path="url(#clip0_1456_4806)">
<path d="M5.76858 11.7119C5.86674 11.6136 5.98329 11.5357 6.1116 11.4825C6.2399 11.4293 6.37742 11.4019 6.51631 11.4019C6.6552 11.4019 6.79272 11.4293 6.92102 11.4825C7.04932 11.5357 7.16588 11.6136 7.26404 11.7119L9.94318 14.3921V5.05686C9.94318 4.77656 10.0545 4.50775 10.2527 4.30955C10.4509 4.11135 10.7197 4 11 4C11.2803 4 11.5492 4.11135 11.7474 4.30955C11.9456 4.50775 12.0569 4.77656 12.0569 5.05686V14.3921L14.7371 11.7119C14.8353 11.6138 14.9518 11.536 15.0801 11.4829C15.2084 11.4298 15.3459 11.4025 15.4847 11.4026C15.6235 11.4026 15.7609 11.43 15.8892 11.4832C16.0174 11.5363 16.1339 11.6142 16.232 11.7124C16.3301 11.8106 16.408 11.9272 16.461 12.0555C16.5141 12.1837 16.5414 12.3212 16.5414 12.46C16.5413 12.5988 16.5139 12.7363 16.4608 12.8645C16.4076 12.9927 16.3297 13.1092 16.2315 13.2074L11.7472 17.6906C11.549 17.8887 11.2803 18 11 18C10.7198 18 10.451 17.8887 10.2528 17.6906L5.76858 13.2074C5.67032 13.1092 5.59236 12.9927 5.53918 12.8644C5.48599 12.7361 5.45862 12.5985 5.45862 12.4596C5.45862 12.3207 5.48599 12.1832 5.53918 12.0549C5.59236 11.9266 5.67032 11.8101 5.76858 11.7119Z" fill="#333333"/>
</g>
<defs>
<clipPath id="clip0_1456_4806">
<rect width="22" height="22" fill="white"/>
</clipPath>
</defs>
</svg>
