<svg width="20" height="20" viewBox="0 0 20 20" fill="none" xmlns="http://www.w3.org/2000/svg">
<g clip-path="url(#clip0_631_2)">
<path fill-rule="evenodd" clip-rule="evenodd" d="M11.6667 4.16667C8.90524 4.16667 6.66667 6.40524 6.66667 9.16667C6.66667 11.9281 8.90524 14.1667 11.6667 14.1667C14.4281 14.1667 16.6667 11.9281 16.6667 9.16667C16.6667 6.40524 14.4281 4.16667 11.6667 4.16667ZM5 9.16667C5 5.48477 7.98477 2.5 11.6667 2.5C15.3486 2.5 18.3333 5.48477 18.3333 9.16667C18.3333 10.7073 17.8108 12.1258 16.9332 13.2547L19.7559 16.0774C20.0814 16.4028 20.0814 16.9305 19.7559 17.2559C19.4305 17.5814 18.9028 17.5814 18.5774 17.2559L15.7547 14.4332C14.6258 15.3108 13.2073 15.8333 11.6667 15.8333C7.98477 15.8333 5 12.8486 5 9.16667Z" fill="#646464"/>
</g>
<defs>
<clipPath id="clip0_631_2">
<rect width="20" height="20" fill="white"/>
</clipPath>
</defs>
</svg>
