<svg width="16" height="16" viewBox="0 0 16 16" fill="none" xmlns="http://www.w3.org/2000/svg">
<g clip-path="url(#clip0_47_595)">
<path fill-rule="evenodd" clip-rule="evenodd" d="M16 8C16 12.4183 12.4183 16 8 16C3.58172 16 0 12.4183 0 8C0 3.58172 3.58172 0 8 0C12.4183 0 16 3.58172 16 8ZM11.6113 11.5957L10.6621 10.5059C11.3965 9.72461 11.7637 8.77148 11.7637 7.64648C11.7637 6.54883 11.3887 5.625 10.6387 4.875C9.89258 4.125 8.97266 3.75 7.87891 3.75C6.71094 3.75 5.77148 4.14453 5.06055 4.93359C4.35352 5.71875 4 6.59961 4 7.57617C4 8.75977 4.36328 9.73047 5.08984 10.4883C5.82031 11.2422 6.75391 11.6191 7.89062 11.6191C8.40234 11.6191 8.98242 11.5 9.63086 11.2617L10.4922 12.3047L11.6113 11.5957ZM7.73242 9.04102L8.54688 10.002C8.24609 10.0488 7.98633 10.0723 7.76758 10.0723C7.18164 10.0723 6.69727 9.8457 6.31445 9.39258C5.93164 8.93555 5.74023 8.35352 5.74023 7.64648C5.74023 6.95117 5.93945 6.38477 6.33789 5.94727C6.73633 5.50586 7.25 5.28516 7.87891 5.28516C8.52734 5.28516 9.04688 5.50781 9.4375 5.95312C9.82812 6.39453 10.0234 6.98828 10.0234 7.73438C10.0234 8.38281 9.87109 8.875 9.56641 9.21094L8.82227 8.33203L7.73242 9.04102Z" fill="#00AAB4"/>
</g>
<defs>
<clipPath id="clip0_47_595">
<rect width="16" height="16" fill="white"/>
</clipPath>
</defs>
</svg>
