<svg width="30" height="30" viewBox="0 0 30 30" fill="none" xmlns="http://www.w3.org/2000/svg">
<rect x="0.5" y="0.5" width="29" height="29" rx="5.5" fill="#FEF0F0"/>
<rect x="0.5" y="0.5" width="29" height="29" rx="5.5" stroke="#EE2E5B"/>
<path d="M20.1875 7.84375V18.0938H18.7031V12.8281H16.0312V11.625H18.7031V7.84375H20.1875ZM20.5625 20.3281V21.5312H11.0938V17.1719H12.5781V20.3281H20.5625ZM13.5312 10.6719C13.5312 12.4219 14.7969 14.1719 16.9062 14.875L16.1406 16.0625C14.5703 15.5078 13.4062 14.3828 12.7969 13C12.1875 14.5391 10.9609 15.7812 9.29688 16.375L8.53125 15.1719C10.6875 14.4375 12.0156 12.5938 12.0156 10.6719V10.125H8.98438V8.90625H16.5312V10.125H13.5312V10.6719Z" fill="#333333"/>
</svg>
