<svg width="60" height="53" viewBox="0 0 60 53" fill="none" xmlns="http://www.w3.org/2000/svg">
<g clip-path="url(#clip0_47_608)">
<path d="M40.0292 5.38901H1.62186V46.44H40.0292V5.38901Z" fill="white"/>
<path d="M28.1367 0H13.5176V5.35461H28.1367V0Z" fill="#3E30C5"/>
<path d="M30.8217 3.72508H39.0491C39.3205 3.72508 39.512 3.89398 39.512 4.04411V17.3743H41.6511V4.04411C41.6511 2.71171 40.4858 1.62953 39.0491 1.62953H30.8217C30.231 1.62953 29.7522 2.09868 29.7522 2.6773C29.7522 3.25593 30.231 3.72508 30.8217 3.72508Z" fill="#3E30C5"/>
<path d="M2.60519 44.3475C2.33062 44.3475 2.13906 44.1786 2.13906 44.0285V4.04411C2.13906 3.89398 2.33062 3.72508 2.60519 3.72508H10.9795C11.5701 3.72508 12.049 3.25593 12.049 2.6773C12.049 2.09868 11.5701 1.62953 10.9795 1.62953H2.60519C1.1685 1.62953 0 2.71171 0 4.04411V44.0285C0 45.3609 1.1685 46.4431 2.60519 46.4431H17.7447V44.3475H2.60519Z" fill="#3E30C5"/>
<path d="M20.7507 33.3361L17.1589 31.2656L27.0274 14.6919L30.6191 16.7625L20.7507 33.3361Z" fill="#00D8CA"/>
<path d="M27.0242 14.6919L30.6159 16.7625L20.7507 33.3361L17.1589 31.2656L27.0242 14.6919ZM27.2349 14.3385C27.0401 14.2259 26.7879 14.2947 26.673 14.4886L16.8078 31.0623C16.6928 31.2562 16.7535 31.5064 16.9482 31.619L20.5399 33.6895C20.6325 33.7427 20.7443 33.7584 20.8496 33.7302C20.955 33.7021 21.0444 33.6332 21.1018 33.5394L30.9671 16.9658C31.0214 16.8719 31.0405 16.7593 31.0118 16.6561C30.983 16.5529 30.9192 16.4622 30.8234 16.409L27.2317 14.3385H27.2349Z" fill="#00D8CA"/>
<path d="M32.7518 13.2438L29.1601 11.1733L27.867 13.3439L31.4588 15.4144L32.7518 13.2438Z" fill="#00D8CA"/>
<path d="M29.1601 11.1733L32.7518 13.2438L31.4588 15.4144L27.867 13.3439L29.1601 11.1733ZM29.3708 10.8199C29.176 10.7073 28.9238 10.7761 28.8089 10.97L27.5159 13.1406C27.4616 13.2344 27.4424 13.347 27.4712 13.4502C27.4999 13.5535 27.5637 13.6442 27.6595 13.6973L31.2512 15.7679C31.3438 15.821 31.4556 15.8367 31.5609 15.8085C31.6663 15.7804 31.7557 15.7116 31.8131 15.6177L33.1061 13.4471C33.2211 13.2532 33.1604 13.003 32.9657 12.8904L29.374 10.8199H29.3708Z" fill="#00D8CA"/>
<path d="M19.978 34.5841L16.3863 32.5135L15.8372 35.4629L17.6347 36.4951L19.978 34.5841Z" fill="#00D8CA"/>
<path d="M16.3863 32.5135L19.978 34.5841L17.6347 36.4951L15.8372 35.4598L16.3863 32.5135ZM16.597 32.1601C16.4821 32.0944 16.3416 32.0882 16.2171 32.1445C16.0958 32.2008 16.0064 32.3134 15.9841 32.4447L15.4349 35.391C15.403 35.5599 15.4796 35.7257 15.6265 35.8101L17.4239 36.8454C17.5708 36.9298 17.756 36.9142 17.8901 36.8047L20.2335 34.8937C20.3388 34.8093 20.3963 34.6779 20.3867 34.5434C20.3771 34.4089 20.3037 34.2901 20.1888 34.2244L16.597 32.1538V32.1601Z" fill="#00D8CA"/>
<path d="M16.9195 37.6179L15.1252 36.5827L14.5761 39.5289L16.9195 37.6179Z" fill="#00D8CA"/>
<path d="M15.1252 36.5827L16.9227 37.6179L14.5793 39.5289L15.1284 36.5827M15.336 36.2292C15.221 36.1635 15.0805 36.1573 14.956 36.2136C14.8347 36.2699 14.7453 36.3825 14.723 36.5138L14.1738 39.4601C14.1419 39.629 14.2185 39.7948 14.3654 39.8792C14.5123 39.9637 14.6974 39.9481 14.8315 39.8386L17.1749 37.9276C17.2803 37.8431 17.3377 37.7118 17.3282 37.5773C17.3186 37.4428 17.2451 37.3239 17.1302 37.2582L15.3328 36.223L15.336 36.2292Z" fill="#00D8CA"/>
<path d="M19.1667 18.7078H5.83333V20.9316H19.1667V18.7078Z" fill="#00D8CA"/>
<path d="M16.6667 24.0156H5.83333V26.5H16.6667V24.0156Z" fill="#00D8CA"/>
<path d="M23.3333 13.25H5.83333V15.7344H23.3333V13.25Z" fill="#00D8CA"/>
<path d="M31.3971 35.1779L51.7961 35.2894H51.8019C52.1058 35.2894 52.3921 35.1612 52.5908 34.9382C52.7836 34.7152 52.8654 34.4142 52.807 34.1299L51.6032 28.2208C51.352 27.2285 50.756 24.915 48.6816 24.915H34.5291C32.519 24.915 31.9055 27.1337 31.6133 28.204C31.6133 28.2208 31.6016 28.2431 31.6016 28.2598L30.4038 34.0128C30.3453 34.2971 30.4213 34.5926 30.6141 34.8211C30.807 35.0441 31.0933 35.1779 31.403 35.1779H31.3971ZM33.6001 28.6667C34.0558 27.0389 34.4006 26.8606 34.535 26.8606H48.6874C48.8627 26.8606 49.2192 27.0947 49.6107 28.6333L50.5631 33.3271L32.6476 33.2268L33.6001 28.6667Z" fill="#3E30C5"/>
<path d="M57.2011 34.3696L56.2252 34.1689L54.1275 25.1325C53.812 24.0566 53.0757 21.5312 50.6683 21.5312H32.5482C30.2226 21.5312 29.4629 23.9506 29.0948 25.1102C29.089 25.1325 29.0773 25.1603 29.0714 25.1882L27.0497 34.2135L26.1498 34.3585C24.5195 34.6372 23.3333 35.9862 23.3333 37.5639V43.6904C23.3333 46.0707 25.0629 48.072 27.3827 48.6183V50.837C27.3827 52.03 28.3995 53 29.6499 53H33.2611C34.5116 53 35.5283 52.03 35.5283 50.837V48.7744H47.2266V50.837C47.2266 52.03 48.2433 53 49.4938 53H53.1049C54.3554 53 55.3721 52.03 55.3721 50.837V48.7744C57.9256 48.7466 60 46.7564 60 44.3147V37.5639C60 35.9862 58.8255 34.6428 57.2011 34.3585V34.3696ZM33.4831 50.8482C33.4831 50.9653 33.3838 51.06 33.2611 51.06H29.6499C29.5272 51.06 29.4279 50.9653 29.4279 50.8482V48.9751H33.4773V50.8482H33.4831ZM53.327 50.8482C53.327 50.9653 53.2276 51.06 53.1049 51.06H49.4938C49.371 51.06 49.2717 50.9653 49.2717 50.8482V48.9751H53.3211V50.8482H53.327ZM57.9548 44.3203C57.9548 45.7028 56.7745 46.8289 55.3254 46.8289H28.6683C26.8568 46.8289 25.3843 45.4241 25.3843 43.696V37.5694C25.3843 36.9339 25.8576 36.3932 26.5062 36.2873L28.0839 36.0308C28.4988 35.9639 28.826 35.6629 28.9137 35.2727L31.0699 25.6397C31.549 24.129 31.9931 23.4879 32.5482 23.4879H50.6741C51.0948 23.4879 51.6032 23.7444 52.1466 25.6063L54.3729 35.2058C54.4606 35.5793 54.7644 35.8692 55.1559 35.9472L56.792 36.2817C56.792 36.2817 56.8154 36.2817 56.8271 36.2873C57.4815 36.3988 57.9548 36.9395 57.9548 37.575V44.3259V44.3203Z" fill="#3E30C5"/>
<path d="M31.6426 37.1902C29.4163 37.1902 27.6107 38.9183 27.6107 41.0367C27.6107 43.155 29.4221 44.8832 31.6426 44.8832C33.863 44.8832 35.6744 43.155 35.6744 41.0367C35.6744 38.9183 33.863 37.1902 31.6426 37.1902ZM31.6426 42.9376C30.544 42.9376 29.6558 42.0847 29.6558 41.0422C29.6558 39.9998 30.5499 39.1469 31.6426 39.1469C32.7352 39.1469 33.6293 39.9998 33.6293 41.0422C33.6293 42.0847 32.7352 42.9376 31.6426 42.9376Z" fill="#3E30C5"/>
<path d="M51.0482 37.1902C48.8219 37.1902 47.0164 38.9183 47.0164 41.0367C47.0164 43.155 48.8278 44.8832 51.0482 44.8832C53.2687 44.8832 55.0801 43.155 55.0801 41.0367C55.0801 38.9183 53.2687 37.1902 51.0482 37.1902ZM51.0482 42.9376C49.9497 42.9376 49.0615 42.0847 49.0615 41.0422C49.0615 39.9998 49.9555 39.1469 51.0482 39.1469C52.1409 39.1469 53.0349 39.9998 53.0349 41.0422C53.0349 42.0847 52.1409 42.9376 51.0482 42.9376Z" fill="#3E30C5"/>
</g>
<defs>
<clipPath id="clip0_47_608">
<rect width="60" height="53" fill="white"/>
</clipPath>
</defs>
</svg>
