<svg width="54" height="54" viewBox="0 0 54 54" fill="none" xmlns="http://www.w3.org/2000/svg">
<path fill-rule="evenodd" clip-rule="evenodd" d="M19.7374 19.7373C19.1645 20.3103 19.1645 21.2394 19.7374 21.8124L24.925 26.9999L19.7374 32.1875C19.4233 32.5016 19.2812 32.9228 19.3116 33.3332C19.3365 33.6721 19.4786 34.0036 19.7374 34.2625C20.3104 34.8355 21.2395 34.8355 21.8124 34.2625L27 29.0749L32.1875 34.2625C32.7605 34.8355 33.6896 34.8355 34.2625 34.2625C34.8355 33.6895 34.8355 32.7604 34.2625 32.1875L29.075 26.9999L34.2625 21.8124C34.8355 21.2394 34.8355 20.3103 34.2625 19.7373C33.6896 19.1644 32.7605 19.1644 32.1875 19.7373L27 24.9249L21.8124 19.7373C21.2395 19.1644 20.3104 19.1644 19.7374 19.7373Z" fill="#F93232"/>
<path fill-rule="evenodd" clip-rule="evenodd" d="M19.5199 22.03C18.8268 21.3369 18.8268 20.213 19.5199 19.5198C20.213 18.8267 21.337 18.8267 22.0301 19.5198L27 24.4898L31.97 19.5198C32.6631 18.8267 33.787 18.8267 34.4802 19.5198C35.1733 20.213 35.1733 21.3369 34.4802 22.03L29.5102 27L34.4802 31.97C35.1733 32.6631 35.1733 33.787 34.4802 34.4802C33.787 35.1733 32.6631 35.1733 31.97 34.4802L27 29.5102L22.0301 34.4802C21.337 35.1733 20.213 35.1733 19.5199 34.4802C19.207 34.1672 19.0349 33.7656 19.0048 33.3557C19.0048 33.3556 19.0048 33.3558 19.0048 33.3557C18.9682 32.8598 19.1401 32.3499 19.5199 31.97L24.4899 27L24.7075 27.2176L24.925 26.9999L24.7075 26.7824L24.4899 27L19.5199 22.03ZM26.7825 29.2926L27 29.0749L27.2176 29.2926M29.2926 27.2176L29.075 26.9999L34.2625 21.8124C34.8355 21.2394 34.8355 20.3103 34.2625 19.7373C33.6896 19.1644 32.7605 19.1644 32.1875 19.7373L27 24.9249L26.7825 24.7074" fill="#F93232"/>
<path fill-rule="evenodd" clip-rule="evenodd" d="M27 49C39.1503 49 49 39.1503 49 27C49 14.8497 39.1503 5 27 5C14.8497 5 5 14.8497 5 27C5 39.1503 14.8497 49 27 49ZM27 54C41.9117 54 54 41.9117 54 27C54 12.0883 41.9117 0 27 0C12.0883 0 0 12.0883 0 27C0 41.9117 12.0883 54 27 54Z" fill="#E33535"/>
</svg>
