<svg width="15" height="21" viewBox="0 0 15 21" fill="none" xmlns="http://www.w3.org/2000/svg">
<path d="M8.59688 0.5H1.875C0.84375 0.5 0 1.4 0 2.5V18.5C0 19.6 0.84375 20.5 1.875 20.5H13.125C14.1562 20.5 15 19.6 15 18.5V7.33C15 6.8 14.8031 6.29 14.4469 5.92L9.91875 1.09C9.57187 0.71 9.09375 0.5 8.59688 0.5ZM11.25 13.5C11.25 15.84 9.36562 17.71 7.13437 17.48C5.18437 17.28 3.75 15.42 3.75 13.33V8.14C3.75 6.83 4.63125 5.64 5.85 5.51C7.25625 5.36 8.4375 6.53 8.4375 8V12.5C8.4375 13.05 8.01562 13.5 7.5 13.5C6.98438 13.5 6.5625 13.05 6.5625 12.5V8C6.5625 7.72 6.35625 7.5 6.09375 7.5C5.83125 7.5 5.625 7.72 5.625 8V13.39C5.625 14.39 6.2625 15.31 7.18125 15.47C8.3625 15.68 9.375 14.71 9.375 13.5V10.5C9.375 9.95 9.79688 9.5 10.3125 9.5C10.8281 9.5 11.25 9.95 11.25 10.5V13.5ZM9.375 5.5V2.5L13.125 6.5H10.3125C9.79688 6.5 9.375 6.05 9.375 5.5Z" fill="black"/>
</svg>
