<svg width="71" height="70" viewBox="0 0 71 70" fill="none" xmlns="http://www.w3.org/2000/svg">
<rect x="1" y="0.5" width="69" height="69" rx="29.5" fill="#FCFCFC" stroke="#E8E8E8"/>
<path d="M33.4176 34.9141H23.7209V36.2759H33.4176V34.9141Z" fill="#3E30C5"/>
<path d="M31.1491 43.1797H23.7209V44.5415H31.1491V43.1797Z" fill="#3E30C5"/>
<path d="M38.5772 26.4585H23.7209V27.8203H38.5772V26.4585Z" fill="#3E30C5"/>
<path d="M38.5772 30.681H23.7209V32.0428H38.5772V30.681Z" fill="#3E30C5"/>
<path d="M52.4205 52.3321H37.8281V54H52.4205V52.3321Z" fill="#0E9DFF"/>
<path d="M53.7922 46.8534C53.5812 46.0933 53.2435 45.4177 52.7793 44.8476C51.893 43.7603 50.5952 43.2114 49.4345 42.8103C49.1496 42.7153 48.8647 42.6203 48.5904 42.5358C48.3794 42.4725 48.1789 42.3986 47.9679 42.3352C47.9995 42.0924 48.0839 41.6807 48.2844 40.9418C48.3055 40.8679 48.3161 40.8151 48.3266 40.794L48.3583 40.6462C48.4216 40.3506 48.4321 40.3401 48.506 40.2979C48.6115 40.2345 48.717 40.1817 48.8225 40.129C49.2974 39.8756 49.7933 39.6117 50.2364 39.1261C50.7956 38.5033 51.1966 37.6588 51.3338 36.8037C51.5237 35.6214 51.2282 34.4391 50.5319 33.4679C49.8249 32.4967 48.7909 31.8633 47.6091 31.6839C47.377 31.6522 47.1449 31.6311 46.9128 31.6311C44.697 31.6311 42.8294 33.2251 42.4917 35.4208C42.344 36.3498 42.4917 37.2893 42.9244 38.1444C43.1248 38.535 43.3886 38.9044 43.7263 39.2633C43.8529 39.4006 43.99 39.485 44.1061 39.5589C44.1378 39.58 44.1694 39.6011 44.1905 39.6117C44.1905 39.675 44.1694 39.7806 44.1589 39.8545C44.1483 39.9389 44.1272 40.0234 44.1272 40.1078C44.0744 40.6357 44.0006 41.1635 43.8951 41.7124C43.6629 41.7124 43.4414 41.7124 43.2092 41.7019C42.9455 41.7019 42.6817 41.6913 42.4179 41.6913C41.3733 41.6913 40.2549 41.7652 39.1681 42.3352C38.4189 42.7258 37.7542 43.2959 37.2583 43.9715C37.2477 43.9926 36.0449 45.9983 36.3087 46.6317C36.4036 46.8534 36.6041 47.0117 36.8362 47.0539C36.8573 47.0539 37.1844 47.1067 37.7437 47.2017L37.5537 48.3946L52.0829 50.6748L52.2728 49.4819C53.1275 49.6191 53.1802 49.6297 53.1802 49.6297C53.1802 49.6297 53.2541 49.6297 53.2858 49.6297C53.4968 49.6297 53.7078 49.5241 53.8344 49.3552C54.2248 48.8485 53.8028 46.885 53.7922 46.8639V46.8534Z" fill="#0E9DFF"/>
<path d="M34.7998 52.4165H18.5825V18.5835H48.8753V29.6782H50.458V17.7917C50.458 17.3589 50.0993 17 49.6666 17H17.7911C17.3585 17 16.9998 17.3589 16.9998 17.7917V53.2083C16.9998 53.6411 17.3585 54 17.7911 54H34.7998V52.4165Z" fill="#3E30C5"/>
</svg>
