<svg width="27" height="34" viewBox="0 0 27 34" fill="none" xmlns="http://www.w3.org/2000/svg">
<g clip-path="url(#clip0_47_612)">
<path d="M27 34H5.29944C1.56871 33.7387 0.211173 31.1457 0 29.8191V4.25126H1.50838V29.6382C1.58883 30 2.19218 32.2714 5.35978 32.5025H25.4916V7.18593H27V34Z" fill="#3D33C1"/>
<path d="M26.2458 7.9397H4.20335C1.88045 7.9397 0 6.1608 0 3.96985C0 1.77889 1.88045 0 4.20335 0H26.2458C26.5575 0 26.8391 0.201005 26.9497 0.492462C27.0603 0.78392 26.9698 1.11558 26.7385 1.32663C25.8034 2.1206 25.3307 2.97487 25.3307 3.84925C25.3307 5.36683 26.7184 6.60301 26.7385 6.61306C26.9799 6.82412 27.0603 7.15578 26.9497 7.44724C26.8391 7.73869 26.5575 7.9397 26.2458 7.9397ZM4.20335 1.50754C2.71508 1.50754 1.50838 2.61307 1.50838 3.96985C1.50838 5.32663 2.71508 6.43216 4.20335 6.43216H24.6369C24.2045 5.75879 23.8223 4.86432 23.8223 3.84925C23.8223 3.02513 24.0737 2.24121 24.5564 1.50754H4.20335Z" fill="#3D33C1"/>
<path d="M22.4849 8.01005H17.6682V16.9648L20.0715 15.0553L22.4849 16.9648V8.01005Z" fill="#5A9DFF"/>
<path d="M24.5765 2.37186H5.85251V3.37688H24.5765V2.37186Z" fill="#3D33C1"/>
<path d="M24.5765 4.32161H5.85251V5.32663H24.5765V4.32161Z" fill="#3D33C1"/>
<path d="M6.35531 12.3819H5.34972V33.2462H6.35531V12.3819Z" fill="#3D33C1"/>
</g>
<defs>
<clipPath id="clip0_47_612">
<rect width="27" height="34" fill="white"/>
</clipPath>
</defs>
</svg>
