<svg width="22" height="22" viewBox="0 0 22 22" fill="none" xmlns="http://www.w3.org/2000/svg">
<g clip-path="url(#clip0_1457_4816)">
<path d="M8.47054 7.21457C8.33645 7.08044 8.26112 6.89855 8.26112 6.70889C8.26112 6.51923 8.33645 6.33734 8.47054 6.20321L10.4432 4.23057C10.5162 4.15747 10.603 4.09949 10.6985 4.05992C10.794 4.02036 10.8963 4 10.9996 4C11.103 4 11.2053 4.02036 11.3008 4.05992C11.3963 4.09949 11.483 4.15747 11.5561 4.23057L13.528 6.20321C13.5963 6.26919 13.6508 6.34812 13.6883 6.43538C13.7258 6.52264 13.7455 6.6165 13.7464 6.71147C13.7472 6.80644 13.7291 6.90062 13.6931 6.98852C13.6572 7.07642 13.6041 7.15628 13.5369 7.22344C13.4697 7.29059 13.3899 7.3437 13.302 7.37966C13.2141 7.41563 13.1199 7.43372 13.0249 7.4329C12.93 7.43207 12.8361 7.41234 12.7488 7.37486C12.6616 7.33737 12.5827 7.28288 12.5167 7.21457L11.7149 6.41278V10.2851H15.5872L14.7854 9.48332C14.6512 9.34921 14.5758 9.16727 14.5757 8.97754C14.5757 8.78781 14.651 8.60582 14.7851 8.47161C14.9192 8.3374 15.1011 8.26197 15.2909 8.2619C15.4806 8.26183 15.6626 8.33714 15.7968 8.47125L17.7694 10.4439C17.8425 10.517 17.9005 10.6037 17.9401 10.6992C17.9796 10.7947 18 10.897 18 11.0004C18 11.1037 17.9796 11.206 17.9401 11.3015C17.9005 11.397 17.8425 11.4838 17.7694 11.5568L15.7968 13.5295C15.6626 13.6636 15.4806 13.7389 15.2909 13.7388C15.1011 13.7387 14.9192 13.6633 14.7851 13.5291C14.651 13.3949 14.5757 13.2129 14.5757 13.0232C14.5758 12.8334 14.6512 12.6515 14.7854 12.5174L15.5872 11.7156H11.7149V15.5879L12.5167 14.7861C12.6516 14.6559 12.8322 14.5838 13.0198 14.5854C13.2073 14.587 13.3867 14.6622 13.5193 14.7949C13.6519 14.9275 13.7272 15.1069 13.7288 15.2944C13.7304 15.4819 13.6583 15.6626 13.528 15.7975L11.5561 17.7701C11.483 17.8432 11.3963 17.9012 11.3008 17.9408C11.2053 17.9804 11.103 18.0007 10.9996 18.0007C10.8963 18.0007 10.794 17.9804 10.6985 17.9408C10.603 17.9012 10.5162 17.8432 10.4432 17.7701L8.47054 15.7975C8.40413 15.731 8.35146 15.6522 8.31554 15.5654C8.27962 15.4785 8.26115 15.3855 8.26118 15.2916C8.26122 15.1976 8.27975 15.1046 8.31574 15.0178C8.35172 14.931 8.40444 14.8522 8.4709 14.7858C8.53735 14.7194 8.61623 14.6667 8.70304 14.6308C8.78985 14.5949 8.88288 14.5764 8.97683 14.5764C9.07077 14.5765 9.16379 14.595 9.25057 14.631C9.33736 14.667 9.4162 14.7197 9.48261 14.7861L10.2837 15.5879V11.7156H6.41278L7.21457 12.5174C7.28102 12.5838 7.33375 12.6626 7.36973 12.7494C7.40571 12.8362 7.42425 12.9292 7.42428 13.0232C7.42431 13.1171 7.40584 13.2102 7.36992 13.297C7.334 13.3838 7.28133 13.4627 7.21493 13.5291C7.14852 13.5956 7.06967 13.6483 6.98289 13.6843C6.89611 13.7202 6.80309 13.7388 6.70914 13.7388C6.6152 13.7388 6.52217 13.7204 6.43536 13.6845C6.34855 13.6485 6.26967 13.5959 6.20321 13.5295L4.23057 11.5568C4.15747 11.4838 4.09949 11.397 4.05992 11.3015C4.02036 11.206 4 11.1037 4 11.0004C4 10.897 4.02036 10.7947 4.05992 10.6992C4.09949 10.6037 4.15747 10.517 4.23057 10.4439L6.20321 8.47125C6.33752 8.33723 6.51956 8.26206 6.70929 8.26226C6.89903 8.26246 7.08091 8.33802 7.21493 8.47233C7.34895 8.60663 7.42412 8.78867 7.42392 8.9784C7.42372 9.16814 7.34816 9.35002 7.21385 9.48404L6.41206 10.2851H10.2844V6.4135L9.48261 7.21457C9.41618 7.28107 9.3373 7.33383 9.25047 7.36982C9.16364 7.40581 9.07057 7.42434 8.97657 7.42434C8.88258 7.42434 8.78951 7.40581 8.70268 7.36982C8.61585 7.33383 8.53696 7.28107 8.47054 7.21457Z" fill="#333333"/>
</g>
<defs>
<clipPath id="clip0_1457_4816">
<rect width="22" height="22" fill="white"/>
</clipPath>
</defs>
</svg>
