<svg width="71" height="70" viewBox="0 0 71 70" fill="none" xmlns="http://www.w3.org/2000/svg">
<rect x="1" y="0.5" width="69" height="69" rx="29.5" fill="#FCFCFC" stroke="#E8E8E8"/>
<path fill-rule="evenodd" clip-rule="evenodd" d="M35.587 18.7396C27.3681 18.7396 20.666 25.4759 20.666 33.8515H18.8928C18.8928 24.5648 26.3389 17 35.587 17C44.8351 17 52.2813 24.5648 52.2813 33.8515H50.508C50.508 25.4759 43.8059 18.7396 35.587 18.7396Z" fill="#3E30C5"/>
<path fill-rule="evenodd" clip-rule="evenodd" d="M50.4449 48.3319C50.9346 48.3319 51.3315 48.7213 51.3315 49.2017C51.3315 49.8748 51.1288 50.4859 50.6724 50.9818C50.2359 51.4561 49.6351 51.7507 48.9754 51.9453C47.6807 52.3274 45.8233 52.4157 43.5236 52.4157H39.6263C39.1366 52.4157 38.7396 52.0263 38.7396 51.5459C38.7396 51.0656 39.1366 50.6761 39.6263 50.6761H43.5236C45.8526 50.6761 47.4559 50.5771 48.4646 50.2795C48.9567 50.1343 49.2183 49.9659 49.3563 49.816C49.4744 49.6877 49.5583 49.5133 49.5583 49.2017C49.5583 48.7213 49.9552 48.3319 50.4449 48.3319Z" fill="#3E30C5"/>
<path d="M38.0433 53.1302C39.5989 53.1302 40.8599 51.8937 40.8599 50.3685C40.8599 48.8432 39.5989 47.6067 38.0433 47.6067C36.4878 47.6067 35.2268 48.8432 35.2268 50.3685C35.2268 51.8937 36.4878 53.1302 38.0433 53.1302Z" fill="white"/>
<path fill-rule="evenodd" clip-rule="evenodd" d="M38.0433 48.4765C36.977 48.4765 36.1134 49.324 36.1134 50.3685C36.1134 51.4129 36.977 52.2604 38.0433 52.2604C39.1096 52.2604 39.9732 51.4129 39.9732 50.3685C39.9732 49.324 39.1096 48.4765 38.0433 48.4765ZM34.3401 50.3685C34.3401 48.3624 35.9985 46.7369 38.0433 46.7369C40.0881 46.7369 41.7465 48.3624 41.7465 50.3685C41.7465 52.3745 40.0881 54 38.0433 54C35.9985 54 34.3401 52.3745 34.3401 50.3685Z" fill="#3E30C5"/>
<path d="M16.5698 35.9603H20.7619V47.3605H16.5698C14.5939 47.3605 13 45.787 13 43.8602V39.4713C13 37.5338 14.6048 35.971 16.5698 35.971V35.9603Z" fill="#00D8CA"/>
<path fill-rule="evenodd" clip-rule="evenodd" d="M16.9413 37.1479C16.9413 37.1479 16.9417 37.148 16.8885 37.4574L16.9413 37.1479C17.1224 37.1779 17.2448 37.3462 17.2143 37.5239C17.1837 37.7015 17.0122 37.8212 16.8311 37.7912L16.8863 37.47C16.8311 37.7912 16.8311 37.7912 16.8311 37.7912L16.8323 37.7914L16.8246 37.7904C16.8163 37.7894 16.8023 37.7878 16.7833 37.7863C16.7451 37.7832 16.6874 37.7804 16.6156 37.7824C16.4709 37.7865 16.2757 37.8101 16.0701 37.886C15.6785 38.0305 15.1987 38.3816 14.9834 39.2984C14.9421 39.4739 14.7636 39.5834 14.5847 39.543C14.4058 39.5025 14.2941 39.3274 14.3354 39.1519C14.6003 38.0241 15.2341 37.4975 15.8359 37.2754C16.1271 37.1679 16.3985 37.136 16.5964 37.1304C16.6958 37.1275 16.7783 37.1313 16.8375 37.1361C16.8672 37.1385 16.8912 37.1411 16.9088 37.1433L16.9303 37.1462L16.9373 37.1473L16.9398 37.1477L16.9413 37.1479Z" fill="white"/>
<path d="M54.4302 47.3605H50.2381V35.9603H54.4302C56.4061 35.9603 58 37.5338 58 39.4606V43.8495C58 45.787 56.3952 47.3498 54.4302 47.3498V47.3605Z" fill="#00D8CA"/>
<path fill-rule="evenodd" clip-rule="evenodd" d="M54.0587 46.1729C54.0587 46.1729 54.0583 46.1728 54.1115 45.8634L54.0587 46.1729C53.8776 46.1429 53.7552 45.9746 53.7857 45.7969C53.8163 45.6193 53.9878 45.4996 54.1689 45.5296L54.1137 45.8508C54.1689 45.5296 54.1689 45.5296 54.1689 45.5296L54.1677 45.5294L54.1754 45.5304C54.1837 45.5314 54.1977 45.533 54.2167 45.5345C54.2549 45.5376 54.3126 45.5404 54.3844 45.5384C54.5291 45.5343 54.7243 45.5107 54.9299 45.4348C55.3215 45.2903 55.8013 44.9392 56.0166 44.0224C56.0579 43.8469 56.2364 43.7374 56.4153 43.7778C56.5942 43.8183 56.7059 43.9934 56.6646 44.1689C56.3997 45.2967 55.7659 45.8233 55.1641 46.0454C54.8729 46.1529 54.6015 46.1848 54.4036 46.1904C54.3042 46.1933 54.2217 46.1895 54.1625 46.1847C54.1328 46.1823 54.1088 46.1797 54.0912 46.1775L54.0697 46.1746L54.0627 46.1735L54.0602 46.1731L54.0587 46.1729Z" fill="white"/>
</svg>
