<svg width="71" height="70" viewBox="0 0 71 70" fill="none" xmlns="http://www.w3.org/2000/svg">
<rect x="1" y="0.5" width="69" height="69" rx="29.5" fill="#FCFCFC"/>
<rect x="1" y="0.5" width="69" height="69" rx="29.5" stroke="#E8E8E8"/>
<g clip-path="url(#clip0_1_773)">
<path d="M34.7348 44.2993C34.7348 44.8432 34.2937 45.2822 33.7473 45.2822C33.201 45.2822 32.7599 44.8432 32.7599 44.2993C32.7599 43.7555 33.201 43.3165 33.7473 43.3165C34.2937 43.3165 34.7348 43.7555 34.7348 44.2993Z" fill="#3E30C5"/>
<path fill-rule="evenodd" clip-rule="evenodd" d="M53.0583 48.6697H39.3265L40.2936 52.2702H42.2458C42.7264 52.2702 43.1148 52.6568 43.1148 53.1351C43.1148 53.6134 42.7264 54 42.2458 54H25.2454C24.7649 54 24.3765 53.6134 24.3765 53.1351C24.3765 52.6568 24.7649 52.2702 25.2454 52.2702H27.1736L28.0785 48.6697H14.4363C12.5437 48.6697 11 47.238 11 45.4755V19.1942C11 17.435 12.5404 16 14.4363 16H53.0583C54.9542 16 56.4946 17.435 56.4946 19.1942V45.4722C56.4946 47.2348 54.9542 48.6664 53.0583 48.6664V48.6697ZM12.7412 39.75V19.1942C12.7412 18.3883 13.5015 17.7331 14.4363 17.7331H53.0583C53.9931 17.7331 54.7534 18.3883 54.7534 19.1942V45.4722C54.7534 46.2781 53.9931 46.9334 53.0583 46.9334H14.4363C13.5015 46.9334 12.7412 46.2781 12.7412 45.4722V42.125H38.5777C38.8747 42.125 39.1148 41.5942 39.1148 40.9375C39.1148 40.2808 38.8747 39.75 38.5777 39.75H12.7412ZM29.8733 48.6697H37.5194L38.4871 52.2669H28.9682L29.8733 48.6697Z" fill="#3E30C5"/>
<path d="M48.4766 51.6314C42.575 51.6314 37.776 46.8515 37.776 40.9806C37.776 35.1098 42.5783 30.3299 48.4766 30.3299C54.3749 30.3299 59.1771 35.1098 59.1771 40.9806C59.1771 46.8515 54.3749 51.6314 48.4766 51.6314Z" fill="#00D8CA"/>
<path d="M48.4766 31.1456C53.9338 31.1456 58.3543 35.5488 58.3543 40.9773C58.3543 46.4059 53.9305 50.809 48.4766 50.809C43.0226 50.809 38.5989 46.4059 38.5989 40.9773C38.5989 35.5488 43.0226 31.1456 48.4766 31.1456ZM48.4766 29.5075C42.1208 29.5075 36.9532 34.6544 36.9532 40.9773C36.9532 47.3003 42.1241 52.4471 48.4766 52.4471C54.8291 52.4471 60 47.3003 60 40.9773C60 34.6544 54.8291 29.5075 48.4766 29.5075Z" fill="white"/>
<path d="M46.2549 43.5524V40.06L51.2612 45.138L52.6765 43.7555L47.7854 38.7921H51.1163V36.8166H44.2701V43.5524H46.2549Z" fill="white"/>
<path d="M36.1074 21.1861H41.038V22.418H39.3132V27.0013H37.8354V22.418H36.1074V21.1861Z" fill="#00D8CA"/>
<path d="M44.6191 22.644C44.5598 22.549 44.471 22.4802 44.3558 22.4343C44.2406 22.3885 44.0957 22.3655 43.9246 22.3655C43.7666 22.3655 43.6349 22.3852 43.5263 22.4245C43.4177 22.4638 43.3387 22.5195 43.286 22.5916C43.2334 22.6637 43.2038 22.7423 43.2038 22.834C43.1972 22.9815 43.2597 23.0994 43.3848 23.1879C43.5099 23.2763 43.7139 23.3549 43.9871 23.4205L44.4644 23.5155C45.0733 23.6498 45.5177 23.8627 45.804 24.1609C46.0904 24.459 46.2352 24.8325 46.2418 25.2911C46.2418 25.6679 46.1496 25.989 45.962 26.2543C45.7777 26.5197 45.5111 26.7195 45.1688 26.8604C44.8264 27.0013 44.4117 27.0701 43.9312 27.0701C43.4506 27.0701 43.003 26.9947 42.6376 26.8408C42.2723 26.6868 41.9892 26.4574 41.7917 26.1462C41.5942 25.8383 41.4922 25.4484 41.4823 24.9832H42.9207C42.9306 25.1601 42.9766 25.3108 43.0589 25.4353C43.1412 25.5598 43.2531 25.6548 43.398 25.717C43.5428 25.7793 43.7139 25.812 43.9114 25.812C44.0793 25.812 44.2241 25.7891 44.3426 25.7432C44.4611 25.6974 44.55 25.6351 44.6125 25.5598C44.675 25.4844 44.7047 25.3927 44.7047 25.2911C44.7047 25.1961 44.675 25.111 44.6191 25.0422C44.5631 24.9734 44.4677 24.9111 44.3393 24.8554C44.2109 24.7997 44.0398 24.7506 43.8291 24.7047L43.2531 24.5737C42.7298 24.4623 42.3282 24.2723 42.0517 24.0036C41.7753 23.735 41.6337 23.3844 41.6337 22.9421C41.6337 22.5818 41.7325 22.2607 41.9267 21.9855C42.1209 21.7103 42.3908 21.4941 42.7364 21.3401C43.082 21.1861 43.4769 21.1075 43.9213 21.1075C44.3656 21.1075 44.7672 21.1861 45.1029 21.3401C45.4387 21.4941 45.6987 21.7136 45.883 21.9953C46.0673 22.2804 46.1595 22.608 46.1595 22.9847H44.7178C44.708 22.8537 44.6717 22.7423 44.6125 22.6473L44.6191 22.644Z" fill="#00D8CA"/>
<path d="M46.8606 21.1861H49.293C49.7143 21.1861 50.0829 21.2713 50.4055 21.4384C50.728 21.6055 50.9716 21.8479 51.1461 22.1559C51.3205 22.4638 51.4094 22.8242 51.4094 23.2272C51.4094 23.6301 51.3205 23.9938 51.1395 24.2985C50.9584 24.6032 50.705 24.839 50.3791 25.0028C50.0533 25.1699 49.6748 25.2518 49.2436 25.2518H47.7723V24.056H48.9539C49.1416 24.056 49.3028 24.0233 49.4345 23.9545C49.5662 23.8857 49.6715 23.7939 49.7406 23.6694C49.8097 23.545 49.8459 23.3975 49.8459 23.2272C49.8459 23.0568 49.8097 22.9094 49.7406 22.7849C49.6715 22.6604 49.5694 22.5687 49.4378 22.5031C49.3061 22.4376 49.1448 22.4081 48.9539 22.4081H48.3648V27.0013H46.8639V21.1861H46.8606Z" fill="#00D8CA"/>
<path fill-rule="evenodd" clip-rule="evenodd" d="M20.644 23.1879L20.6539 20.8454V20.8421C21.7203 21.3696 22.451 22.418 22.4477 23.7743C22.4444 25.1306 21.6215 26.2871 20.4597 26.7687L20.7954 36.1483V36.2597C20.7888 37.1573 20.0713 37.8814 19.1891 37.8781C18.307 37.8748 17.5961 37.1442 17.5994 36.2466L17.606 36.1352L18.0207 26.7589C16.8654 26.2674 16.0524 25.1044 16.059 23.7481C16.0623 22.4606 16.8061 21.3532 17.8759 20.8323L17.866 23.1748C17.8627 23.6367 18.2313 24.0167 18.6856 24.0167L19.8178 24.0233C20.272 24.0233 20.644 23.6498 20.644 23.1879ZM19.2089 36.643C19.5446 36.643 19.8178 36.3678 19.8178 36.0271V36.0303C19.8211 35.6896 19.5512 35.4144 19.2155 35.4112C18.8798 35.4079 18.6066 35.6831 18.6066 36.0238C18.6033 36.3645 18.8732 36.643 19.2089 36.643Z" fill="#3E30C5"/>
<path d="M24.3206 28.8032H34.3233V29.7696H24.3206V28.8032Z" fill="#3E30C5"/>
<path d="M24.3206 31.8041H30.8508V32.7706H24.3206V31.8041Z" fill="#3E30C5"/>
<path d="M34.3233 34.8083H24.3206V35.7748H34.3233V34.8083Z" fill="#3E30C5"/>
<path d="M32.1246 31.8336H34.3233V32.8001H32.1246V31.8336Z" fill="#3E30C5"/>
</g>
<defs>
<clipPath id="clip0_1_773">
<rect width="49" height="38" fill="white" transform="translate(11 16)"/>
</clipPath>
</defs>
</svg>
