<svg width="57" height="53" viewBox="0 0 57 53" fill="none" xmlns="http://www.w3.org/2000/svg">
<g clip-path="url(#clip0_47_610)">
<path d="M11.6478 29.8565C11.6478 32.7076 14.1878 35.0156 17.3131 35.0156C20.4384 35.0156 22.9783 32.7076 22.9783 29.8565C22.9783 27.0054 20.4384 24.6973 17.3131 24.6973C14.1878 24.6973 11.6478 27.0054 11.6478 29.8565Z" fill="#00D8CA"/>
<path d="M19.9922 35.8687C20.0121 35.8784 20.0418 35.8978 20.0418 35.8978C22.5024 36.8578 24.2287 39.0786 24.2287 41.6679V43.5395C24.2287 44.1795 23.6632 44.6935 22.9588 44.6935H11.658C10.9536 44.6935 10.3881 44.1795 10.3881 43.5395V41.6679C10.3881 41.5741 10.4009 41.4835 10.4138 41.3924C10.4236 41.3234 10.4334 41.2541 10.4377 41.183C10.4377 41.183 10.3781 38.0797 13.682 36.3051C13.9301 36.1693 14.2079 36.0432 14.4956 35.9269V35.8687C14.4956 35.8687 14.5849 35.8299 14.7437 35.7814C14.7692 35.7739 14.7965 35.7658 14.8255 35.7572C15.0225 35.6986 15.2994 35.6163 15.6366 35.5487C15.6389 35.548 15.6415 35.5474 15.6442 35.5466C15.7712 35.5126 16.3604 35.3549 17.2538 35.3644C18.0674 35.345 18.9802 35.4614 19.8731 35.8299H19.893C19.9327 35.8493 19.9624 35.859 19.9922 35.8687Z" fill="#00D8CA"/>
<path d="M28.892 30.2534H46.8105V32.6196H28.892V30.2534Z" fill="#3E30C5"/>
<path d="M28.892 37.3525H46.8105V39.7187H28.892V37.3525Z" fill="#3E30C5"/>
<path d="M49.638 13.3311H39.0715V15.3385H49.638C52.3367 15.3385 54.5393 17.2974 54.5393 19.7122V46.6715C54.5393 49.0765 52.3367 51.0355 49.638 51.0355H7.36195C4.65334 51.0355 2.46066 49.0765 2.46066 46.6715V19.7122C2.46066 17.3071 4.66326 15.3385 7.36195 15.3385H17.9285V13.3311H7.36195C3.34369 13.3311 0.0794678 16.1919 0.0794678 19.7024V46.6618C0.0794678 50.1724 3.34369 53.0332 7.36195 53.0332H49.638C53.6563 53.0332 56.9205 50.1724 56.9205 46.6618V19.7024C56.9205 16.1919 53.6563 13.3311 49.638 13.3311Z" fill="#3E30C5"/>
<path fill-rule="evenodd" clip-rule="evenodd" d="M17.9408 18.3546C17.9408 16.4216 19.5078 14.8546 21.4408 14.8546H35.1723C37.1053 14.8546 38.6723 16.4216 38.6723 18.3546C38.6723 20.2875 37.1053 21.8546 35.1723 21.8546H21.4408C19.5078 21.8546 17.9408 20.2875 17.9408 18.3546Z" fill="#00D8CA"/>
<path d="M30.6685 0.966858H25.9359C24.4973 0.966858 23.3265 2.11118 23.3265 3.51733V15.5327C23.3265 16.9388 24.4973 18.0832 25.9359 18.0832H30.6685C32.1072 18.0832 33.2779 16.9388 33.2779 15.5327V3.51733C33.2779 2.11118 32.1072 0.966858 30.6685 0.966858Z" fill="#00D8CA"/>
<path fill-rule="evenodd" clip-rule="evenodd" d="M22.3265 3.51733C22.3265 1.53749 23.9667 -0.0331421 25.9359 -0.0331421H30.6685C32.6378 -0.0331421 34.2779 1.53749 34.2779 3.51733V15.5327C34.2779 17.5125 32.6378 19.0832 30.6685 19.0832H25.9359C23.9667 19.0832 22.3265 17.5125 22.3265 15.5327V3.51733ZM25.9359 1.96686C25.0279 1.96686 24.3265 2.68487 24.3265 3.51733V15.5327C24.3265 16.3651 25.0279 17.0832 25.9359 17.0832H30.6685C31.5766 17.0832 32.2779 16.3651 32.2779 15.5327V3.51733C32.2779 2.68487 31.5766 1.96686 30.6685 1.96686H25.9359ZM30.6685 5.81681H25.9359V3.81681H30.6685V5.81681Z" fill="white"/>
</g>
<defs>
<clipPath id="clip0_47_610">
<rect width="57" height="53" fill="white"/>
</clipPath>
</defs>
</svg>
