<svg width="40" height="36" viewBox="0 0 40 36" fill="none" xmlns="http://www.w3.org/2000/svg">
<path d="M19.4741 20.6961H7.25212V21.7233H19.4741V20.6961Z" fill="#3E30C5"/>
<path d="M17.6307 24.2088H7.25212V25.2359H17.6307V24.2088Z" fill="#3E30C5"/>
<path d="M13.3431 27.7421H7.25212V28.7692H13.3431V27.7421Z" fill="#3E30C5"/>
<path d="M19.4741 27.7421H15.2966V28.7692H19.4741V27.7421Z" fill="#3E30C5"/>
<path d="M7.30221 7.39515H13.2228V8.92553H11.1491V14.5951H9.37593V8.92553H7.30221V7.39515Z" fill="#EE2E5B"/>
<path d="M17.5205 9.19258C17.4504 9.0796 17.3402 8.98716 17.21 8.93581C17.0798 8.88445 16.8994 8.85364 16.6891 8.85364C16.4987 8.85364 16.3384 8.87418 16.2082 8.92553C16.078 8.97689 15.9878 9.04879 15.9177 9.13096C15.8475 9.21312 15.8175 9.31583 15.8175 9.42882C15.8175 9.61369 15.8876 9.75749 16.0379 9.87047C16.1882 9.98345 16.4286 10.0759 16.7592 10.1581L17.3302 10.2813C18.0615 10.4457 18.5925 10.7127 18.9431 11.0825C19.2937 11.4522 19.464 11.9144 19.464 12.4793C19.464 12.9415 19.3538 13.3421 19.1334 13.6708C18.9131 13.9994 18.5925 14.2459 18.1817 14.4205C17.771 14.5951 17.2701 14.6773 16.6991 14.6773C16.1281 14.6773 15.5871 14.5849 15.1463 14.3897C14.7055 14.1946 14.3649 13.9173 14.1345 13.5372C13.9041 13.1572 13.7738 12.6745 13.7638 12.0993H15.4869C15.4969 12.315 15.557 12.4999 15.6572 12.6539C15.7574 12.808 15.8876 12.921 16.0679 13.0031C16.2483 13.0853 16.4486 13.1161 16.6891 13.1161C16.8894 13.1161 17.0597 13.0853 17.21 13.034C17.3603 12.9826 17.4604 12.9004 17.5306 12.808C17.6007 12.7155 17.6408 12.6026 17.6408 12.4793C17.6408 12.3561 17.6107 12.2534 17.5406 12.1712C17.4705 12.089 17.3603 12.0068 17.2 11.9349C17.0397 11.8631 16.8393 11.8014 16.5889 11.7501L15.8976 11.5857C15.2665 11.4419 14.7856 11.216 14.455 10.8873C14.1245 10.5586 13.9542 10.117 13.9542 9.57261C13.9542 9.12068 14.0744 8.73039 14.3048 8.39144C14.5352 8.0525 14.8658 7.78545 15.2765 7.5903C15.6873 7.39515 16.1681 7.30271 16.6991 7.30271C17.23 7.30271 17.7209 7.39515 18.1216 7.5903C18.5223 7.78545 18.8329 8.0525 19.0533 8.40171C19.2737 8.75093 19.3839 9.16177 19.3839 9.62397H17.6508C17.6408 9.45963 17.5907 9.32611 17.5205 9.20285V9.19258Z" fill="#EE2E5B"/>
<path d="M20.2154 7.39515H23.1406C23.6415 7.39515 24.0923 7.49786 24.473 7.70328C24.8537 7.9087 25.1543 8.20656 25.3646 8.59686C25.575 8.98716 25.6752 9.41854 25.6752 9.92183C25.6752 10.4251 25.565 10.8668 25.3546 11.2468C25.1442 11.6268 24.8337 11.9144 24.443 12.1198C24.0523 12.3252 23.5914 12.428 23.0805 12.428H21.3073V10.9489H22.7299C22.9503 10.9489 23.1507 10.9078 23.3109 10.8257C23.4712 10.7435 23.5914 10.6203 23.6816 10.4765C23.7718 10.3327 23.8118 10.1375 23.8118 9.9321C23.8118 9.72668 23.7718 9.5418 23.6816 9.38773C23.5914 9.23367 23.4712 9.12069 23.321 9.03852C23.1707 8.95635 22.9703 8.91526 22.7399 8.91526H22.0286V14.5951H20.2254V7.39515H20.2154Z" fill="#EE2E5B"/>
<path d="M30.003 16.5261C24.7535 16.5261 20.5059 20.881 20.5059 26.2631C20.5059 31.6451 24.7535 36 30.003 36C35.2524 36 39.5 31.6451 39.5 26.2631C39.5 20.881 35.2424 16.5261 30.003 16.5261ZM30.053 31.2445L25.1042 25.4003L26.1861 24.4348L29.9529 28.8924L33.95 23.3153L35.1021 24.1883L30.043 31.2548L30.053 31.2445Z" fill="#EE2E5B"/>
<path d="M21.698 34.4593H2.0027V1.54066H30.7643V15.1087C31.0548 15.0882 31.3554 15.0676 31.6559 15.0676C31.8663 15.0676 32.0667 15.0882 32.267 15.0984V0.770328C32.267 0.349215 31.9264 0 31.5157 0H1.25135C0.840611 0 0.5 0.349215 0.5 0.770328V35.2297C0.5 35.6508 0.840611 36 1.25135 36H22.5596C22.239 35.507 21.9585 34.9934 21.698 34.4593Z" fill="#3E30C5"/>
</svg>
